<?xml version="1.0" encoding="UTF-8"?>
<svg xmlns="http://www.w3.org/2000/svg" xmlns:xlink="http://www.w3.org/1999/xlink" width="100px" height="100px" viewBox="0 0 100 100" version="1.1">
<g id="surface1">
<path style=" stroke:none;fill-rule:evenodd;fill:rgb(20%,40.392157%,56.862748%);fill-opacity:1;" d="M 49.539062 78.296875 C 50.9375 79.453125 52.578125 79.949219 54.351562 80.039062 C 55.085938 80.078125 55.839844 80.042969 56.558594 79.910156 C 57.703125 79.703125 58.84375 79.441406 59.957031 79.105469 C 62.222656 78.421875 64.179688 77.242188 65.640625 75.332031 C 66.472656 74.246094 67.15625 73.070312 67.597656 71.769531 C 67.960938 70.699219 68.300781 69.613281 68.570312 68.515625 C 68.785156 67.652344 68.890625 66.757812 69.019531 65.875 C 69.109375 65.289062 69.160156 64.699219 69.214844 64.109375 C 69.300781 63.152344 69.394531 62.199219 69.457031 61.238281 C 69.5 60.570312 69.5 59.902344 69.523438 59.234375 C 69.535156 59.027344 69.566406 58.828125 69.585938 58.625 C 69.601562 58.4375 69.699219 58.371094 69.890625 58.375 C 70.566406 58.382812 71.242188 58.402344 71.914062 58.371094 C 72.671875 58.335938 73.433594 58.304688 74.175781 58.179688 C 75.234375 58.003906 76.285156 57.777344 77.324219 57.507812 C 78.546875 57.1875 79.671875 56.613281 80.753906 55.960938 C 82.015625 55.199219 83.164062 54.304688 84.09375 53.15625 C 84.90625 52.152344 85.289062 50.992188 85.09375 49.726562 C 84.808594 47.886719 83.265625 46.679688 81.464844 46.597656 C 80.816406 46.570312 80.152344 46.636719 79.503906 46.71875 C 78.71875 46.820312 77.945312 46.996094 77.164062 47.113281 C 76.625 47.195312 76.074219 47.230469 75.535156 47.285156 L 75.523438 47.214844 C 76.53125 45.3125 77.578125 43.429688 78.53125 41.5 C 79.265625 40.019531 79.890625 38.484375 80.535156 36.960938 C 81.605469 34.441406 82.460938 31.839844 83.167969 29.199219 C 83.84375 26.667969 84.425781 24.109375 84.609375 21.484375 C 84.683594 20.4375 84.734375 19.386719 84.726562 18.335938 C 84.722656 17.5 84.628906 16.660156 84.546875 15.828125 C 84.453125 14.871094 84.164062 13.964844 83.761719 13.09375 C 83.234375 11.941406 82.417969 11 81.558594 10.105469 C 80.871094 9.386719 80.113281 8.734375 79.359375 8.082031 C 78.289062 7.148438 77.085938 6.40625 75.835938 5.746094 C 74.417969 4.992188 72.917969 4.410156 71.363281 4.011719 C 70.417969 3.769531 69.464844 3.558594 68.503906 3.367188 C 68.164062 3.300781 67.820312 3.125 67.476562 3.125 L 61.019531 3.125 C 60.785156 3.125 60.554688 3.277344 60.320312 3.304688 C 58.773438 3.472656 57.246094 3.789062 55.761719 4.246094 C 55.207031 4.417969 54.699219 4.316406 54.171875 4.265625 C 53.765625 4.230469 53.371094 4.125 52.964844 4.105469 C 51.425781 4.027344 49.882812 3.917969 48.34375 3.933594 C 46.867188 3.949219 45.40625 4.195312 43.980469 4.597656 C 42.785156 4.9375 41.617188 5.351562 40.542969 5.980469 C 40.085938 6.25 39.722656 6.199219 39.25 6.0625 C 37.65625 5.597656 36.050781 5.179688 34.429688 4.808594 C 33.421875 4.585938 32.382812 4.46875 31.355469 4.363281 C 30.363281 4.261719 29.371094 4.199219 28.378906 4.179688 C 27.40625 4.15625 26.429688 4.160156 25.464844 4.246094 C 23.925781 4.382812 22.417969 4.695312 20.949219 5.199219 C 19.332031 5.75 17.820312 6.574219 16.480469 7.636719 C 15.113281 8.71875 14.019531 10.039062 13.136719 11.546875 C 12.207031 13.136719 11.570312 14.84375 11.175781 16.628906 C 10.960938 17.601562 11.039062 18.597656 10.890625 19.582031 C 10.847656 19.886719 10.9375 20.191406 10.9375 20.5 L 10.9375 24.785156 C 10.9375 25.066406 10.855469 25.351562 10.890625 25.640625 C 10.976562 26.324219 10.949219 27.019531 11.0625 27.699219 C 11.246094 28.78125 11.410156 29.855469 11.632812 30.925781 C 11.945312 32.425781 12.238281 33.921875 12.582031 35.410156 C 12.832031 36.496094 13.105469 37.574219 13.402344 38.648438 C 13.855469 40.289062 14.296875 41.929688 14.8125 43.546875 C 15.289062 45.054688 15.832031 46.539062 16.375 48.023438 C 17.117188 50.074219 18.03125 52.0625 19.101562 53.964844 C 20.035156 55.613281 21.101562 57.160156 22.53125 58.429688 C 23.472656 59.265625 24.519531 59.910156 25.738281 60.230469 C 26.691406 60.484375 27.691406 60.511719 28.65625 60.3125 C 29.773438 60.085938 30.820312 59.582031 31.699219 58.855469 C 31.800781 58.769531 31.914062 58.707031 32.035156 58.859375 C 32.5 59.449219 33.121094 59.839844 33.769531 60.179688 C 35.523438 61.09375 37.429688 61.367188 39.367188 61.476562 C 39.839844 61.503906 40.3125 61.4375 40.785156 61.425781 C 41.707031 61.398438 42.601562 61.21875 43.484375 60.964844 C 43.945312 60.832031 44.398438 60.660156 44.867188 60.503906 C 44.890625 61.003906 44.921875 61.484375 44.9375 61.96875 L 45.003906 64.59375 C 45.015625 64.996094 45.03125 65.394531 45.066406 65.792969 C 45.164062 66.820312 45.257812 67.847656 45.378906 68.871094 C 45.464844 69.574219 45.550781 70.285156 45.71875 70.972656 C 46.050781 72.363281 46.507812 73.71875 47.078125 75.027344 C 47.628906 76.296875 48.46875 77.417969 49.539062 78.296875 Z M 46.734375 65.195312 C 46.675781 63.960938 46.636719 62.726562 46.609375 61.492188 C 46.574219 59.976562 46.566406 58.457031 46.542969 56.941406 L 46.539062 56.882812 C 45.769531 57.347656 45.007812 57.851562 44.203125 58.269531 C 43.261719 58.761719 42.238281 59.042969 41.179688 59.125 C 40.347656 59.1875 39.503906 59.246094 38.679688 59.179688 C 37.320312 59.070312 35.964844 58.855469 34.75 58.1875 C 34.257812 57.917969 33.746094 57.585938 33.40625 57.15625 C 32.59375 56.117188 32.980469 54.804688 34.207031 54.171875 C 35.054688 53.734375 35.980469 53.554688 36.898438 53.339844 C 37.699219 53.160156 38.492188 52.945312 39.273438 52.691406 C 40.042969 52.441406 40.527344 51.816406 41.007812 51.203125 L 41.769531 50.222656 L 40.855469 50.128906 C 39.945312 50.042969 39.082031 49.792969 38.253906 49.425781 C 37.542969 49.113281 37.535156 49.078125 37.011719 49.644531 C 36.144531 50.585938 35.300781 51.550781 34.453125 52.507812 C 33.824219 53.210938 33.203125 53.921875 32.582031 54.628906 C 31.964844 55.328125 31.386719 56.066406 30.722656 56.714844 C 29.734375 57.679688 28.546875 58.261719 27.128906 58.195312 C 26.21875 58.152344 25.386719 57.835938 24.636719 57.3125 C 23.089844 56.238281 22.046875 54.730469 21.097656 53.148438 C 19.882812 51.117188 18.949219 48.957031 18.152344 46.738281 C 17.601562 45.207031 17.042969 43.671875 16.5625 42.113281 C 16.039062 40.421875 15.578125 38.710938 15.125 37 C 14.785156 35.707031 14.480469 34.40625 14.191406 33.101562 C 13.859375 31.617188 13.550781 30.128906 13.269531 28.636719 C 13.082031 27.628906 12.972656 26.605469 12.820312 25.589844 C 12.613281 24.21875 12.578125 22.839844 12.652344 21.464844 C 12.71875 20.226562 12.894531 18.992188 13.070312 17.761719 C 13.316406 16.0625 13.878906 14.457031 14.683594 12.9375 C 15.179688 12.015625 15.789062 11.15625 16.5 10.382812 C 17.664062 9.09375 19.070312 8.164062 20.636719 7.464844 C 21.734375 6.976562 22.890625 6.683594 24.070312 6.453125 C 25.820312 6.109375 27.585938 6.125 29.351562 6.160156 C 30.121094 6.175781 30.890625 6.316406 31.664062 6.394531 C 33.324219 6.558594 34.949219 6.910156 36.558594 7.339844 C 37.730469 7.652344 38.878906 8.0625 40.039062 8.414062 C 40.152344 8.449219 40.324219 8.445312 40.421875 8.386719 C 41.996094 7.355469 43.714844 6.679688 45.546875 6.289062 C 46.238281 6.144531 46.957031 6.078125 47.667969 6.035156 C 48.53125 5.980469 49.402344 5.929688 50.261719 5.980469 C 51.296875 6.039062 52.328125 6.191406 53.359375 6.332031 C 53.859375 6.398438 54.34375 6.574219 54.84375 6.621094 C 55.085938 6.640625 55.339844 6.46875 55.59375 6.410156 C 56.886719 6.109375 58.171875 5.777344 59.476562 5.542969 C 60.445312 5.367188 61.4375 5.285156 62.425781 5.226562 C 63.527344 5.164062 64.632812 5.117188 65.734375 5.171875 C 67.125 5.238281 68.503906 5.4375 69.867188 5.753906 C 71.554688 6.148438 73.175781 6.71875 74.714844 7.507812 C 75.867188 8.101562 76.957031 8.789062 77.945312 9.632812 C 78.589844 10.1875 79.25 10.730469 79.832031 11.347656 C 80.550781 12.109375 81.285156 12.871094 81.734375 13.84375 C 82.074219 14.578125 82.316406 15.339844 82.382812 16.144531 C 82.46875 17.144531 82.566406 18.148438 82.558594 19.152344 C 82.550781 20.109375 82.417969 21.066406 82.328125 22.023438 C 82.117188 24.199219 81.644531 26.332031 81.066406 28.433594 C 80.585938 30.171875 80.042969 31.890625 79.433594 33.589844 C 78.882812 35.152344 78.242188 36.6875 77.59375 38.21875 C 77.117188 39.351562 76.601562 40.46875 76.046875 41.5625 C 74.988281 43.636719 73.886719 45.6875 72.613281 47.640625 C 72.394531 47.976562 72.1875 48.320312 71.972656 48.667969 C 72.527344 49.039062 73.15625 49.171875 73.789062 49.242188 C 74.390625 49.304688 75.007812 49.347656 75.609375 49.300781 C 76.570312 49.230469 77.53125 49.089844 78.488281 48.957031 C 79.4375 48.824219 80.367188 48.554688 81.339844 48.625 C 82.3125 48.699219 83.011719 49.4375 82.945312 50.347656 C 82.902344 50.925781 82.636719 51.417969 82.253906 51.839844 C 80.445312 53.835938 78.175781 55.046875 75.578125 55.640625 C 74.589844 55.867188 73.574219 55.984375 72.5625 56.078125 C 71.703125 56.15625 70.835938 56.175781 69.96875 56.140625 C 69.335938 56.117188 68.707031 55.972656 68.058594 55.878906 C 67.992188 56.472656 67.929688 57.089844 67.855469 57.703125 L 67.554688 60.066406 C 67.460938 60.816406 67.390625 61.566406 67.296875 62.316406 C 67.203125 63.042969 67.089844 63.765625 66.992188 64.488281 C 66.902344 65.164062 66.835938 65.84375 66.734375 66.519531 C 66.582031 67.554688 66.433594 68.589844 66.230469 69.617188 C 65.988281 70.84375 65.617188 72.03125 65.011719 73.140625 C 64.273438 74.488281 63.222656 75.519531 61.890625 76.28125 C 60.515625 77.066406 59.011719 77.472656 57.488281 77.816406 C 56.410156 78.058594 55.296875 78.097656 54.207031 78 C 52.3125 77.828125 50.695312 77.019531 49.472656 75.546875 C 48.304688 74.144531 47.515625 72.539062 47.234375 70.71875 C 47.101562 69.855469 46.996094 68.984375 46.921875 68.113281 C 46.839844 67.140625 46.773438 66.167969 46.734375 65.195312 Z M 48.863281 52.730469 C 48.875 53.378906 48.808594 54.027344 48.808594 54.675781 C 48.824219 57.695312 48.84375 60.714844 48.871094 63.734375 C 48.875 64.226562 48.898438 64.71875 48.933594 65.210938 C 49.007812 66.242188 49.082031 67.277344 49.183594 68.304688 C 49.253906 69.035156 49.351562 69.761719 49.46875 70.488281 C 49.632812 71.511719 50.097656 72.425781 50.628906 73.300781 C 51.085938 74.054688 51.679688 74.691406 52.460938 75.132812 C 53.789062 75.878906 55.222656 75.941406 56.664062 75.667969 C 57.636719 75.480469 58.59375 75.183594 59.539062 74.875 C 60.472656 74.574219 61.320312 74.066406 62.023438 73.386719 C 62.6875 72.746094 63.15625 71.960938 63.472656 71.097656 C 64.089844 69.421875 64.28125 67.65625 64.535156 65.902344 C 64.632812 65.246094 64.714844 64.589844 64.800781 63.933594 C 64.898438 63.183594 65 62.4375 65.09375 61.691406 C 65.167969 61.132812 65.230469 60.574219 65.300781 60.019531 C 65.398438 59.21875 65.5 58.417969 65.59375 57.617188 C 65.664062 57 65.722656 56.378906 65.785156 55.757812 C 65.867188 54.964844 65.953125 54.175781 66.027344 53.378906 C 66.078125 52.777344 66.058594 52.164062 66.164062 51.574219 C 66.359375 50.492188 66.871094 49.570312 67.832031 48.972656 C 68.234375 48.722656 68.691406 48.558594 69.136719 48.347656 L 69.058594 48.230469 C 68.648438 47.699219 68.226562 47.171875 67.820312 46.632812 C 67.1875 45.78125 66.730469 44.835938 66.273438 43.886719 C 65.835938 42.984375 65.304688 42.132812 64.847656 41.238281 C 64.050781 39.683594 63.238281 38.132812 62.503906 36.550781 C 61.578125 34.558594 60.851562 32.496094 60.621094 30.292969 C 60.523438 29.359375 60.5 28.425781 60.691406 27.5 C 60.992188 26.023438 61.761719 24.871094 63.058594 24.078125 C 64.261719 23.34375 65.601562 23.105469 66.976562 23.03125 C 67.828125 22.984375 68.683594 23.023438 69.566406 23.023438 L 69.539062 22.875 C 68.988281 21.722656 68.476562 20.554688 67.871094 19.433594 C 67.023438 17.847656 65.9375 16.421875 64.726562 15.09375 C 63.835938 14.109375 62.855469 13.207031 61.796875 12.398438 C 60.753906 11.609375 59.652344 10.902344 58.476562 10.324219 C 57.078125 9.628906 55.601562 9.105469 54.082031 8.761719 C 52.609375 8.433594 51.128906 8.234375 49.617188 8.21875 C 48.328125 8.203125 47.050781 8.261719 45.796875 8.554688 C 43.902344 8.992188 42.167969 9.769531 40.664062 11.035156 C 39.832031 11.734375 39.085938 12.53125 38.445312 13.410156 C 37.691406 14.445312 37.082031 15.566406 36.5625 16.738281 C 35.847656 18.351562 35.359375 20.023438 35.023438 21.746094 C 34.855469 22.605469 34.722656 23.46875 34.589844 24.335938 C 34.542969 24.640625 34.539062 24.949219 34.511719 25.296875 L 35.085938 24.996094 L 35.640625 24.746094 C 37.53125 23.882812 39.484375 23.328125 41.585938 23.390625 C 42.480469 23.417969 43.335938 23.597656 44.128906 23.988281 C 45.652344 24.738281 46.542969 26.015625 46.929688 27.632812 C 47.199219 28.746094 47.382812 29.886719 47.558594 31.019531 C 47.699219 31.90625 47.84375 32.800781 47.859375 33.695312 C 47.878906 35 47.816406 36.3125 47.742188 37.617188 C 47.683594 38.726562 47.453125 39.820312 47.0625 40.863281 C 46.355469 42.75 45.570312 44.605469 44.832031 46.484375 C 44.589844 47.101562 44.402344 47.746094 44.175781 48.425781 L 45.101562 48.425781 C 45.214844 48.429688 45.332031 48.433594 45.4375 48.457031 C 46.285156 48.65625 47.015625 49.039062 47.617188 49.691406 C 48.421875 50.554688 48.839844 51.5625 48.863281 52.730469 Z M 32.730469 43.78125 C 32.253906 42.65625 31.964844 41.457031 31.878906 40.238281 C 31.796875 39.085938 31.933594 37.941406 32.050781 36.792969 C 32.164062 35.683594 32.261719 34.566406 32.296875 33.453125 C 32.351562 31.621094 32.226562 29.792969 32.140625 27.960938 C 32.085938 26.867188 32.214844 25.765625 32.3125 24.671875 C 32.398438 23.6875 32.507812 22.699219 32.695312 21.730469 C 33.007812 20.101562 33.421875 18.496094 34.011719 16.941406 C 34.570312 15.46875 35.214844 14.03125 36.121094 12.738281 C 36.742188 11.851562 37.445312 11.023438 38.125 10.15625 L 37.921875 10.085938 C 35.71875 9.386719 33.476562 8.835938 31.167969 8.597656 C 30.078125 8.484375 28.984375 8.417969 27.890625 8.355469 C 27.554688 8.335938 27.214844 8.378906 26.878906 8.410156 C 26.042969 8.492188 25.199219 8.523438 24.378906 8.679688 C 22.984375 8.945312 21.644531 9.390625 20.402344 10.121094 C 19.304688 10.765625 18.34375 11.617188 17.570312 12.628906 C 16.707031 13.746094 16.121094 15.011719 15.703125 16.355469 C 15.210938 17.945312 14.972656 19.582031 14.910156 21.234375 C 14.855469 22.683594 14.828125 24.136719 15.078125 25.578125 C 15.261719 26.652344 15.386719 27.738281 15.59375 28.808594 C 15.867188 30.265625 16.175781 31.71875 16.519531 33.160156 C 17.011719 35.226562 17.507812 37.292969 18.09375 39.335938 C 18.65625 41.289062 19.289062 43.226562 19.976562 45.140625 C 20.535156 46.699219 21.1875 48.234375 21.871094 49.746094 C 22.316406 50.730469 22.855469 51.679688 23.417969 52.601562 C 24.019531 53.582031 24.703125 54.511719 25.632812 55.222656 C 26.800781 56.117188 27.707031 56.257812 28.898438 55.273438 C 29.40625 54.851562 29.839844 54.328125 30.28125 53.832031 C 30.984375 53.046875 31.664062 52.234375 32.367188 51.445312 C 33.261719 50.4375 34.164062 49.441406 35.0625 48.4375 C 35.25 48.222656 35.433594 48.003906 35.621094 47.792969 L 35.3125 47.523438 C 34.207031 46.464844 33.328125 45.191406 32.730469 43.78125 Z M 66.59375 13.78125 C 67.328125 14.632812 68.023438 15.519531 68.679688 16.433594 C 69.9375 18.195312 70.953125 20.125 71.691406 22.164062 C 72.019531 23.066406 72.28125 23.976562 72.164062 24.964844 C 72.082031 25.65625 72.089844 26.355469 72.027344 27.050781 C 71.976562 27.628906 71.886719 28.203125 71.8125 28.78125 C 71.699219 29.648438 71.535156 30.515625 71.488281 31.390625 C 71.441406 32.21875 71.492188 33.058594 71.542969 33.890625 C 71.59375 34.738281 71.710938 35.578125 71.785156 36.421875 C 71.875 37.382812 71.992188 38.339844 72.019531 39.296875 C 72.042969 40.085938 71.972656 40.878906 71.902344 41.664062 C 71.816406 42.609375 71.585938 43.535156 71.222656 44.410156 C 70.972656 45.027344 70.671875 45.628906 70.386719 46.25 L 70.5 46.371094 L 70.675781 46.503906 L 70.851562 46.191406 C 72.324219 43.871094 73.636719 41.449219 74.773438 38.945312 C 75.5 37.328125 76.191406 35.695312 76.847656 34.046875 C 77.863281 31.484375 78.6875 28.847656 79.308594 26.160156 C 79.589844 24.953125 79.804688 23.726562 79.996094 22.503906 C 80.144531 21.546875 80.269531 20.578125 80.296875 19.609375 C 80.324219 18.585938 80.269531 17.550781 80.175781 16.53125 C 80.101562 15.757812 79.914062 14.980469 79.429688 14.351562 C 78.652344 13.34375 77.8125 12.378906 76.78125 11.613281 C 75.910156 10.96875 75.042969 10.308594 74.113281 9.765625 C 72.632812 8.910156 71.03125 8.339844 69.359375 7.949219 C 67.726562 7.570312 66.074219 7.40625 64.410156 7.371094 C 63.425781 7.347656 62.441406 7.453125 61.460938 7.546875 C 60.574219 7.628906 59.691406 7.773438 58.800781 7.890625 C 59.757812 8.429688 60.703125 8.90625 61.59375 9.472656 C 63.46875 10.660156 65.152344 12.089844 66.59375 13.78125 Z M 42.234375 47.03125 C 42.839844 45.09375 43.664062 43.242188 44.464844 41.382812 C 45.113281 39.871094 45.464844 38.28125 45.585938 36.648438 C 45.644531 35.84375 45.628906 35.027344 45.585938 34.21875 C 45.546875 33.320312 45.464844 32.425781 45.339844 31.535156 C 45.171875 30.398438 44.980469 29.261719 44.714844 28.144531 C 44.421875 26.941406 43.6875 26.097656 42.429688 25.789062 C 41.660156 25.601562 40.898438 25.609375 40.125 25.730469 C 38.230469 26.027344 36.496094 26.726562 34.882812 27.75 C 34.558594 27.953125 34.378906 28.121094 34.4375 28.585938 C 34.554688 29.574219 34.582031 30.574219 34.574219 31.570312 C 34.570312 32.980469 34.507812 34.390625 34.457031 35.800781 C 34.4375 36.261719 34.371094 36.71875 34.324219 37.175781 C 34.246094 37.875 34.101562 38.574219 34.105469 39.273438 C 34.109375 39.992188 34.183594 40.730469 34.359375 41.429688 C 34.914062 43.640625 36.089844 45.449219 38.015625 46.726562 C 39.203125 47.511719 40.511719 47.910156 41.953125 47.984375 C 42.046875 47.652344 42.136719 47.34375 42.234375 47.03125 Z M 39.96875 28.058594 C 39.714844 27.523438 39.863281 27.082031 40.449219 26.878906 C 40.59375 26.828125 40.738281 26.773438 40.886719 26.761719 C 41.09375 26.742188 41.300781 26.753906 41.507812 26.753906 C 42.253906 26.761719 42.972656 26.863281 43.585938 27.335938 C 43.980469 27.640625 44.085938 28.042969 43.832031 28.460938 C 43.46875 29.046875 42.914062 29.34375 42.234375 29.398438 C 41.167969 29.488281 40.414062 28.988281 39.96875 28.058594 Z M 69.636719 27.863281 L 69.882812 25.734375 C 69.917969 25.449219 69.765625 25.371094 69.527344 25.363281 C 68.777344 25.34375 68.023438 25.316406 67.273438 25.304688 C 66.425781 25.289062 65.597656 25.425781 64.816406 25.746094 C 63.945312 26.105469 63.28125 26.679688 63.011719 27.625 C 62.8125 28.324219 62.75 29.054688 62.828125 29.777344 C 62.933594 30.894531 63.183594 31.992188 63.578125 33.042969 C 64.105469 34.441406 64.65625 35.84375 65.3125 37.183594 C 66.207031 39 67.214844 40.761719 68.160156 42.550781 C 68.414062 43.027344 68.625 43.527344 68.890625 44.082031 C 69.421875 42.976562 69.710938 41.765625 69.742188 40.539062 C 69.765625 39.519531 69.6875 38.503906 69.628906 37.484375 C 69.589844 36.863281 69.503906 36.246094 69.441406 35.625 C 69.359375 34.761719 69.230469 33.894531 69.210938 33.03125 C 69.191406 32.148438 69.253906 31.261719 69.328125 30.382812 C 69.398438 29.539062 69.539062 28.703125 69.636719 27.863281 Z M 67.945312 27.179688 C 67.664062 27.949219 67.066406 28.386719 66.292969 28.515625 C 65.570312 28.632812 64.9375 28.367188 64.46875 27.789062 C 64.132812 27.378906 64.261719 26.894531 64.761719 26.617188 C 65.339844 26.296875 65.972656 26.21875 66.71875 26.167969 C 66.925781 26.207031 67.230469 26.238281 67.519531 26.320312 C 67.941406 26.4375 68.097656 26.757812 67.945312 27.179688 Z M 45.601562 50.933594 C 45.1875 50.59375 44.640625 50.574219 44.25 50.945312 C 43.761719 51.40625 43.332031 51.933594 42.90625 52.453125 C 42.410156 53.050781 41.945312 53.675781 41.308594 54.140625 C 40.378906 54.816406 39.292969 55.09375 38.203125 55.359375 C 37.339844 55.570312 36.46875 55.765625 35.601562 55.96875 L 35.589844 56.082031 C 35.847656 56.199219 36.097656 56.347656 36.367188 56.433594 C 37.691406 56.851562 39.039062 57.0625 40.4375 56.945312 C 41.445312 56.855469 42.410156 56.636719 43.320312 56.203125 C 44.578125 55.609375 45.542969 54.667969 46.363281 53.570312 C 46.5 53.390625 46.5625 53.117188 46.578125 52.882812 C 46.636719 52.050781 46.210938 51.429688 45.601562 50.933594 Z M 69.777344 50.570312 C 69.128906 50.789062 68.601562 51.121094 68.441406 51.824219 C 68.335938 52.296875 68.296875 52.789062 68.253906 53.277344 C 68.246094 53.363281 68.355469 53.519531 68.4375 53.542969 C 68.9375 53.675781 69.4375 53.828125 69.949219 53.875 C 70.578125 53.933594 71.21875 53.914062 71.851562 53.882812 C 72.535156 53.847656 73.222656 53.804688 73.894531 53.691406 C 75.480469 53.425781 77.015625 52.992188 78.378906 52.09375 C 78.871094 51.769531 79.355469 51.4375 79.84375 51.105469 L 79.804688 51.039062 C 79.28125 51.113281 78.761719 51.210938 78.238281 51.265625 C 77.175781 51.378906 76.109375 51.5 75.039062 51.5625 C 74.523438 51.589844 74 51.492188 73.476562 51.449219 C 72.605469 51.378906 71.75 51.183594 71.011719 50.71875 C 70.585938 50.449219 70.230469 50.417969 69.777344 50.570312 Z M 69.777344 50.570312 "/>
<path style=" stroke:none;fill-rule:nonzero;fill:rgb(20%,40.392157%,56.862748%);fill-opacity:1;" d="M 2.214844 80.613281 C 3.335938 80.429688 4.472656 80.34375 5.609375 80.347656 C 7.355469 80.347656 8.632812 80.753906 9.445312 81.484375 C 10.199219 82.136719 10.644531 83.132812 10.644531 84.351562 C 10.644531 85.589844 10.277344 86.566406 9.589844 87.277344 C 8.652344 88.269531 7.128906 88.777344 5.402344 88.777344 C 4.875 88.777344 4.386719 88.757812 3.984375 88.65625 L 3.984375 94.140625 L 2.214844 94.140625 Z M 3.984375 87.214844 C 4.367188 87.316406 4.855469 87.355469 5.445312 87.355469 C 7.578125 87.355469 8.878906 86.320312 8.878906 84.429688 C 8.878906 82.625 7.597656 81.75 5.648438 81.75 C 4.875 81.75 4.289062 81.8125 3.984375 81.890625 Z M 21.351562 89.144531 C 21.351562 92.78125 18.832031 94.363281 16.453125 94.363281 C 13.792969 94.363281 11.742188 92.414062 11.742188 89.304688 C 11.742188 86.015625 13.894531 84.085938 16.617188 84.085938 C 19.441406 84.085938 21.351562 86.136719 21.351562 89.144531 Z M 13.550781 89.246094 C 13.550781 91.398438 14.789062 93.023438 16.535156 93.023438 C 18.242188 93.023438 19.519531 91.417969 19.519531 89.203125 C 19.519531 87.539062 18.6875 85.425781 16.574219 85.425781 C 14.460938 85.425781 13.550781 87.375 13.550781 89.246094 Z M 23.359375 92.3125 C 23.886719 92.65625 24.824219 93.023438 25.714844 93.023438 C 27.015625 93.023438 27.625 92.375 27.625 91.5625 C 27.625 90.707031 27.117188 90.242188 25.796875 89.753906 C 24.03125 89.125 23.199219 88.148438 23.199219 86.96875 C 23.199219 85.386719 24.476562 84.085938 26.589844 84.085938 C 27.585938 84.085938 28.460938 84.371094 29.007812 84.695312 L 28.5625 85.996094 C 27.957031 85.621094 27.261719 85.425781 26.550781 85.425781 C 25.492188 85.425781 24.90625 86.035156 24.90625 86.765625 C 24.90625 87.578125 25.496094 87.945312 26.773438 88.433594 C 28.480469 89.082031 29.355469 89.9375 29.355469 91.398438 C 29.355469 93.125 28.011719 94.34375 25.675781 94.34375 C 24.601562 94.34375 23.605469 94.078125 22.914062 93.671875 Z M 33.800781 81.484375 L 33.800781 84.308594 L 36.359375 84.308594 L 36.359375 85.667969 L 33.800781 85.667969 L 33.800781 90.972656 C 33.800781 92.191406 34.144531 92.878906 35.140625 92.878906 C 35.492188 92.886719 35.839844 92.84375 36.179688 92.757812 L 36.257812 94.097656 C 35.914062 94.242188 35.367188 94.34375 34.675781 94.34375 C 33.84375 94.34375 33.171875 94.078125 32.746094 93.589844 C 32.238281 93.0625 32.054688 92.191406 32.054688 91.03125 L 32.054688 85.667969 L 30.53125 85.667969 L 30.53125 84.308594 L 32.054688 84.308594 L 32.054688 81.953125 Z M 46.71875 84.308594 C 46.679688 85.019531 46.640625 85.8125 46.640625 87.011719 L 46.640625 92.71875 C 46.640625 94.972656 46.191406 96.355469 45.238281 97.207031 C 44.28125 98.101562 42.902344 98.386719 41.664062 98.386719 C 40.484375 98.386719 39.183594 98.101562 38.390625 97.574219 L 38.839844 96.214844 C 39.488281 96.621094 40.503906 96.984375 41.722656 96.984375 C 43.550781 96.984375 44.890625 96.03125 44.890625 93.550781 L 44.890625 92.457031 L 44.851562 92.457031 C 44.300781 93.371094 43.246094 94.101562 41.722656 94.101562 C 39.285156 94.101562 37.539062 92.027344 37.539062 89.304688 C 37.539062 85.976562 39.710938 84.085938 41.964844 84.085938 C 43.671875 84.085938 44.609375 84.980469 45.035156 85.792969 L 45.074219 85.792969 L 45.15625 84.308594 Z M 44.871094 88.1875 C 44.871094 87.882812 44.851562 87.621094 44.769531 87.375 C 44.445312 86.339844 43.570312 85.488281 42.273438 85.488281 C 40.566406 85.488281 39.347656 86.929688 39.347656 89.203125 C 39.347656 91.132812 40.320312 92.738281 42.25 92.738281 C 43.347656 92.738281 44.34375 92.046875 44.730469 90.910156 C 44.832031 90.605469 44.871094 90.261719 44.871094 89.957031 Z M 49.480469 87.375 C 49.480469 86.21875 49.460938 85.222656 49.402344 84.308594 L 50.964844 84.308594 L 51.027344 86.238281 L 51.105469 86.238281 C 51.554688 84.917969 52.628906 84.085938 53.828125 84.085938 C 54.03125 84.085938 54.171875 84.105469 54.335938 84.148438 L 54.335938 85.832031 C 54.136719 85.789062 53.933594 85.769531 53.726562 85.773438 C 52.46875 85.773438 51.574219 86.726562 51.332031 88.066406 C 51.28125 88.34375 51.253906 88.621094 51.25 88.898438 L 51.25 94.140625 L 49.480469 94.140625 Z M 56.917969 89.550781 C 56.957031 91.96875 58.5 92.960938 60.289062 92.960938 C 61.570312 92.960938 62.339844 92.738281 63.011719 92.453125 L 63.316406 93.734375 C 62.683594 94.019531 61.609375 94.34375 60.042969 94.34375 C 57.019531 94.34375 55.210938 92.351562 55.210938 89.386719 C 55.210938 86.421875 56.957031 84.085938 59.820312 84.085938 C 63.03125 84.085938 63.882812 86.910156 63.882812 88.714844 C 63.882812 89.082031 63.84375 89.367188 63.824219 89.550781 Z M 62.15625 88.269531 C 62.175781 87.132812 61.691406 85.367188 59.679688 85.367188 C 57.871094 85.367188 57.078125 87.03125 56.9375 88.269531 Z M 65.914062 91.988281 C 66.871094 92.5625 67.964844 92.871094 69.082031 92.882812 C 70.890625 92.882812 71.949219 91.925781 71.949219 90.546875 C 71.949219 89.265625 71.214844 88.535156 69.367188 87.824219 C 67.132812 87.03125 65.753906 85.875 65.753906 83.945312 C 65.753906 81.8125 67.519531 80.226562 70.179688 80.226562 C 71.582031 80.226562 72.597656 80.550781 73.207031 80.898438 L 72.71875 82.339844 C 71.921875 81.910156 71.027344 81.6875 70.121094 81.6875 C 68.25 81.6875 67.539062 82.804688 67.539062 83.742188 C 67.539062 85.019531 68.371094 85.648438 70.261719 86.382812 C 72.578125 87.277344 73.753906 88.390625 73.753906 90.402344 C 73.753906 92.515625 72.191406 94.34375 68.960938 94.34375 C 67.640625 94.34375 66.199219 93.957031 65.46875 93.46875 Z M 87.464844 96.152344 C 85.699219 95.6875 83.953125 95.160156 82.226562 94.566406 C 81.941406 94.464844 81.65625 94.363281 81.394531 94.363281 C 78.144531 94.242188 75.359375 91.84375 75.359375 87.4375 C 75.359375 83.050781 78.042969 80.226562 81.738281 80.226562 C 85.457031 80.226562 87.875 83.109375 87.875 87.152344 C 87.875 90.667969 86.25 92.921875 83.972656 93.714844 L 83.972656 93.796875 C 85.335938 94.140625 86.816406 94.464844 87.976562 94.667969 Z M 86.003906 87.234375 C 86.003906 84.492188 84.582031 81.667969 81.675781 81.667969 C 78.691406 81.667969 77.230469 84.429688 77.25 87.398438 C 77.230469 90.300781 78.832031 92.921875 81.597656 92.921875 C 84.421875 92.921875 86.003906 90.363281 86.003906 87.234375 Z M 90.167969 80.449219 L 91.933594 80.449219 L 91.933594 92.65625 L 97.785156 92.65625 L 97.785156 94.140625 L 90.167969 94.140625 Z M 90.167969 80.449219 "/>
</g>
</svg>
