<?xml version="1.0" encoding="UTF-8"?>
<svg xmlns="http://www.w3.org/2000/svg" xmlns:xlink="http://www.w3.org/1999/xlink" width="50px" height="50px" viewBox="0 0 50 50" version="1.1">
<g id="surface1">
<path style=" stroke:none;fill-rule:evenodd;fill:rgb(20%,40.392157%,56.862748%);fill-opacity:1;" d="M 24.769531 39.148438 C 25.46875 39.726562 26.289062 39.972656 27.175781 40.019531 C 27.542969 40.039062 27.917969 40.019531 28.28125 39.953125 C 28.851562 39.851562 29.421875 39.71875 29.976562 39.554688 C 31.109375 39.210938 32.089844 38.621094 32.820312 37.667969 C 33.238281 37.125 33.578125 36.535156 33.796875 35.886719 C 33.980469 35.347656 34.148438 34.808594 34.285156 34.257812 C 34.390625 33.824219 34.445312 33.378906 34.511719 32.9375 C 34.554688 32.644531 34.578125 32.351562 34.605469 32.054688 C 34.652344 31.578125 34.695312 31.097656 34.726562 30.621094 C 34.75 30.285156 34.75 29.949219 34.761719 29.617188 C 34.765625 29.515625 34.78125 29.414062 34.792969 29.3125 C 34.800781 29.21875 34.847656 29.1875 34.945312 29.1875 C 35.28125 29.191406 35.621094 29.199219 35.957031 29.1875 C 36.335938 29.167969 36.714844 29.152344 37.085938 29.089844 C 37.617188 29 38.140625 28.890625 38.660156 28.753906 C 39.273438 28.59375 39.835938 28.308594 40.378906 27.980469 C 41.007812 27.597656 41.582031 27.152344 42.046875 26.578125 C 42.453125 26.078125 42.644531 25.496094 42.546875 24.863281 C 42.40625 23.941406 41.632812 23.339844 40.734375 23.300781 C 40.40625 23.285156 40.078125 23.320312 39.753906 23.359375 C 39.359375 23.410156 38.972656 23.5 38.582031 23.554688 C 38.3125 23.597656 38.039062 23.613281 37.769531 23.644531 L 37.761719 23.609375 C 38.265625 22.65625 38.789062 21.714844 39.265625 20.75 C 39.632812 20.007812 39.945312 19.242188 40.269531 18.480469 C 40.804688 17.21875 41.230469 15.921875 41.582031 14.597656 C 41.921875 13.335938 42.210938 12.054688 42.304688 10.742188 C 42.339844 10.21875 42.367188 9.691406 42.363281 9.167969 C 42.359375 8.75 42.316406 8.332031 42.273438 7.914062 C 42.226562 7.433594 42.082031 6.980469 41.882812 6.546875 C 41.617188 5.972656 41.207031 5.5 40.777344 5.050781 C 40.433594 4.695312 40.054688 4.367188 39.679688 4.039062 C 39.144531 3.574219 38.542969 3.203125 37.917969 2.871094 C 37.210938 2.496094 36.457031 2.203125 35.679688 2.003906 C 35.207031 1.886719 34.730469 1.777344 34.253906 1.683594 C 34.082031 1.648438 33.910156 1.5625 33.738281 1.5625 L 30.507812 1.5625 C 30.390625 1.5625 30.277344 1.640625 30.160156 1.652344 C 29.386719 1.734375 28.625 1.894531 27.878906 2.121094 C 27.601562 2.207031 27.347656 2.15625 27.085938 2.132812 C 26.882812 2.113281 26.683594 2.0625 26.480469 2.054688 C 25.710938 2.015625 24.941406 1.957031 24.171875 1.96875 C 23.433594 1.976562 22.703125 2.097656 21.988281 2.300781 C 21.394531 2.46875 20.808594 2.675781 20.273438 2.992188 C 20.042969 3.125 19.859375 3.101562 19.625 3.03125 C 18.828125 2.796875 18.023438 2.589844 17.214844 2.40625 C 16.710938 2.292969 16.191406 2.234375 15.675781 2.183594 C 15.183594 2.128906 14.6875 2.101562 14.1875 2.089844 C 13.703125 2.078125 13.214844 2.078125 12.734375 2.121094 C 11.964844 2.191406 11.210938 2.347656 10.476562 2.597656 C 9.667969 2.875 8.910156 3.289062 8.242188 3.816406 C 7.558594 4.359375 7.007812 5.019531 6.570312 5.773438 C 6.105469 6.570312 5.785156 7.421875 5.585938 8.316406 C 5.480469 8.800781 5.519531 9.296875 5.445312 9.789062 C 5.421875 9.941406 5.46875 10.097656 5.46875 10.25 L 5.46875 12.390625 C 5.46875 12.535156 5.425781 12.675781 5.445312 12.820312 C 5.488281 13.164062 5.472656 13.507812 5.53125 13.851562 C 5.625 14.390625 5.707031 14.925781 5.816406 15.464844 C 5.972656 16.210938 6.121094 16.960938 6.292969 17.707031 C 6.417969 18.25 6.550781 18.789062 6.703125 19.324219 C 6.929688 20.144531 7.148438 20.964844 7.40625 21.773438 C 7.644531 22.527344 7.914062 23.269531 8.1875 24.011719 C 8.558594 25.039062 9.015625 26.03125 9.550781 26.980469 C 10.015625 27.808594 10.550781 28.578125 11.265625 29.214844 C 11.734375 29.632812 12.261719 29.953125 12.871094 30.113281 C 13.347656 30.242188 13.84375 30.253906 14.328125 30.15625 C 14.886719 30.042969 15.410156 29.792969 15.847656 29.425781 C 15.902344 29.386719 15.957031 29.351562 16.019531 29.429688 C 16.25 29.722656 16.5625 29.921875 16.886719 30.089844 C 17.761719 30.546875 18.714844 30.683594 19.683594 30.738281 C 19.917969 30.753906 20.15625 30.71875 20.394531 30.710938 C 20.855469 30.699219 21.300781 30.609375 21.742188 30.480469 C 21.972656 30.414062 22.199219 30.332031 22.433594 30.25 C 22.445312 30.5 22.460938 30.742188 22.46875 30.984375 L 22.5 32.296875 C 22.507812 32.496094 22.515625 32.695312 22.535156 32.894531 C 22.582031 33.410156 22.628906 33.921875 22.691406 34.433594 C 22.730469 34.789062 22.777344 35.140625 22.859375 35.488281 C 23.027344 36.179688 23.253906 36.859375 23.539062 37.511719 C 23.8125 38.148438 24.234375 38.707031 24.769531 39.148438 Z M 23.367188 32.597656 C 23.339844 31.980469 23.316406 31.363281 23.304688 30.746094 C 23.289062 29.988281 23.28125 29.230469 23.273438 28.472656 L 23.269531 28.441406 C 22.882812 28.671875 22.503906 28.925781 22.101562 29.136719 C 21.632812 29.378906 21.117188 29.523438 20.589844 29.5625 C 20.171875 29.59375 19.753906 29.621094 19.339844 29.589844 C 18.660156 29.535156 17.984375 29.429688 17.375 29.09375 C 17.128906 28.957031 16.871094 28.792969 16.703125 28.578125 C 16.296875 28.058594 16.492188 27.402344 17.105469 27.085938 C 17.527344 26.867188 17.992188 26.777344 18.449219 26.671875 C 18.851562 26.578125 19.246094 26.472656 19.636719 26.347656 C 20.019531 26.21875 20.265625 25.90625 20.503906 25.601562 L 20.882812 25.113281 L 20.425781 25.066406 C 19.972656 25.023438 19.539062 24.898438 19.125 24.714844 C 18.773438 24.558594 18.765625 24.539062 18.507812 24.820312 C 18.074219 25.292969 17.652344 25.773438 17.226562 26.253906 C 16.914062 26.605469 16.601562 26.960938 16.289062 27.3125 C 15.984375 27.664062 15.695312 28.03125 15.359375 28.359375 C 14.867188 28.839844 14.273438 29.128906 13.5625 29.097656 C 13.109375 29.078125 12.691406 28.917969 12.316406 28.65625 C 11.542969 28.117188 11.023438 27.363281 10.550781 26.574219 C 9.941406 25.558594 9.476562 24.480469 9.078125 23.371094 C 8.800781 22.601562 8.523438 21.835938 8.28125 21.058594 C 8.019531 20.210938 7.789062 19.355469 7.5625 18.5 C 7.390625 17.855469 7.242188 17.203125 7.097656 16.550781 C 6.929688 15.808594 6.777344 15.066406 6.632812 14.316406 C 6.539062 13.8125 6.484375 13.300781 6.410156 12.792969 C 6.308594 12.109375 6.289062 11.417969 6.324219 10.734375 C 6.359375 10.113281 6.449219 9.496094 6.535156 8.882812 C 6.660156 8.03125 6.9375 7.226562 7.34375 6.46875 C 7.589844 6.007812 7.894531 5.578125 8.25 5.191406 C 8.832031 4.546875 9.535156 4.082031 10.320312 3.730469 C 10.867188 3.488281 11.445312 3.339844 12.035156 3.226562 C 12.910156 3.054688 13.792969 3.0625 14.675781 3.082031 C 15.0625 3.089844 15.445312 3.160156 15.832031 3.199219 C 16.660156 3.28125 17.476562 3.453125 18.277344 3.671875 C 18.863281 3.828125 19.4375 4.03125 20.019531 4.207031 C 20.078125 4.226562 20.164062 4.222656 20.210938 4.191406 C 20.996094 3.679688 21.859375 3.339844 22.773438 3.144531 C 23.121094 3.070312 23.476562 3.039062 23.832031 3.015625 C 24.265625 2.988281 24.699219 2.964844 25.132812 2.988281 C 25.648438 3.019531 26.164062 3.09375 26.679688 3.164062 C 26.929688 3.199219 27.171875 3.285156 27.421875 3.308594 C 27.542969 3.320312 27.667969 3.234375 27.796875 3.203125 C 28.441406 3.054688 29.085938 2.890625 29.738281 2.769531 C 30.222656 2.683594 30.71875 2.640625 31.210938 2.613281 C 31.761719 2.582031 32.316406 2.558594 32.867188 2.585938 C 33.5625 2.621094 34.253906 2.71875 34.933594 2.878906 C 35.777344 3.074219 36.585938 3.359375 37.359375 3.753906 C 37.933594 4.050781 38.480469 4.394531 38.972656 4.816406 C 39.292969 5.09375 39.625 5.367188 39.914062 5.675781 C 40.273438 6.054688 40.640625 6.433594 40.867188 6.921875 C 41.039062 7.289062 41.160156 7.671875 41.191406 8.074219 C 41.234375 8.574219 41.285156 9.074219 41.28125 9.574219 C 41.273438 10.054688 41.210938 10.535156 41.164062 11.011719 C 41.058594 12.101562 40.820312 13.167969 40.535156 14.21875 C 40.292969 15.085938 40.019531 15.945312 39.71875 16.792969 C 39.441406 17.578125 39.121094 18.34375 38.796875 19.109375 C 38.558594 19.675781 38.300781 20.234375 38.023438 20.78125 C 37.492188 21.816406 36.945312 22.84375 36.308594 23.820312 C 36.199219 23.988281 36.09375 24.160156 35.984375 24.332031 C 36.265625 24.519531 36.578125 24.585938 36.894531 24.621094 C 37.195312 24.652344 37.503906 24.671875 37.804688 24.648438 C 38.285156 24.613281 38.765625 24.546875 39.246094 24.480469 C 39.71875 24.414062 40.183594 24.277344 40.671875 24.3125 C 41.15625 24.347656 41.503906 24.71875 41.472656 25.175781 C 41.449219 25.460938 41.316406 25.710938 41.125 25.921875 C 40.222656 26.917969 39.085938 27.523438 37.789062 27.820312 C 37.296875 27.933594 36.785156 27.992188 36.28125 28.039062 C 35.851562 28.078125 35.417969 28.089844 34.984375 28.070312 C 34.667969 28.058594 34.351562 27.984375 34.027344 27.9375 C 33.996094 28.234375 33.964844 28.542969 33.925781 28.851562 L 33.777344 30.035156 C 33.730469 30.40625 33.695312 30.785156 33.648438 31.15625 C 33.601562 31.519531 33.542969 31.882812 33.496094 32.246094 C 33.453125 32.582031 33.417969 32.921875 33.367188 33.261719 C 33.289062 33.777344 33.214844 34.296875 33.117188 34.808594 C 32.992188 35.421875 32.808594 36.015625 32.503906 36.570312 C 32.136719 37.246094 31.613281 37.757812 30.945312 38.140625 C 30.257812 38.53125 29.503906 38.738281 28.742188 38.910156 C 28.203125 39.03125 27.648438 39.050781 27.101562 39 C 26.15625 38.914062 25.347656 38.507812 24.734375 37.773438 C 24.152344 37.074219 23.757812 36.269531 23.617188 35.359375 C 23.550781 34.925781 23.5 34.492188 23.460938 34.054688 C 23.417969 33.570312 23.386719 33.085938 23.367188 32.597656 Z M 24.429688 26.367188 C 24.4375 26.691406 24.402344 27.015625 24.40625 27.339844 C 24.410156 28.847656 24.421875 30.355469 24.4375 31.867188 C 24.4375 32.113281 24.449219 32.359375 24.46875 32.605469 C 24.503906 33.121094 24.542969 33.636719 24.589844 34.152344 C 24.628906 34.515625 24.675781 34.882812 24.734375 35.242188 C 24.816406 35.757812 25.050781 36.214844 25.3125 36.652344 C 25.542969 37.027344 25.839844 37.34375 26.230469 37.566406 C 26.894531 37.9375 27.609375 37.972656 28.332031 37.832031 C 28.820312 37.742188 29.296875 37.589844 29.769531 37.4375 C 30.234375 37.289062 30.660156 37.035156 31.011719 36.695312 C 31.34375 36.375 31.578125 35.980469 31.738281 35.550781 C 32.042969 34.710938 32.140625 33.828125 32.269531 32.953125 C 32.316406 32.625 32.355469 32.292969 32.398438 31.964844 C 32.449219 31.59375 32.5 31.21875 32.546875 30.84375 C 32.582031 30.566406 32.617188 30.289062 32.648438 30.007812 C 32.699219 29.609375 32.75 29.210938 32.796875 28.808594 C 32.832031 28.5 32.859375 28.191406 32.894531 27.878906 C 32.933594 27.484375 32.976562 27.085938 33.011719 26.691406 C 33.039062 26.390625 33.027344 26.082031 33.082031 25.789062 C 33.179688 25.246094 33.4375 24.785156 33.917969 24.484375 C 34.117188 24.363281 34.34375 24.28125 34.566406 24.175781 L 34.53125 24.117188 C 34.324219 23.847656 34.113281 23.585938 33.910156 23.316406 C 33.59375 22.890625 33.367188 22.417969 33.136719 21.941406 C 32.917969 21.492188 32.652344 21.066406 32.425781 20.621094 C 32.027344 19.84375 31.621094 19.066406 31.25 18.273438 C 30.789062 17.28125 30.425781 16.25 30.3125 15.144531 C 30.261719 14.679688 30.25 14.214844 30.34375 13.75 C 30.496094 13.011719 30.882812 12.433594 31.53125 12.039062 C 32.132812 11.671875 32.800781 11.554688 33.488281 11.515625 C 33.914062 11.492188 34.34375 11.511719 34.785156 11.511719 L 34.769531 11.4375 C 34.492188 10.863281 34.238281 10.277344 33.9375 9.714844 C 33.511719 8.925781 32.96875 8.210938 32.363281 7.546875 C 31.917969 7.054688 31.425781 6.601562 30.898438 6.199219 C 30.375 5.804688 29.824219 5.449219 29.238281 5.160156 C 28.539062 4.8125 27.800781 4.550781 27.039062 4.378906 C 26.304688 4.21875 25.5625 4.117188 24.808594 4.109375 C 24.164062 4.101562 23.523438 4.132812 22.898438 4.277344 C 21.949219 4.496094 21.085938 4.886719 20.332031 5.515625 C 19.914062 5.867188 19.542969 6.265625 19.222656 6.707031 C 18.84375 7.222656 18.542969 7.785156 18.28125 8.371094 C 17.925781 9.175781 17.679688 10.011719 17.511719 10.875 C 17.429688 11.304688 17.363281 11.734375 17.296875 12.167969 C 17.273438 12.320312 17.269531 12.472656 17.257812 12.648438 L 17.542969 12.5 L 17.820312 12.375 C 18.765625 11.941406 19.742188 11.664062 20.792969 11.695312 C 21.242188 11.710938 21.667969 11.796875 22.066406 11.992188 C 22.828125 12.371094 23.273438 13.007812 23.464844 13.816406 C 23.597656 14.375 23.691406 14.941406 23.78125 15.511719 C 23.847656 15.953125 23.921875 16.402344 23.929688 16.847656 C 23.941406 17.5 23.90625 18.15625 23.871094 18.808594 C 23.839844 19.363281 23.726562 19.910156 23.53125 20.429688 C 23.179688 21.375 22.785156 22.304688 22.417969 23.242188 C 22.296875 23.550781 22.203125 23.871094 22.085938 24.214844 L 22.550781 24.214844 C 22.609375 24.214844 22.664062 24.214844 22.71875 24.230469 C 23.140625 24.328125 23.507812 24.519531 23.808594 24.84375 C 24.210938 25.277344 24.421875 25.78125 24.429688 26.367188 Z M 16.367188 21.890625 C 16.125 21.328125 15.980469 20.730469 15.9375 20.117188 C 15.898438 19.542969 15.964844 18.96875 16.027344 18.398438 C 16.082031 17.84375 16.132812 17.285156 16.148438 16.726562 C 16.175781 15.808594 16.113281 14.894531 16.070312 13.980469 C 16.042969 13.433594 16.105469 12.882812 16.15625 12.335938 C 16.199219 11.84375 16.253906 11.351562 16.347656 10.867188 C 16.503906 10.050781 16.710938 9.25 17.003906 8.472656 C 17.285156 7.734375 17.605469 7.015625 18.058594 6.371094 C 18.371094 5.925781 18.722656 5.511719 19.0625 5.078125 L 18.960938 5.042969 C 17.859375 4.691406 16.738281 4.417969 15.582031 4.300781 C 15.039062 4.242188 14.492188 4.210938 13.945312 4.175781 C 13.777344 4.167969 13.605469 4.191406 13.4375 4.207031 C 13.023438 4.246094 12.597656 4.261719 12.1875 4.339844 C 11.492188 4.472656 10.820312 4.695312 10.203125 5.058594 C 9.652344 5.382812 9.171875 5.808594 8.785156 6.3125 C 8.351562 6.875 8.0625 7.503906 7.851562 8.179688 C 7.605469 8.972656 7.488281 9.792969 7.457031 10.617188 C 7.425781 11.339844 7.414062 12.070312 7.539062 12.789062 C 7.632812 13.328125 7.695312 13.867188 7.796875 14.402344 C 7.933594 15.132812 8.089844 15.859375 8.257812 16.582031 C 8.507812 17.613281 8.753906 18.648438 9.046875 19.667969 C 9.328125 20.644531 9.644531 21.613281 9.988281 22.570312 C 10.269531 23.351562 10.59375 24.117188 10.933594 24.871094 C 11.15625 25.367188 11.425781 25.839844 11.710938 26.300781 C 12.011719 26.789062 12.351562 27.253906 12.816406 27.609375 C 13.402344 28.058594 13.855469 28.128906 14.449219 27.636719 C 14.703125 27.425781 14.917969 27.164062 15.140625 26.917969 C 15.492188 26.523438 15.832031 26.117188 16.183594 25.722656 C 16.628906 25.21875 17.082031 24.71875 17.53125 24.21875 C 17.625 24.113281 17.71875 24.003906 17.808594 23.894531 L 17.65625 23.761719 C 17.101562 23.234375 16.664062 22.597656 16.367188 21.890625 Z M 33.296875 6.890625 C 33.664062 7.316406 34.011719 7.757812 34.339844 8.214844 C 34.96875 9.097656 35.476562 10.0625 35.847656 11.082031 C 36.007812 11.53125 36.140625 11.988281 36.082031 12.480469 C 36.042969 12.828125 36.042969 13.179688 36.015625 13.523438 C 35.988281 13.8125 35.941406 14.101562 35.90625 14.390625 C 35.847656 14.824219 35.769531 15.257812 35.742188 15.695312 C 35.71875 16.109375 35.746094 16.53125 35.769531 16.945312 C 35.796875 17.367188 35.855469 17.789062 35.894531 18.210938 C 35.9375 18.691406 35.996094 19.167969 36.007812 19.648438 C 36.019531 20.042969 35.984375 20.4375 35.953125 20.832031 C 35.90625 21.304688 35.792969 21.765625 35.613281 22.203125 C 35.484375 22.515625 35.335938 22.8125 35.191406 23.125 L 35.25 23.183594 L 35.335938 23.253906 L 35.425781 23.097656 C 36.164062 21.933594 36.816406 20.722656 37.386719 19.472656 C 37.75 18.664062 38.097656 17.847656 38.421875 17.023438 C 38.933594 15.742188 39.34375 14.421875 39.652344 13.078125 C 39.792969 12.476562 39.902344 11.863281 39.996094 11.25 C 40.070312 10.773438 40.132812 10.289062 40.148438 9.804688 C 40.164062 9.292969 40.132812 8.777344 40.085938 8.265625 C 40.050781 7.878906 39.957031 7.492188 39.714844 7.175781 C 39.324219 6.671875 38.90625 6.1875 38.390625 5.804688 C 37.957031 5.484375 37.523438 5.152344 37.054688 4.882812 C 36.316406 4.453125 35.515625 4.167969 34.679688 3.976562 C 33.863281 3.785156 33.035156 3.703125 32.203125 3.683594 C 31.714844 3.675781 31.21875 3.726562 30.730469 3.773438 C 30.289062 3.816406 29.847656 3.886719 29.398438 3.945312 C 29.878906 4.214844 30.351562 4.453125 30.796875 4.738281 C 31.734375 5.332031 32.574219 6.042969 33.296875 6.890625 Z M 21.117188 23.515625 C 21.417969 22.546875 21.832031 21.621094 22.230469 20.691406 C 22.554688 19.9375 22.734375 19.140625 22.792969 18.324219 C 22.820312 17.921875 22.8125 17.515625 22.792969 17.109375 C 22.773438 16.660156 22.734375 16.210938 22.671875 15.765625 C 22.585938 15.199219 22.492188 14.628906 22.355469 14.074219 C 22.210938 13.46875 21.84375 13.050781 21.214844 12.894531 C 20.832031 12.800781 20.449219 12.804688 20.0625 12.867188 C 19.113281 13.015625 18.25 13.363281 17.441406 13.875 C 17.28125 13.976562 17.1875 14.058594 17.21875 14.292969 C 17.277344 14.785156 17.289062 15.289062 17.289062 15.785156 C 17.285156 16.492188 17.253906 17.195312 17.226562 17.902344 C 17.21875 18.128906 17.1875 18.359375 17.160156 18.585938 C 17.125 18.9375 17.050781 19.289062 17.054688 19.636719 C 17.054688 19.996094 17.09375 20.367188 17.179688 20.714844 C 17.457031 21.820312 18.042969 22.726562 19.007812 23.363281 C 19.601562 23.757812 20.257812 23.953125 20.976562 23.992188 C 21.023438 23.828125 21.070312 23.671875 21.117188 23.515625 Z M 19.984375 14.027344 C 19.859375 13.761719 19.929688 13.542969 20.226562 13.441406 C 20.296875 13.414062 20.371094 13.386719 20.445312 13.378906 C 20.546875 13.371094 20.648438 13.378906 20.753906 13.378906 C 21.125 13.378906 21.484375 13.433594 21.792969 13.667969 C 21.992188 13.820312 22.042969 14.023438 21.914062 14.230469 C 21.734375 14.523438 21.457031 14.671875 21.117188 14.699219 C 20.582031 14.746094 20.207031 14.496094 19.984375 14.027344 Z M 34.820312 13.929688 L 34.941406 12.867188 C 34.957031 12.726562 34.882812 12.6875 34.765625 12.683594 C 34.386719 12.671875 34.011719 12.660156 33.636719 12.652344 C 33.210938 12.644531 32.800781 12.710938 32.40625 12.875 C 31.972656 13.050781 31.640625 13.339844 31.503906 13.8125 C 31.40625 14.160156 31.375 14.527344 31.414062 14.886719 C 31.464844 15.445312 31.59375 15.996094 31.789062 16.519531 C 32.054688 17.222656 32.328125 17.921875 32.65625 18.59375 C 33.101562 19.5 33.605469 20.378906 34.078125 21.273438 C 34.207031 21.511719 34.3125 21.761719 34.445312 22.042969 C 34.710938 21.488281 34.855469 20.882812 34.871094 20.269531 C 34.882812 19.761719 34.84375 19.25 34.8125 18.742188 C 34.796875 18.433594 34.75 18.121094 34.722656 17.8125 C 34.679688 17.378906 34.617188 16.949219 34.605469 16.515625 C 34.59375 16.074219 34.625 15.632812 34.664062 15.191406 C 34.699219 14.769531 34.769531 14.351562 34.820312 13.929688 Z M 33.972656 13.589844 C 33.832031 13.976562 33.535156 14.195312 33.144531 14.257812 C 32.785156 14.316406 32.46875 14.183594 32.234375 13.894531 C 32.066406 13.691406 32.128906 13.449219 32.382812 13.308594 C 32.667969 13.148438 32.984375 13.109375 33.359375 13.085938 C 33.460938 13.101562 33.613281 13.117188 33.757812 13.160156 C 33.96875 13.21875 34.046875 13.378906 33.972656 13.589844 Z M 22.800781 25.464844 C 22.59375 25.296875 22.320312 25.289062 22.125 25.472656 C 21.882812 25.703125 21.667969 25.964844 21.453125 26.226562 C 21.203125 26.527344 20.972656 26.835938 20.652344 27.070312 C 20.1875 27.40625 19.644531 27.546875 19.101562 27.679688 C 18.667969 27.785156 18.234375 27.882812 17.800781 27.984375 L 17.792969 28.039062 C 17.921875 28.101562 18.046875 28.175781 18.183594 28.21875 C 18.84375 28.425781 19.519531 28.53125 20.21875 28.472656 C 20.722656 28.429688 21.203125 28.316406 21.660156 28.101562 C 22.289062 27.804688 22.769531 27.332031 23.183594 26.785156 C 23.25 26.695312 23.28125 26.558594 23.289062 26.441406 C 23.316406 26.023438 23.105469 25.714844 22.800781 25.464844 Z M 34.890625 25.285156 C 34.5625 25.394531 34.300781 25.558594 34.222656 25.910156 C 34.167969 26.148438 34.148438 26.394531 34.128906 26.636719 C 34.125 26.679688 34.175781 26.761719 34.21875 26.769531 C 34.46875 26.835938 34.71875 26.914062 34.976562 26.9375 C 35.289062 26.964844 35.609375 26.957031 35.925781 26.941406 C 36.265625 26.925781 36.609375 26.902344 36.945312 26.847656 C 37.738281 26.710938 38.507812 26.496094 39.1875 26.046875 C 39.433594 25.882812 39.675781 25.71875 39.921875 25.554688 L 39.902344 25.519531 C 39.640625 25.558594 39.382812 25.605469 39.121094 25.632812 C 38.585938 25.6875 38.054688 25.75 37.519531 25.78125 C 37.261719 25.796875 37 25.746094 36.738281 25.726562 C 36.300781 25.6875 35.875 25.59375 35.507812 25.359375 C 35.292969 25.222656 35.117188 25.210938 34.890625 25.285156 Z M 34.890625 25.285156 "/>
<path style=" stroke:none;fill-rule:nonzero;fill:rgb(20%,40.392157%,56.862748%);fill-opacity:1;" d="M 1.105469 40.304688 C 1.667969 40.214844 2.234375 40.171875 2.804688 40.175781 C 3.675781 40.175781 4.316406 40.378906 4.722656 40.742188 C 5.097656 41.066406 5.324219 41.566406 5.324219 42.175781 C 5.324219 42.796875 5.140625 43.28125 4.792969 43.636719 C 4.328125 44.136719 3.566406 44.390625 2.703125 44.390625 C 2.4375 44.390625 2.195312 44.378906 1.992188 44.328125 L 1.992188 47.070312 L 1.105469 47.070312 Z M 1.992188 43.605469 C 2.183594 43.65625 2.429688 43.679688 2.722656 43.679688 C 3.789062 43.679688 4.4375 43.160156 4.4375 42.214844 C 4.4375 41.3125 3.800781 40.875 2.824219 40.875 C 2.4375 40.875 2.144531 40.90625 1.992188 40.945312 Z M 10.675781 44.570312 C 10.675781 46.390625 9.414062 47.183594 8.226562 47.183594 C 6.898438 47.183594 5.871094 46.207031 5.871094 44.652344 C 5.871094 43.007812 6.945312 42.042969 8.308594 42.042969 C 9.71875 42.042969 10.675781 43.070312 10.675781 44.570312 Z M 6.773438 44.621094 C 6.773438 45.699219 7.394531 46.511719 8.269531 46.511719 C 9.121094 46.511719 9.761719 45.710938 9.761719 44.601562 C 9.761719 43.769531 9.34375 42.714844 8.289062 42.714844 C 7.230469 42.714844 6.773438 43.6875 6.773438 44.621094 Z M 11.679688 46.15625 C 11.945312 46.328125 12.410156 46.511719 12.859375 46.511719 C 13.507812 46.511719 13.8125 46.1875 13.8125 45.78125 C 13.8125 45.355469 13.558594 45.121094 12.898438 44.875 C 12.015625 44.5625 11.597656 44.074219 11.597656 43.484375 C 11.597656 42.691406 12.238281 42.042969 13.296875 42.042969 C 13.792969 42.042969 14.230469 42.183594 14.503906 42.347656 L 14.28125 42.996094 C 13.976562 42.8125 13.628906 42.714844 13.273438 42.714844 C 12.746094 42.714844 12.453125 43.019531 12.453125 43.382812 C 12.453125 43.789062 12.746094 43.972656 13.386719 44.214844 C 14.242188 44.542969 14.675781 44.96875 14.675781 45.699219 C 14.675781 46.5625 14.007812 47.171875 12.839844 47.171875 C 12.300781 47.171875 11.800781 47.039062 11.457031 46.835938 Z M 16.902344 40.742188 L 16.902344 42.15625 L 18.179688 42.15625 L 18.179688 42.835938 L 16.902344 42.835938 L 16.902344 45.484375 C 16.902344 46.09375 17.074219 46.441406 17.570312 46.441406 C 17.746094 46.441406 17.917969 46.421875 18.089844 46.378906 L 18.128906 47.050781 C 17.957031 47.121094 17.683594 47.171875 17.339844 47.171875 C 16.921875 47.171875 16.585938 47.039062 16.371094 46.796875 C 16.121094 46.53125 16.027344 46.09375 16.027344 45.515625 L 16.027344 42.835938 L 15.265625 42.835938 L 15.265625 42.152344 L 16.027344 42.152344 L 16.027344 40.976562 Z M 23.359375 42.15625 C 23.339844 42.511719 23.320312 42.90625 23.320312 43.503906 L 23.320312 46.359375 C 23.320312 47.488281 23.097656 48.175781 22.617188 48.605469 C 22.140625 49.050781 21.449219 49.191406 20.832031 49.191406 C 20.242188 49.191406 19.59375 49.050781 19.195312 48.785156 L 19.417969 48.105469 C 19.746094 48.308594 20.253906 48.492188 20.863281 48.492188 C 21.777344 48.492188 22.445312 48.015625 22.445312 46.777344 L 22.445312 46.226562 L 22.425781 46.226562 C 22.152344 46.683594 21.625 47.050781 20.863281 47.050781 C 19.644531 47.050781 18.769531 46.015625 18.769531 44.652344 C 18.769531 42.988281 19.855469 42.042969 20.984375 42.042969 C 21.835938 42.042969 22.304688 42.488281 22.515625 42.894531 L 22.539062 42.894531 L 22.578125 42.15625 Z M 22.4375 44.09375 C 22.4375 43.941406 22.425781 43.808594 22.386719 43.6875 C 22.222656 43.171875 21.785156 42.742188 21.136719 42.742188 C 20.28125 42.742188 19.671875 43.464844 19.671875 44.601562 C 19.671875 45.566406 20.160156 46.371094 21.125 46.371094 C 21.675781 46.371094 22.171875 46.023438 22.363281 45.457031 C 22.414062 45.304688 22.4375 45.128906 22.4375 44.976562 Z M 24.742188 43.6875 C 24.742188 43.109375 24.730469 42.613281 24.699219 42.15625 L 25.484375 42.15625 L 25.511719 43.121094 L 25.554688 43.121094 C 25.777344 42.460938 26.316406 42.042969 26.914062 42.042969 C 27.015625 42.042969 27.085938 42.054688 27.167969 42.074219 L 27.167969 42.917969 C 27.066406 42.894531 26.964844 42.882812 26.863281 42.886719 C 26.234375 42.886719 25.785156 43.363281 25.664062 44.035156 C 25.640625 44.171875 25.625 44.308594 25.625 44.449219 L 25.625 47.070312 L 24.742188 47.070312 Z M 28.457031 44.773438 C 28.480469 45.984375 29.25 46.480469 30.144531 46.480469 C 30.785156 46.480469 31.171875 46.371094 31.503906 46.226562 L 31.65625 46.867188 C 31.34375 47.007812 30.804688 47.171875 30.023438 47.171875 C 28.507812 47.171875 27.605469 46.175781 27.605469 44.695312 C 27.605469 43.210938 28.476562 42.042969 29.910156 42.042969 C 31.515625 42.042969 31.941406 43.453125 31.941406 44.359375 C 31.941406 44.539062 31.921875 44.683594 31.910156 44.773438 Z M 31.078125 44.136719 C 31.089844 43.566406 30.84375 42.683594 29.839844 42.683594 C 28.9375 42.683594 28.539062 43.515625 28.46875 44.136719 Z M 32.957031 45.992188 C 33.4375 46.28125 33.984375 46.4375 34.542969 46.441406 C 35.445312 46.441406 35.972656 45.964844 35.972656 45.273438 C 35.972656 44.632812 35.609375 44.265625 34.683594 43.910156 C 33.566406 43.515625 32.875 42.9375 32.875 41.972656 C 32.875 40.90625 33.757812 40.113281 35.089844 40.113281 C 35.789062 40.113281 36.296875 40.277344 36.601562 40.449219 L 36.359375 41.167969 C 35.960938 40.953125 35.511719 40.84375 35.058594 40.84375 C 34.125 40.84375 33.769531 41.402344 33.769531 41.871094 C 33.769531 42.511719 34.1875 42.824219 35.128906 43.191406 C 36.289062 43.636719 36.878906 44.195312 36.878906 45.203125 C 36.878906 46.257812 36.09375 47.171875 34.480469 47.171875 C 33.820312 47.171875 33.097656 46.980469 32.734375 46.734375 Z M 43.734375 48.074219 C 42.851562 47.84375 41.976562 47.578125 41.113281 47.285156 C 40.96875 47.234375 40.828125 47.183594 40.695312 47.183594 C 39.070312 47.121094 37.679688 45.921875 37.679688 43.71875 C 37.679688 41.523438 39.019531 40.113281 40.871094 40.113281 C 42.726562 40.113281 43.9375 41.554688 43.9375 43.578125 C 43.9375 45.332031 43.125 46.460938 41.988281 46.855469 L 41.988281 46.898438 C 42.667969 47.070312 43.410156 47.234375 43.988281 47.335938 Z M 43 43.617188 C 43 42.246094 42.292969 40.832031 40.839844 40.832031 C 39.34375 40.832031 38.613281 42.214844 38.625 43.699219 C 38.613281 45.152344 39.417969 46.460938 40.796875 46.460938 C 42.210938 46.460938 43 45.179688 43 43.617188 Z M 45.082031 40.226562 L 45.96875 40.226562 L 45.96875 46.328125 L 48.890625 46.328125 L 48.890625 47.070312 L 45.082031 47.070312 Z M 45.082031 40.226562 "/>
</g>
</svg>
