<?xml version="1.0" encoding="UTF-8"?>
<svg xmlns="http://www.w3.org/2000/svg" xmlns:xlink="http://www.w3.org/1999/xlink" width="148px" height="148px" viewBox="0 0 148 148" version="1.1">
<g id="surface1">
<path style=" stroke:none;fill-rule:evenodd;fill:rgb(20%,40.392157%,56.862748%);fill-opacity:1;" d="M 73.316406 115.878906 C 75.386719 117.589844 77.816406 118.324219 80.441406 118.457031 C 81.523438 118.515625 82.640625 118.460938 83.707031 118.265625 C 85.402344 117.960938 87.089844 117.574219 88.734375 117.078125 C 92.089844 116.066406 94.984375 114.316406 97.148438 111.492188 C 98.382812 109.882812 99.394531 108.144531 100.042969 106.21875 C 100.578125 104.632812 101.085938 103.027344 101.484375 101.402344 C 101.800781 100.125 101.960938 98.800781 102.152344 97.496094 C 102.28125 96.628906 102.355469 95.757812 102.4375 94.882812 C 102.566406 93.464844 102.703125 92.050781 102.796875 90.632812 C 102.859375 89.644531 102.859375 88.652344 102.898438 87.664062 C 102.910156 87.363281 102.957031 87.0625 102.988281 86.765625 C 103.011719 86.484375 103.152344 86.390625 103.4375 86.394531 C 104.4375 86.410156 105.4375 86.433594 106.433594 86.390625 C 107.554688 86.339844 108.679688 86.289062 109.78125 86.105469 C 111.347656 85.84375 112.902344 85.511719 114.4375 85.113281 C 116.25 84.636719 117.914062 83.789062 119.515625 82.820312 C 121.378906 81.695312 123.082031 80.371094 124.460938 78.667969 C 125.660156 77.1875 126.230469 75.46875 125.941406 73.59375 C 125.519531 70.871094 123.230469 69.085938 120.570312 68.964844 C 119.605469 68.921875 118.628906 69.023438 117.667969 69.144531 C 116.507812 69.292969 115.363281 69.554688 114.203125 69.726562 C 113.402344 69.847656 112.59375 69.898438 111.792969 69.984375 L 111.773438 69.878906 C 113.265625 67.0625 114.816406 64.277344 116.230469 61.421875 C 117.3125 59.226562 118.238281 56.957031 119.191406 54.703125 C 120.777344 50.972656 122.042969 47.125 123.089844 43.210938 C 124.089844 39.46875 124.949219 35.683594 125.222656 31.800781 C 125.328125 30.25 125.40625 28.691406 125.394531 27.136719 C 125.386719 25.898438 125.253906 24.65625 125.128906 23.421875 C 124.988281 22.007812 124.558594 20.667969 123.96875 19.375 C 123.1875 17.675781 121.980469 16.277344 120.707031 14.953125 C 119.6875 13.890625 118.566406 12.925781 117.453125 11.960938 C 115.867188 10.582031 114.085938 9.480469 112.234375 8.5 C 110.140625 7.386719 107.917969 6.527344 105.617188 5.933594 C 104.214844 5.582031 102.804688 5.265625 101.386719 4.984375 C 100.882812 4.882812 100.375 4.625 99.867188 4.625 L 90.308594 4.625 C 89.960938 4.625 89.621094 4.851562 89.273438 4.890625 C 86.984375 5.140625 84.726562 5.605469 82.523438 6.28125 C 81.703125 6.535156 80.953125 6.386719 80.175781 6.316406 C 79.574219 6.261719 78.988281 6.105469 78.386719 6.074219 C 76.109375 5.960938 73.828125 5.796875 71.546875 5.824219 C 69.363281 5.847656 67.203125 6.207031 65.089844 6.804688 C 63.324219 7.308594 61.59375 7.921875 60.007812 8.851562 C 59.328125 9.25 58.789062 9.175781 58.085938 8.972656 C 55.730469 8.28125 53.351562 7.664062 50.957031 7.117188 C 49.464844 6.785156 47.929688 6.617188 46.402344 6.457031 C 44.941406 6.308594 43.472656 6.214844 42 6.183594 C 40.5625 6.152344 39.117188 6.15625 37.6875 6.28125 C 35.410156 6.484375 33.179688 6.945312 31.007812 7.695312 C 28.613281 8.511719 26.375 9.730469 24.394531 11.300781 C 22.371094 12.902344 20.746094 14.855469 19.445312 17.089844 C 18.070312 19.445312 17.125 21.964844 16.539062 24.613281 C 16.222656 26.046875 16.335938 27.523438 16.121094 28.980469 C 16.050781 29.429688 16.1875 29.882812 16.1875 30.335938 L 16.1875 36.679688 C 16.1875 37.101562 16.0625 37.523438 16.117188 37.945312 C 16.246094 38.960938 16.203125 39.988281 16.375 40.996094 C 16.644531 42.59375 16.890625 44.1875 17.21875 45.773438 C 17.675781 47.988281 18.113281 50.203125 18.625 52.410156 C 18.992188 54.015625 19.394531 55.613281 19.835938 57.199219 C 20.507812 59.625 21.160156 62.054688 21.921875 64.453125 C 22.625 66.679688 23.429688 68.875 24.234375 71.074219 C 25.335938 74.109375 26.6875 77.050781 28.269531 79.867188 C 29.652344 82.308594 31.226562 84.59375 33.34375 86.472656 C 34.738281 87.714844 36.289062 88.664062 38.09375 89.140625 C 39.503906 89.515625 40.984375 89.558594 42.410156 89.261719 C 44.066406 88.925781 45.613281 88.183594 46.914062 87.105469 C 47.066406 86.980469 47.234375 86.886719 47.414062 87.113281 C 48.101562 87.984375 49.019531 88.5625 49.980469 89.066406 C 52.574219 90.417969 55.398438 90.824219 58.265625 90.988281 C 58.960938 91.027344 59.664062 90.925781 60.363281 90.910156 C 61.726562 90.871094 63.050781 90.605469 64.355469 90.226562 C 65.039062 90.03125 65.707031 89.777344 66.402344 89.542969 C 66.4375 90.285156 66.484375 90.996094 66.507812 91.710938 L 66.605469 95.601562 C 66.625 96.191406 66.644531 96.785156 66.699219 97.375 C 66.839844 98.894531 66.980469 100.414062 67.160156 101.925781 C 67.285156 102.972656 67.417969 104.023438 67.664062 105.042969 C 68.15625 107.097656 68.828125 109.105469 69.675781 111.039062 C 70.488281 112.917969 71.734375 114.578125 73.316406 115.878906 Z M 69.164062 96.488281 C 69.082031 94.664062 69.019531 92.835938 68.980469 91.011719 C 68.933594 88.765625 68.914062 86.519531 68.882812 84.273438 L 68.878906 84.1875 C 67.738281 84.875 66.613281 85.621094 65.421875 86.242188 C 64.027344 86.964844 62.511719 87.386719 60.945312 87.503906 C 59.714844 87.597656 58.46875 87.683594 57.242188 87.585938 C 55.238281 87.421875 53.230469 87.109375 51.433594 86.117188 C 50.703125 85.71875 49.941406 85.226562 49.441406 84.589844 C 48.238281 83.050781 48.8125 81.109375 50.628906 80.175781 C 51.882812 79.527344 53.253906 79.261719 54.613281 78.945312 C 55.796875 78.675781 56.96875 78.355469 58.121094 77.984375 C 59.261719 77.613281 59.980469 76.6875 60.691406 75.78125 L 61.820312 74.332031 L 60.464844 74.191406 C 59.121094 74.066406 57.839844 73.695312 56.613281 73.152344 C 55.566406 72.6875 55.550781 72.636719 54.78125 73.472656 C 53.496094 74.863281 52.246094 76.292969 50.988281 77.710938 C 50.0625 78.753906 49.144531 79.800781 48.21875 80.847656 C 47.308594 81.882812 46.453125 82.976562 45.46875 83.9375 C 44.007812 85.367188 42.25 86.226562 40.148438 86.128906 C 38.800781 86.066406 37.570312 85.59375 36.460938 84.824219 C 34.171875 83.230469 32.628906 81 31.226562 78.65625 C 29.425781 75.65625 28.046875 72.457031 26.867188 69.175781 C 26.046875 66.902344 25.226562 64.632812 24.511719 62.328125 C 23.738281 59.824219 23.058594 57.292969 22.386719 54.757812 C 21.882812 52.847656 21.433594 50.921875 21.003906 48.988281 C 20.511719 46.792969 20.054688 44.589844 19.636719 42.382812 C 19.359375 40.886719 19.199219 39.375 18.972656 37.871094 C 18.667969 35.84375 18.613281 33.800781 18.722656 31.769531 C 18.824219 29.933594 19.085938 28.109375 19.347656 26.289062 C 19.707031 23.769531 20.539062 21.394531 21.730469 19.148438 C 22.46875 17.78125 23.371094 16.511719 24.417969 15.363281 C 26.140625 13.457031 28.226562 12.082031 30.542969 11.046875 C 32.164062 10.324219 33.878906 9.890625 35.621094 9.546875 C 38.210938 9.042969 40.824219 9.066406 43.4375 9.117188 C 44.582031 9.140625 45.71875 9.347656 46.859375 9.464844 C 49.320312 9.707031 51.726562 10.226562 54.105469 10.863281 C 55.839844 11.328125 57.539062 11.929688 59.257812 12.453125 C 59.429688 12.507812 59.679688 12.5 59.824219 12.410156 C 62.152344 10.886719 64.699219 9.886719 67.40625 9.308594 C 68.433594 9.09375 69.496094 8.996094 70.546875 8.929688 C 71.824219 8.851562 73.113281 8.773438 74.386719 8.847656 C 75.917969 8.9375 77.445312 9.164062 78.96875 9.371094 C 79.710938 9.472656 80.429688 9.726562 81.171875 9.796875 C 81.527344 9.832031 81.902344 9.574219 82.277344 9.484375 C 84.191406 9.042969 86.09375 8.550781 88.023438 8.203125 C 89.460938 7.945312 90.929688 7.820312 92.386719 7.738281 C 94.019531 7.644531 95.65625 7.574219 97.285156 7.65625 C 99.34375 7.753906 101.386719 8.046875 103.402344 8.515625 C 105.902344 9.097656 108.300781 9.941406 110.578125 11.113281 C 112.28125 11.992188 113.898438 13.007812 115.355469 14.253906 C 116.3125 15.074219 117.289062 15.882812 118.152344 16.796875 C 119.214844 17.921875 120.300781 19.046875 120.96875 20.488281 C 121.472656 21.578125 121.828125 22.703125 121.929688 23.894531 C 122.050781 25.375 122.199219 26.859375 122.1875 28.34375 C 122.175781 29.761719 121.980469 31.179688 121.84375 32.59375 C 121.53125 35.816406 120.832031 38.972656 119.980469 42.085938 C 119.269531 44.65625 118.460938 47.199219 117.5625 49.710938 C 116.746094 52.027344 115.796875 54.300781 114.839844 56.566406 C 114.136719 58.242188 113.371094 59.894531 112.546875 61.515625 C 110.980469 64.582031 109.351562 67.617188 107.46875 70.507812 C 107.144531 71.003906 106.835938 71.515625 106.519531 72.027344 C 107.339844 72.582031 108.273438 72.777344 109.207031 72.878906 C 110.101562 72.972656 111.007812 73.03125 111.898438 72.964844 C 113.324219 72.859375 114.746094 72.65625 116.164062 72.457031 C 117.566406 72.261719 118.941406 71.863281 120.386719 71.96875 C 121.824219 72.074219 122.855469 73.167969 122.757812 74.515625 C 122.695312 75.367188 122.300781 76.101562 121.734375 76.726562 C 119.058594 79.679688 115.699219 81.46875 111.855469 82.351562 C 110.394531 82.6875 108.890625 82.859375 107.394531 82.996094 C 106.117188 83.109375 104.835938 83.140625 103.554688 83.089844 C 102.617188 83.054688 101.683594 82.839844 100.726562 82.699219 C 100.628906 83.578125 100.535156 84.492188 100.425781 85.402344 L 99.980469 88.898438 C 99.84375 90.007812 99.738281 91.117188 99.597656 92.226562 C 99.460938 93.300781 99.292969 94.371094 99.148438 95.445312 C 99.015625 96.445312 98.917969 97.449219 98.765625 98.449219 C 98.539062 99.980469 98.320312 101.515625 98.019531 103.035156 C 97.664062 104.851562 97.113281 106.605469 96.214844 108.246094 C 95.121094 110.246094 93.570312 111.769531 91.597656 112.894531 C 89.5625 114.058594 87.335938 114.660156 85.082031 115.167969 C 83.484375 115.527344 81.839844 115.585938 80.222656 115.4375 C 77.421875 115.1875 75.027344 113.988281 73.21875 111.8125 C 71.492188 109.734375 70.320312 107.359375 69.90625 104.667969 C 69.707031 103.382812 69.554688 102.097656 69.445312 100.804688 C 69.320312 99.371094 69.226562 97.929688 69.164062 96.488281 Z M 72.316406 78.042969 C 72.332031 79.003906 72.234375 79.960938 72.238281 80.921875 C 72.257812 85.390625 72.292969 89.855469 72.328125 94.324219 C 72.335938 95.054688 72.371094 95.785156 72.425781 96.515625 C 72.535156 98.039062 72.640625 99.566406 72.789062 101.089844 C 72.898438 102.171875 73.042969 103.25 73.210938 104.320312 C 73.453125 105.839844 74.144531 107.191406 74.929688 108.484375 C 75.605469 109.597656 76.484375 110.542969 77.640625 111.195312 C 79.609375 112.300781 81.726562 112.394531 83.863281 111.984375 C 85.304688 111.710938 86.722656 111.269531 88.121094 110.8125 C 89.496094 110.371094 90.753906 109.617188 91.792969 108.613281 C 92.777344 107.664062 93.472656 106.503906 93.941406 105.222656 C 94.851562 102.742188 95.136719 100.128906 95.511719 97.535156 C 95.652344 96.566406 95.777344 95.59375 95.90625 94.621094 C 96.050781 93.511719 96.199219 92.40625 96.339844 91.300781 C 96.449219 90.476562 96.542969 89.652344 96.644531 88.828125 C 96.789062 87.644531 96.9375 86.460938 97.078125 85.277344 C 97.183594 84.359375 97.269531 83.441406 97.363281 82.523438 C 97.484375 81.347656 97.613281 80.179688 97.71875 79.003906 C 97.796875 78.113281 97.765625 77.207031 97.921875 76.328125 C 98.214844 74.726562 98.972656 73.363281 100.394531 72.476562 C 100.988281 72.109375 101.660156 71.867188 102.320312 71.554688 L 102.207031 71.382812 C 101.597656 70.59375 100.972656 69.8125 100.375 69.015625 C 99.4375 67.757812 98.761719 66.359375 98.082031 64.953125 C 97.441406 63.617188 96.652344 62.355469 95.976562 61.035156 C 94.796875 58.734375 93.59375 56.4375 92.503906 54.09375 C 91.136719 51.148438 90.058594 48.097656 89.722656 44.832031 C 89.578125 43.449219 89.539062 42.070312 89.820312 40.703125 C 90.269531 38.515625 91.410156 36.808594 93.328125 35.636719 C 95.109375 34.546875 97.089844 34.195312 99.121094 34.085938 C 100.382812 34.019531 101.652344 34.074219 102.960938 34.074219 L 102.917969 33.855469 C 102.101562 32.152344 101.34375 30.421875 100.453125 28.761719 C 99.195312 26.414062 97.585938 24.300781 95.796875 22.339844 C 94.476562 20.882812 93.023438 19.546875 91.460938 18.351562 C 89.914062 17.179688 88.28125 16.132812 86.542969 15.277344 C 84.476562 14.25 82.292969 13.472656 80.039062 12.964844 C 77.859375 12.484375 75.667969 12.1875 73.433594 12.164062 C 71.527344 12.140625 69.632812 12.230469 67.777344 12.660156 C 64.972656 13.308594 62.410156 14.460938 60.183594 16.328125 C 58.949219 17.363281 57.847656 18.546875 56.898438 19.847656 C 55.78125 21.382812 54.882812 23.039062 54.113281 24.773438 C 53.054688 27.15625 52.332031 29.636719 51.832031 32.183594 C 51.585938 33.457031 51.390625 34.734375 51.195312 36.015625 C 51.125 36.464844 51.121094 36.921875 51.078125 37.4375 L 51.925781 36.996094 L 52.75 36.625 C 55.546875 35.347656 58.4375 34.527344 61.550781 34.621094 C 62.871094 34.660156 64.136719 34.921875 65.3125 35.5 C 67.566406 36.613281 68.882812 38.503906 69.457031 40.894531 C 69.855469 42.546875 70.125 44.230469 70.390625 45.910156 C 70.59375 47.222656 70.804688 48.546875 70.828125 49.867188 C 70.863281 51.800781 70.765625 53.738281 70.660156 55.671875 C 70.570312 57.316406 70.230469 58.933594 69.652344 60.476562 C 68.605469 63.269531 67.441406 66.015625 66.355469 68.792969 C 65.992188 69.710938 65.71875 70.660156 65.378906 71.671875 L 66.753906 71.671875 C 66.917969 71.675781 67.089844 71.679688 67.25 71.71875 C 68.5 72.011719 69.585938 72.582031 70.472656 73.542969 C 71.664062 74.820312 72.285156 76.3125 72.316406 78.042969 Z M 48.445312 64.796875 C 47.734375 63.132812 47.308594 61.359375 47.179688 59.550781 C 47.058594 57.847656 47.261719 56.152344 47.4375 54.453125 C 47.605469 52.8125 47.75 51.160156 47.796875 49.511719 C 47.878906 46.796875 47.695312 44.089844 47.566406 41.378906 C 47.488281 39.765625 47.675781 38.132812 47.820312 36.515625 C 47.949219 35.058594 48.113281 33.597656 48.386719 32.160156 C 48.847656 29.75 49.464844 27.375 50.335938 25.074219 C 51.164062 22.890625 52.117188 20.765625 53.457031 18.855469 C 54.378906 17.539062 55.421875 16.316406 56.425781 15.03125 L 56.125 14.925781 C 52.863281 13.890625 49.542969 13.078125 46.128906 12.726562 C 44.515625 12.558594 42.894531 12.460938 41.277344 12.363281 C 40.78125 12.335938 40.277344 12.402344 39.777344 12.449219 C 38.542969 12.570312 37.292969 12.613281 36.082031 12.847656 C 34.015625 13.238281 32.03125 13.902344 30.195312 14.976562 C 28.574219 15.933594 27.148438 17.191406 26.003906 18.691406 C 24.722656 20.34375 23.859375 22.214844 23.242188 24.207031 C 22.511719 26.5625 22.160156 28.984375 22.066406 31.425781 C 21.984375 33.570312 21.945312 35.722656 22.316406 37.859375 C 22.589844 39.445312 22.773438 41.050781 23.078125 42.632812 C 23.484375 44.792969 23.941406 46.941406 24.449219 49.078125 C 25.179688 52.136719 25.914062 55.195312 26.78125 58.214844 C 27.609375 61.105469 28.546875 63.972656 29.5625 66.804688 C 30.394531 69.117188 31.355469 71.386719 32.367188 73.625 C 33.027344 75.082031 33.824219 76.484375 34.660156 77.847656 C 35.550781 79.300781 36.5625 80.675781 37.933594 81.726562 C 39.667969 83.054688 41.007812 83.261719 42.769531 81.804688 C 43.523438 81.179688 44.160156 80.40625 44.816406 79.671875 C 45.859375 78.507812 46.863281 77.308594 47.902344 76.136719 C 49.226562 74.644531 50.5625 73.171875 51.890625 71.683594 C 52.171875 71.371094 52.445312 71.046875 52.71875 70.730469 L 52.261719 70.335938 C 50.625 68.769531 49.324219 66.886719 48.445312 64.796875 Z M 98.554688 20.394531 C 99.644531 21.65625 100.675781 22.96875 101.644531 24.320312 C 103.507812 26.933594 105.007812 29.785156 106.101562 32.800781 C 106.589844 34.136719 106.976562 35.484375 106.804688 36.945312 C 106.683594 37.96875 106.691406 39.007812 106.601562 40.035156 C 106.527344 40.890625 106.390625 41.742188 106.28125 42.59375 C 106.113281 43.878906 105.875 45.164062 105.800781 46.457031 C 105.734375 47.6875 105.804688 48.929688 105.882812 50.160156 C 105.960938 51.410156 106.128906 52.65625 106.246094 53.90625 C 106.375 55.324219 106.550781 56.742188 106.589844 58.160156 C 106.621094 59.328125 106.515625 60.5 106.417969 61.664062 C 106.289062 63.058594 105.949219 64.429688 105.410156 65.726562 C 105.039062 66.644531 104.59375 67.53125 104.171875 68.449219 L 104.339844 68.625 L 104.597656 68.824219 L 104.859375 68.363281 C 107.042969 64.929688 108.980469 61.34375 110.664062 57.636719 C 111.742188 55.242188 112.765625 52.828125 113.730469 50.386719 C 115.238281 46.59375 116.457031 42.691406 117.375 38.714844 C 117.792969 36.929688 118.109375 35.117188 118.394531 33.304688 C 118.613281 31.886719 118.796875 30.453125 118.839844 29.023438 C 118.882812 27.507812 118.796875 25.976562 118.65625 24.464844 C 118.550781 23.324219 118.269531 22.171875 117.554688 21.242188 C 116.40625 19.746094 115.164062 18.320312 113.636719 17.1875 C 112.347656 16.234375 111.066406 15.253906 109.683594 14.457031 C 107.496094 13.183594 105.128906 12.339844 102.652344 11.765625 C 100.234375 11.203125 97.789062 10.957031 95.324219 10.90625 C 93.871094 10.875 92.414062 11.03125 90.964844 11.167969 C 89.652344 11.292969 88.34375 11.503906 87.023438 11.675781 C 88.441406 12.472656 89.84375 13.183594 91.160156 14.019531 C 93.9375 15.777344 96.425781 17.890625 98.554688 20.394531 Z M 62.503906 69.609375 C 63.402344 66.742188 64.621094 64 65.804688 61.246094 C 66.765625 59.011719 67.289062 56.660156 67.464844 54.238281 C 67.550781 53.046875 67.527344 51.839844 67.46875 50.644531 C 67.410156 49.316406 67.289062 47.988281 67.105469 46.667969 C 66.855469 44.988281 66.574219 43.304688 66.175781 41.65625 C 65.746094 39.871094 64.65625 38.625 62.792969 38.167969 C 61.660156 37.890625 60.53125 37.902344 59.382812 38.082031 C 56.582031 38.523438 54.015625 39.554688 51.628906 41.066406 C 51.148438 41.371094 50.878906 41.617188 50.964844 42.304688 C 51.140625 43.765625 51.179688 45.253906 51.171875 46.726562 C 51.164062 48.8125 51.074219 50.902344 50.996094 52.984375 C 50.96875 53.664062 50.871094 54.34375 50.796875 55.019531 C 50.6875 56.054688 50.46875 57.089844 50.476562 58.125 C 50.484375 59.191406 50.59375 60.28125 50.851562 61.3125 C 51.675781 64.589844 53.414062 67.265625 56.265625 69.15625 C 58.019531 70.320312 59.960938 70.90625 62.089844 71.015625 C 62.230469 70.527344 62.363281 70.066406 62.503906 69.609375 Z M 59.15625 41.523438 C 58.78125 40.738281 58.996094 40.082031 59.863281 39.78125 C 60.078125 39.707031 60.296875 39.628906 60.515625 39.605469 C 60.820312 39.574219 61.125 39.597656 61.429688 39.597656 C 62.535156 39.605469 63.597656 39.757812 64.507812 40.460938 C 65.09375 40.910156 65.25 41.507812 64.871094 42.121094 C 64.332031 42.992188 63.515625 43.429688 62.507812 43.511719 C 60.925781 43.644531 59.816406 42.90625 59.15625 41.523438 Z M 103.066406 41.238281 L 103.425781 38.085938 C 103.476562 37.664062 103.253906 37.550781 102.902344 37.539062 C 101.789062 37.507812 100.675781 37.46875 99.5625 37.449219 C 98.308594 37.425781 97.085938 37.628906 95.925781 38.105469 C 94.636719 38.636719 93.65625 39.484375 93.257812 40.886719 C 92.960938 41.917969 92.871094 43 92.984375 44.066406 C 93.140625 45.722656 93.515625 47.347656 94.097656 48.902344 C 94.875 50.972656 95.691406 53.046875 96.664062 55.03125 C 97.984375 57.722656 99.476562 60.324219 100.878906 62.972656 C 101.25 63.679688 101.566406 64.417969 101.957031 65.242188 C 102.742188 63.601562 103.171875 61.8125 103.21875 59.996094 C 103.253906 58.492188 103.136719 56.984375 103.046875 55.480469 C 102.992188 54.558594 102.863281 53.644531 102.773438 52.726562 C 102.652344 51.445312 102.460938 50.167969 102.429688 48.882812 C 102.402344 47.578125 102.496094 46.269531 102.605469 44.964844 C 102.710938 43.71875 102.914062 42.480469 103.066406 41.238281 Z M 100.558594 40.226562 C 100.144531 41.367188 99.257812 42.011719 98.113281 42.199219 C 97.042969 42.378906 96.109375 41.984375 95.410156 41.128906 C 94.914062 40.523438 95.105469 39.804688 95.847656 39.394531 C 96.703125 38.921875 97.640625 38.800781 98.746094 38.730469 C 99.046875 38.785156 99.5 38.832031 99.929688 38.953125 C 100.550781 39.128906 100.785156 39.601562 100.558594 40.226562 Z M 67.492188 75.378906 C 66.878906 74.878906 66.070312 74.851562 65.488281 75.398438 C 64.769531 76.082031 64.132812 76.859375 63.5 77.628906 C 62.765625 78.515625 62.078125 79.4375 61.132812 80.128906 C 59.757812 81.128906 58.152344 81.542969 56.542969 81.933594 C 55.261719 82.246094 53.972656 82.535156 52.6875 82.832031 L 52.671875 83 C 53.054688 83.175781 53.421875 83.398438 53.820312 83.523438 C 55.78125 84.144531 57.777344 84.453125 59.847656 84.277344 C 61.339844 84.148438 62.765625 83.824219 64.113281 83.183594 C 65.972656 82.304688 67.402344 80.90625 68.617188 79.285156 C 68.824219 79.015625 68.914062 78.617188 68.9375 78.265625 C 69.019531 77.035156 68.394531 76.117188 67.492188 75.378906 Z M 103.269531 74.84375 C 102.308594 75.167969 101.527344 75.660156 101.296875 76.699219 C 101.136719 77.402344 101.078125 78.128906 101.019531 78.847656 C 101.007812 78.976562 101.164062 79.210938 101.285156 79.242188 C 102.023438 79.4375 102.769531 79.667969 103.527344 79.734375 C 104.457031 79.820312 105.402344 79.792969 106.339844 79.746094 C 107.351562 79.695312 108.367188 79.632812 109.363281 79.464844 C 111.710938 79.070312 113.980469 78.429688 116 77.097656 C 116.726562 76.617188 117.445312 76.125 118.167969 75.636719 L 118.109375 75.535156 C 117.339844 75.648438 116.570312 75.789062 115.796875 75.871094 C 114.21875 76.039062 112.640625 76.21875 111.058594 76.308594 C 110.292969 76.355469 109.519531 76.207031 108.746094 76.144531 C 107.453125 76.039062 106.191406 75.753906 105.101562 75.0625 C 104.46875 74.664062 103.941406 74.621094 103.269531 74.84375 Z M 103.269531 74.84375 "/>
<path style=" stroke:none;fill-rule:nonzero;fill:rgb(20%,40.392157%,56.862748%);fill-opacity:1;" d="M 3.277344 119.304688 C 4.9375 119.039062 6.617188 118.90625 8.300781 118.914062 C 10.882812 118.914062 12.777344 119.515625 13.980469 120.597656 C 15.09375 121.5625 15.753906 123.035156 15.753906 124.839844 C 15.753906 126.671875 15.210938 128.117188 14.191406 129.167969 C 12.808594 130.640625 10.554688 131.394531 7.996094 131.394531 C 7.214844 131.394531 6.496094 131.363281 5.894531 131.210938 L 5.894531 139.332031 L 3.277344 139.332031 Z M 5.894531 129.078125 C 6.464844 129.226562 7.1875 129.289062 8.058594 129.289062 C 11.214844 129.289062 13.140625 127.753906 13.140625 124.957031 C 13.140625 122.28125 11.246094 120.988281 8.359375 120.988281 C 7.21875 120.988281 6.34375 121.082031 5.894531 121.199219 Z M 31.597656 131.933594 C 31.597656 137.3125 27.867188 139.660156 24.351562 139.660156 C 20.414062 139.660156 17.378906 136.773438 17.378906 132.171875 C 17.378906 127.304688 20.5625 124.445312 24.59375 124.445312 C 28.773438 124.445312 31.597656 127.484375 31.597656 131.933594 Z M 20.054688 132.082031 C 20.054688 135.269531 21.886719 137.675781 24.472656 137.675781 C 27 137.675781 28.890625 135.300781 28.890625 132.023438 C 28.890625 129.558594 27.660156 126.429688 24.53125 126.429688 C 21.40625 126.429688 20.054688 129.316406 20.054688 132.082031 Z M 34.574219 136.621094 C 35.355469 137.132812 36.738281 137.675781 38.058594 137.675781 C 39.984375 137.675781 40.886719 136.710938 40.886719 135.511719 C 40.886719 134.246094 40.136719 133.554688 38.179688 132.835938 C 35.566406 131.902344 34.332031 130.460938 34.332031 128.714844 C 34.332031 126.371094 36.226562 124.445312 39.351562 124.445312 C 40.824219 124.445312 42.121094 124.867188 42.929688 125.347656 L 42.269531 127.273438 C 41.375 126.722656 40.34375 126.429688 39.292969 126.429688 C 37.730469 126.429688 36.859375 127.332031 36.859375 128.414062 C 36.859375 129.617188 37.730469 130.160156 39.625 130.878906 C 42.152344 131.84375 43.445312 133.105469 43.445312 135.269531 C 43.445312 137.824219 41.460938 139.628906 38.003906 139.628906 C 36.410156 139.628906 34.9375 139.238281 33.914062 138.636719 Z M 50.027344 120.597656 L 50.027344 124.777344 L 53.8125 124.777344 L 53.8125 126.789062 L 50.027344 126.789062 L 50.027344 134.636719 C 50.027344 136.441406 50.535156 137.464844 52.011719 137.464844 C 52.527344 137.46875 53.042969 137.410156 53.542969 137.28125 L 53.664062 139.265625 C 53.152344 139.476562 52.339844 139.628906 51.320312 139.628906 C 50.085938 139.628906 49.09375 139.238281 48.464844 138.515625 C 47.710938 137.734375 47.441406 136.441406 47.441406 134.726562 L 47.441406 126.789062 L 45.1875 126.789062 L 45.1875 124.777344 L 47.441406 124.777344 L 47.441406 121.289062 Z M 69.144531 124.777344 C 69.085938 125.828125 69.027344 127.003906 69.027344 128.777344 L 69.027344 137.222656 C 69.027344 140.5625 68.363281 142.605469 66.953125 143.867188 C 65.539062 145.191406 63.496094 145.613281 61.660156 145.613281 C 59.917969 145.613281 57.992188 145.191406 56.820312 144.410156 L 57.480469 142.394531 C 58.441406 142.996094 59.945312 143.539062 61.75 143.539062 C 64.457031 143.539062 66.4375 142.125 66.4375 138.457031 L 66.4375 136.835938 L 66.378906 136.835938 C 65.566406 138.1875 64.003906 139.269531 61.75 139.269531 C 58.140625 139.269531 55.558594 136.203125 55.558594 132.171875 C 55.558594 127.242188 58.773438 124.445312 62.109375 124.445312 C 64.636719 124.445312 66.019531 125.769531 66.652344 126.972656 L 66.710938 126.972656 L 66.832031 124.777344 Z M 66.410156 130.519531 C 66.410156 130.070312 66.378906 129.679688 66.261719 129.316406 C 65.777344 127.785156 64.488281 126.523438 62.5625 126.523438 C 60.035156 126.523438 58.234375 128.65625 58.234375 132.023438 C 58.234375 134.878906 59.675781 137.253906 62.53125 137.253906 C 64.15625 137.253906 65.628906 136.230469 66.199219 134.546875 C 66.351562 134.097656 66.410156 133.585938 66.410156 133.136719 Z M 73.234375 129.316406 C 73.234375 127.605469 73.203125 126.128906 73.113281 124.777344 L 75.429688 124.777344 L 75.519531 127.632812 L 75.636719 127.632812 C 76.300781 125.679688 77.894531 124.445312 79.667969 124.445312 C 79.96875 124.445312 80.175781 124.476562 80.417969 124.539062 L 80.417969 127.03125 C 80.121094 126.96875 79.820312 126.9375 79.515625 126.941406 C 77.652344 126.941406 76.328125 128.355469 75.96875 130.339844 C 75.894531 130.746094 75.855469 131.160156 75.847656 131.570312 L 75.847656 139.328125 L 73.234375 139.328125 Z M 84.238281 132.535156 C 84.296875 136.113281 86.582031 137.585938 89.226562 137.585938 C 91.121094 137.585938 92.261719 137.253906 93.253906 136.832031 L 93.707031 138.726562 C 92.773438 139.148438 91.179688 139.628906 88.867188 139.628906 C 84.386719 139.628906 81.710938 136.683594 81.710938 132.292969 C 81.710938 127.90625 84.296875 124.445312 88.535156 124.445312 C 93.285156 124.445312 94.546875 128.625 94.546875 131.300781 C 94.546875 131.839844 94.488281 132.261719 94.457031 132.53125 L 84.238281 132.53125 Z M 91.992188 130.640625 C 92.023438 128.957031 91.300781 126.339844 88.324219 126.339844 C 85.648438 126.339844 84.476562 128.804688 84.265625 130.640625 Z M 97.554688 136.140625 C 98.972656 136.992188 100.589844 137.449219 102.242188 137.464844 C 104.917969 137.464844 106.484375 136.050781 106.484375 134.007812 C 106.484375 132.113281 105.398438 131.03125 102.664062 129.980469 C 99.359375 128.804688 97.3125 127.09375 97.3125 124.238281 C 97.3125 121.082031 99.929688 118.734375 103.867188 118.734375 C 105.941406 118.734375 107.445312 119.214844 108.347656 119.726562 L 107.625 121.863281 C 106.441406 121.226562 105.121094 120.894531 103.777344 120.898438 C 101.011719 120.898438 99.957031 122.554688 99.957031 123.9375 C 99.957031 125.828125 101.191406 126.761719 103.988281 127.84375 C 107.414062 129.167969 109.15625 130.820312 109.15625 133.796875 C 109.15625 136.921875 106.84375 139.628906 102.0625 139.628906 C 100.109375 139.628906 97.976562 139.058594 96.890625 138.335938 Z M 129.449219 142.304688 C 126.835938 141.617188 124.25 140.835938 121.695312 139.960938 C 121.273438 139.808594 120.851562 139.660156 120.460938 139.660156 C 115.652344 139.476562 111.53125 135.929688 111.53125 129.40625 C 111.53125 122.914062 115.5 118.734375 120.972656 118.734375 C 126.472656 118.734375 130.050781 123.003906 130.050781 128.988281 C 130.050781 134.1875 127.648438 137.523438 124.28125 138.695312 L 124.28125 138.816406 C 126.292969 139.328125 128.488281 139.808594 130.203125 140.109375 Z M 127.285156 129.105469 C 127.285156 125.046875 125.183594 120.867188 120.882812 120.867188 C 116.464844 120.867188 114.296875 124.957031 114.328125 129.347656 C 114.296875 133.644531 116.671875 137.523438 120.761719 137.523438 C 124.941406 137.523438 127.285156 133.738281 127.285156 129.105469 Z M 133.449219 119.066406 L 136.0625 119.066406 L 136.0625 137.132812 L 144.722656 137.132812 L 144.722656 139.328125 L 133.449219 139.328125 Z M 133.449219 119.066406 "/>
</g>
</svg>
