<?xml version="1.0" encoding="UTF-8"?>
<svg xmlns="http://www.w3.org/2000/svg" xmlns:xlink="http://www.w3.org/1999/xlink" width="px" height="150px" viewBox="0 0 159 150" version="1.1">
<defs>
<clipPath id="clip1">
  <path d="M 91 65 L 119 65 L 119 94 L 91 94 Z M 91 65 "/>
</clipPath>
<clipPath id="clip2">
  <path d="M 79.433594 93.460938 C 57.660156 93.460938 39.925781 75.664062 39.925781 53.8125 C 39.925781 31.960938 57.660156 14.164062 79.433594 14.164062 C 101.207031 14.164062 118.941406 31.960938 118.941406 53.8125 C 118.941406 75.664062 101.207031 93.460938 79.433594 93.460938 Z M 79.433594 21.054688 C 61.4375 21.054688 46.792969 35.75 46.792969 53.8125 C 46.792969 71.875 61.4375 86.570312 79.433594 86.570312 C 97.433594 86.570312 112.074219 71.875 112.074219 53.8125 C 112.074219 35.75 97.433594 21.054688 79.433594 21.054688 Z M 79.433594 21.054688 "/>
</clipPath>
</defs>
<g id="surface1">
<path style=" stroke:none;fill-rule:nonzero;fill:rgb(20.392157%,65.882355%,32.549021%);fill-opacity:1;" d="M 94.890625 89.980469 C 92.992188 89.980469 91.445312 88.429688 91.445312 86.523438 L 91.445312 58.976562 C 91.445312 57.070312 92.992188 55.519531 94.890625 55.519531 C 96.792969 55.519531 98.335938 57.070312 98.335938 58.976562 L 98.335938 86.523438 C 98.335938 88.429688 96.792969 89.980469 94.890625 89.980469 Z M 94.890625 89.980469 "/>
<path style=" stroke:none;fill-rule:nonzero;fill:rgb(20.392157%,65.882355%,32.549021%);fill-opacity:1;" d="M 63.976562 89.980469 C 62.078125 89.980469 60.53125 88.429688 60.53125 86.523438 L 60.53125 48.625 C 60.53125 46.71875 62.078125 45.167969 63.976562 45.167969 C 65.875 45.167969 67.421875 46.71875 67.421875 48.625 L 67.421875 86.523438 C 67.421875 88.429688 65.875 89.980469 63.976562 89.980469 Z M 63.976562 89.980469 "/>
<path style=" stroke:none;fill-rule:nonzero;fill:rgb(20.392157%,65.882355%,32.549021%);fill-opacity:1;" d="M 79.433594 93.460938 C 77.535156 93.460938 75.988281 91.910156 75.988281 90.003906 L 75.988281 38.296875 C 75.988281 36.390625 77.535156 34.839844 79.433594 34.839844 C 81.332031 34.839844 82.878906 36.390625 82.878906 38.296875 L 82.878906 90.003906 C 82.878906 91.910156 81.332031 93.460938 79.433594 93.460938 Z M 79.433594 93.460938 "/>
<path style=" stroke:none;fill-rule:nonzero;fill:rgb(98.431373%,73.725492%,1.568628%);fill-opacity:1;" d="M 79.433594 93.460938 C 57.660156 93.460938 39.925781 75.664062 39.925781 53.8125 L 46.792969 53.8125 C 46.792969 71.875 61.4375 86.570312 79.433594 86.570312 C 97.433594 86.570312 112.074219 71.875 112.074219 53.8125 L 118.941406 53.8125 C 118.941406 75.664062 101.207031 93.460938 79.433594 93.460938 Z M 79.433594 93.460938 "/>
<path style=" stroke:none;fill-rule:nonzero;fill:rgb(91.764706%,26.274511%,20.784314%);fill-opacity:1;" d="M 118.941406 53.8125 L 112.074219 53.8125 C 112.074219 35.75 97.433594 21.054688 79.433594 21.054688 C 61.4375 21.054688 46.792969 35.75 46.792969 53.8125 L 39.925781 53.8125 C 39.925781 31.960938 57.660156 14.164062 79.433594 14.164062 C 101.207031 14.164062 118.941406 31.960938 118.941406 53.8125 Z M 118.941406 53.8125 "/>
<path style=" stroke:none;fill-rule:nonzero;fill:rgb(25.882354%,52.156866%,95.686275%);fill-opacity:1;" d="M 125.808594 103.789062 C 124.925781 103.789062 124.042969 103.457031 123.378906 102.769531 L 102.511719 81.828125 C 101.164062 80.472656 101.164062 78.300781 102.511719 76.949219 C 103.859375 75.597656 106.023438 75.597656 107.371094 76.949219 L 128.238281 97.894531 C 129.585938 99.246094 129.585938 101.417969 128.238281 102.769531 C 127.574219 103.433594 126.691406 103.789062 125.808594 103.789062 Z M 125.808594 103.789062 "/>
<path style=" stroke:none;fill-rule:nonzero;fill:rgb(25.882354%,52.156866%,95.686275%);fill-opacity:1;" d="M 107.371094 81.847656 L 102.511719 76.972656 C 115.230469 64.207031 115.230469 43.417969 102.511719 30.652344 L 107.371094 25.777344 C 114.832031 33.265625 118.941406 43.21875 118.941406 53.8125 C 118.941406 64.40625 114.832031 74.355469 107.371094 81.847656 Z M 107.371094 81.847656 "/>
<g clip-path="url(#clip1)" clip-rule="nonzero">
<g clip-path="url(#clip2)" clip-rule="nonzero">
<path style=" stroke:none;fill-rule:nonzero;fill:rgb(25.882354%,52.156866%,95.686275%);fill-opacity:1;" d="M 125.808594 103.789062 C 124.925781 103.789062 124.042969 103.457031 123.378906 102.769531 L 92.464844 71.742188 C 91.117188 70.390625 91.117188 68.21875 92.464844 66.867188 C 93.808594 65.515625 95.972656 65.515625 97.320312 66.867188 L 128.238281 97.894531 C 129.585938 99.246094 129.585938 101.417969 128.238281 102.769531 C 127.574219 103.433594 126.691406 103.789062 125.808594 103.789062 Z M 125.808594 103.789062 "/>
</g>
</g>
<path style=" stroke:none;fill-rule:nonzero;fill:rgb(37.254903%,38.82353%,40.784314%);fill-opacity:1;" d="M 6.691406 127.148438 L 6.691406 123.714844 L 13.800781 123.714844 C 14.597656 123.714844 15.28125 123.539062 15.855469 123.203125 C 16.429688 122.871094 16.847656 122.429688 17.160156 121.898438 C 17.46875 121.367188 17.621094 120.789062 17.621094 120.210938 C 17.621094 119.636719 17.46875 119.058594 17.179688 118.527344 C 16.894531 117.996094 16.472656 117.574219 15.921875 117.222656 C 15.371094 116.886719 14.707031 116.710938 13.957031 116.710938 L 8.457031 116.710938 L 8.457031 134.683594 L 14.421875 134.683594 C 15.257812 134.683594 15.964844 134.507812 16.5625 134.152344 C 17.160156 133.796875 17.601562 133.332031 17.933594 132.757812 C 18.242188 132.179688 18.394531 131.558594 18.394531 130.917969 C 18.394531 130.273438 18.242188 129.632812 17.910156 129.054688 C 17.578125 128.480469 17.113281 128.015625 16.519531 127.660156 C 15.898438 127.304688 15.148438 127.128906 14.265625 127.128906 L 6.691406 127.128906 Z M 4.617188 138.253906 L 4.617188 113.1875 L 13.980469 113.1875 C 15.347656 113.1875 16.585938 113.476562 17.6875 114.050781 C 18.816406 114.628906 19.699219 115.425781 20.359375 116.421875 C 21.023438 117.421875 21.355469 118.550781 21.355469 119.835938 C 21.355469 121.121094 21.046875 122.207031 20.40625 123.117188 C 19.765625 124.023438 18.96875 124.710938 17.976562 125.175781 L 17.976562 125.375 C 19.234375 125.796875 20.25 126.507812 21.046875 127.546875 C 21.839844 128.566406 22.238281 129.789062 22.238281 131.226562 C 22.238281 132.667969 21.882812 133.867188 21.15625 134.929688 C 20.449219 135.972656 19.476562 136.789062 18.285156 137.390625 C 17.09375 137.988281 15.789062 138.277344 14.375 138.277344 L 4.617188 138.277344 Z M 4.617188 138.253906 "/>
<path style=" stroke:none;fill-rule:nonzero;fill:rgb(37.254903%,38.82353%,40.784314%);fill-opacity:1;" d="M 28.023438 117.773438 C 27.316406 117.773438 26.722656 117.53125 26.234375 117.019531 C 25.726562 116.511719 25.484375 115.914062 25.484375 115.226562 C 25.484375 114.539062 25.726562 113.917969 26.234375 113.429688 C 26.742188 112.941406 27.339844 112.699219 28.023438 112.699219 C 28.707031 112.699219 29.328125 112.941406 29.8125 113.429688 C 30.296875 113.917969 30.542969 114.515625 30.542969 115.226562 C 30.542969 115.933594 30.296875 116.535156 29.8125 117.019531 C 29.328125 117.53125 28.730469 117.773438 28.023438 117.773438 Z M 26.125 138.253906 L 26.125 120.390625 L 29.878906 120.390625 L 29.878906 138.253906 Z M 26.125 138.253906 "/>
<path style=" stroke:none;fill-rule:nonzero;fill:rgb(37.254903%,38.82353%,40.784314%);fill-opacity:1;" d="M 42.445312 135.019531 C 43.371094 135.019531 44.234375 134.796875 45.027344 134.332031 C 45.824219 133.867188 46.464844 133.199219 46.949219 132.3125 C 47.433594 131.425781 47.65625 130.363281 47.65625 129.121094 C 47.65625 127.882812 47.414062 126.75 46.949219 125.886719 C 46.464844 125.023438 45.84375 124.355469 45.027344 123.914062 C 44.234375 123.472656 43.371094 123.25 42.445312 123.25 C 41.515625 123.25 40.65625 123.472656 39.839844 123.914062 C 39.042969 124.355469 38.378906 125.023438 37.917969 125.886719 C 37.429688 126.75 37.1875 127.835938 37.1875 129.101562 C 37.1875 130.363281 37.429688 131.425781 37.917969 132.3125 C 38.402344 133.199219 39.042969 133.84375 39.839844 134.308594 C 40.632812 134.75 41.515625 134.972656 42.445312 134.972656 Z M 42.421875 146.386719 C 40.855469 146.386719 39.527344 146.144531 38.402344 145.632812 C 37.277344 145.125 36.347656 144.480469 35.664062 143.707031 C 34.957031 142.929688 34.472656 142.109375 34.164062 141.289062 L 37.652344 139.847656 C 38.027344 140.78125 38.625 141.535156 39.441406 142.132812 C 40.257812 142.730469 41.25 143.019531 42.398438 143.019531 C 44.035156 143.019531 45.335938 142.53125 46.265625 141.554688 C 47.191406 140.582031 47.65625 139.183594 47.65625 137.390625 L 47.65625 135.683594 L 47.457031 135.683594 C 46.90625 136.503906 46.132812 137.191406 45.160156 137.699219 C 44.1875 138.210938 43.0625 138.453125 41.78125 138.453125 C 40.5 138.453125 38.910156 138.078125 37.652344 137.300781 C 36.394531 136.523438 35.378906 135.4375 34.605469 134.042969 C 33.855469 132.644531 33.457031 131.007812 33.457031 129.144531 C 33.457031 127.28125 33.832031 125.621094 34.605469 124.246094 C 35.355469 122.851562 36.371094 121.785156 37.652344 121.011719 C 38.910156 120.234375 40.300781 119.859375 41.78125 119.859375 C 43.261719 119.859375 44.1875 120.101562 45.160156 120.613281 C 46.132812 121.121094 46.90625 121.785156 47.457031 122.652344 L 47.65625 122.652344 L 47.65625 120.414062 L 51.253906 120.414062 L 51.253906 137.300781 C 51.253906 139.25 50.878906 140.914062 50.128906 142.265625 C 49.378906 143.617188 48.339844 144.636719 47.015625 145.347656 C 45.691406 146.054688 44.144531 146.386719 42.398438 146.386719 Z M 42.421875 146.386719 "/>
<path style=" stroke:none;fill-rule:nonzero;fill:rgb(37.254903%,38.82353%,40.784314%);fill-opacity:1;" d="M 68.015625 135.171875 C 69.671875 135.171875 71.195312 134.773438 72.566406 133.976562 C 73.933594 133.179688 75.039062 132.070312 75.855469 130.652344 C 76.671875 129.234375 77.070312 127.59375 77.070312 125.730469 C 77.070312 123.871094 76.671875 122.207031 75.855469 120.789062 C 75.039062 119.371094 73.957031 118.261719 72.589844 117.488281 C 71.21875 116.6875 69.695312 116.289062 67.996094 116.289062 C 66.292969 116.289062 64.816406 116.6875 63.445312 117.488281 C 62.078125 118.285156 60.972656 119.394531 60.15625 120.789062 C 59.339844 122.207031 58.941406 123.847656 58.941406 125.730469 C 58.941406 127.617188 59.339844 129.234375 60.15625 130.652344 C 60.972656 132.070312 62.054688 133.179688 63.445312 133.976562 C 64.816406 134.773438 66.339844 135.171875 68.015625 135.171875 Z M 75.589844 140.226562 L 68.789062 130.054688 L 71.683594 128.082031 L 78.484375 138.320312 L 75.589844 140.25 Z M 67.996094 138.828125 C 66.140625 138.828125 64.4375 138.496094 62.847656 137.832031 C 61.28125 137.167969 59.910156 136.238281 58.742188 135.039062 C 57.570312 133.84375 56.664062 132.445312 56.027344 130.875 C 55.386719 129.277344 55.054688 127.570312 55.054688 125.753906 C 55.054688 123.9375 55.386719 122.230469 56.027344 120.65625 C 56.664062 119.082031 57.570312 117.6875 58.742188 116.488281 C 59.910156 115.292969 61.28125 114.339844 62.847656 113.675781 C 64.417969 113.007812 66.140625 112.675781 67.996094 112.675781 C 69.847656 112.675781 71.550781 113.007812 73.117188 113.675781 C 74.6875 114.339844 76.054688 115.292969 77.226562 116.488281 C 78.394531 117.6875 79.300781 119.082031 79.941406 120.65625 C 80.582031 122.230469 80.914062 123.9375 80.914062 125.753906 C 80.914062 127.570312 80.582031 129.277344 79.941406 130.851562 C 79.300781 132.425781 78.394531 133.820312 77.226562 135.019531 C 76.054688 136.214844 74.6875 137.167969 73.117188 137.832031 C 71.550781 138.496094 69.828125 138.828125 67.972656 138.828125 Z M 67.996094 138.828125 "/>
<path style=" stroke:none;fill-rule:nonzero;fill:rgb(37.254903%,38.82353%,40.784314%);fill-opacity:1;" d="M 91.183594 138.828125 C 88.996094 138.828125 87.363281 138.164062 86.257812 136.855469 C 85.152344 135.550781 84.601562 133.730469 84.601562 131.472656 L 84.601562 120.414062 L 88.355469 120.414062 L 88.355469 130.960938 C 88.355469 132.46875 88.707031 133.578125 89.414062 134.285156 C 90.121094 135.019531 91.003906 135.371094 92.085938 135.371094 C 93.167969 135.371094 93.898438 135.128906 94.605469 134.617188 C 95.3125 134.109375 95.839844 133.464844 96.21875 132.644531 C 96.59375 131.828125 96.792969 130.960938 96.792969 130.007812 L 96.792969 120.414062 L 100.546875 120.414062 L 100.546875 138.277344 L 96.988281 138.277344 L 96.988281 135.859375 L 96.792969 135.859375 C 96.460938 136.414062 96.019531 136.921875 95.445312 137.367188 C 94.871094 137.808594 94.230469 138.164062 93.5 138.429688 C 92.773438 138.695312 92.019531 138.828125 91.203125 138.828125 Z M 91.183594 138.828125 "/>
<path style=" stroke:none;fill-rule:nonzero;fill:rgb(37.254903%,38.82353%,40.784314%);fill-opacity:1;" d="M 112.910156 138.828125 C 111.144531 138.828125 109.597656 138.429688 108.230469 137.609375 C 106.859375 136.789062 105.777344 135.683594 105.007812 134.242188 C 104.234375 132.824219 103.835938 131.207031 103.835938 129.367188 C 103.835938 127.527344 104.210938 126.085938 104.960938 124.644531 C 105.714844 123.203125 106.75 122.03125 108.074219 121.164062 C 109.402344 120.277344 110.945312 119.859375 112.714844 119.859375 C 114.480469 119.859375 116.113281 120.257812 117.394531 121.054688 C 118.675781 121.851562 119.667969 122.9375 120.355469 124.3125 C 121.039062 125.6875 121.371094 127.238281 121.371094 128.945312 C 121.371094 130.652344 121.371094 129.453125 121.347656 129.675781 C 121.347656 129.898438 121.304688 130.054688 121.28125 130.164062 L 105.976562 130.164062 L 105.976562 127.304688 L 117.59375 127.304688 C 117.570312 126.863281 117.460938 126.394531 117.261719 125.886719 C 117.0625 125.398438 116.753906 124.933594 116.355469 124.492188 C 115.960938 124.070312 115.453125 123.714844 114.855469 123.449219 C 114.257812 123.183594 113.550781 123.050781 112.714844 123.050781 C 111.875 123.050781 110.769531 123.316406 109.996094 123.847656 C 109.203125 124.378906 108.582031 125.109375 108.164062 126.042969 C 107.722656 126.972656 107.5 128.058594 107.5 129.277344 C 107.5 130.496094 107.765625 131.757812 108.273438 132.691406 C 108.78125 133.597656 109.46875 134.285156 110.304688 134.75 C 111.144531 135.21875 112.050781 135.4375 113.023438 135.4375 C 113.996094 135.4375 115.207031 135.171875 116.027344 134.617188 C 116.820312 134.066406 117.460938 133.378906 117.925781 132.558594 L 121.015625 134.085938 C 120.242188 135.503906 119.207031 136.636719 117.878906 137.5 C 116.554688 138.363281 114.898438 138.808594 112.933594 138.808594 Z M 112.910156 138.828125 "/>
<path style=" stroke:none;fill-rule:nonzero;fill:rgb(37.254903%,38.82353%,40.784314%);fill-opacity:1;" d="M 124.859375 138.253906 L 124.859375 120.390625 L 128.414062 120.390625 L 128.414062 123.027344 L 128.613281 123.027344 C 128.878906 122.40625 129.277344 121.875 129.804688 121.386719 C 130.335938 120.921875 130.933594 120.546875 131.640625 120.277344 C 132.324219 120.011719 133.050781 119.859375 133.78125 119.859375 C 134.507812 119.859375 134.707031 119.878906 135.039062 119.945312 C 135.371094 120.011719 135.679688 120.101562 135.945312 120.210938 L 135.945312 124.113281 C 135.527344 123.9375 135.082031 123.78125 134.621094 123.671875 C 134.15625 123.558594 133.691406 123.515625 133.207031 123.515625 C 132.324219 123.515625 131.527344 123.757812 130.84375 124.222656 C 130.160156 124.691406 129.605469 125.332031 129.210938 126.128906 C 128.8125 126.929688 128.636719 127.816406 128.636719 128.789062 L 128.636719 138.230469 L 124.882812 138.230469 Z M 124.859375 138.253906 "/>
<path style=" stroke:none;fill-rule:nonzero;fill:rgb(37.254903%,38.82353%,40.784314%);fill-opacity:1;" d="M 145.375 137.742188 L 137.734375 120.390625 L 141.929688 120.390625 L 147.03125 132.578125 L 147.429688 132.578125 L 145.375 137.722656 Z M 145.640625 144.96875 C 145.574219 145.125 145.507812 145.300781 145.417969 145.457031 C 145.351562 145.613281 145.285156 145.746094 145.242188 145.832031 L 141.265625 145.832031 C 141.378906 145.589844 141.554688 145.234375 141.773438 144.746094 C 141.996094 144.257812 142.195312 143.792969 142.414062 143.328125 C 142.546875 143.039062 142.703125 142.707031 142.855469 142.375 C 143.011719 142.019531 143.167969 141.667969 143.34375 141.289062 C 143.519531 140.914062 143.695312 140.558594 143.851562 140.203125 L 146.414062 134.550781 L 147.207031 132.601562 L 152.109375 120.414062 L 156.261719 120.414062 L 147.074219 141.6875 C 146.898438 142.085938 146.722656 142.53125 146.523438 142.972656 C 146.324219 143.417969 146.148438 143.839844 146.015625 144.191406 C 145.859375 144.546875 145.75 144.8125 145.683594 144.992188 Z M 145.640625 144.96875 "/>
</g>
</svg>
