<?xml version="1.0" encoding="UTF-8"?>
<svg xmlns="http://www.w3.org/2000/svg" xmlns:xlink="http://www.w3.org/1999/xlink" width="px" height="150px" viewBox="0 0 218 150" version="1.1">
<g id="surface1">
<path style=" stroke:none;fill-rule:nonzero;fill:rgb(14.901961%,16.470589%,21.960784%);fill-opacity:1;" d="M 194.0625 96.070312 L 193.707031 97 L 193.5625 97 L 193.207031 96.070312 L 193.207031 97 L 192.992188 97 L 192.992188 95.714844 L 193.277344 95.714844 L 193.636719 96.714844 L 193.992188 95.714844 L 194.277344 95.714844 L 194.277344 97 L 194.0625 97 Z M 192.851562 95.929688 L 192.496094 95.929688 L 192.496094 97.070312 L 192.28125 97.070312 L 192.28125 95.929688 L 191.925781 95.929688 L 191.925781 95.714844 L 192.851562 95.714844 Z M 192.851562 95.929688 "/>
<path style=" stroke:none;fill-rule:nonzero;fill:rgb(14.901961%,16.470589%,21.960784%);fill-opacity:1;" d="M 132.582031 52.785156 L 132.582031 96.644531 L 123.675781 96.644531 L 123.675781 92.144531 C 122.75 93.714844 121.394531 95 119.757812 95.785156 C 118.046875 96.644531 116.054688 97.144531 114.058594 97.144531 C 111.636719 97.214844 109.214844 96.5 107.148438 95.144531 C 105.082031 93.714844 103.441406 91.855469 102.375 89.570312 C 101.234375 86.929688 100.664062 84.144531 100.664062 81.285156 C 100.59375 78.429688 101.164062 75.644531 102.375 73.070312 C 103.441406 70.855469 105.011719 68.929688 107.078125 67.644531 C 109.140625 66.285156 111.566406 65.644531 114.058594 65.714844 C 115.980469 65.714844 117.90625 66.144531 119.542969 67 C 121.183594 67.785156 122.535156 69 123.460938 70.570312 L 123.460938 55.785156 Z M 121.894531 88 C 123.035156 86.5 123.675781 84.285156 123.675781 81.429688 C 123.675781 78.570312 123.105469 76.429688 121.894531 74.929688 C 120.683594 73.429688 118.761719 72.570312 116.765625 72.570312 C 114.769531 72.429688 112.847656 73.355469 111.636719 74.855469 C 110.425781 76.355469 109.785156 78.5 109.785156 81.285156 C 109.785156 84.144531 110.425781 86.355469 111.636719 87.929688 C 112.847656 89.5 114.84375 90.355469 116.765625 90.285156 C 119.046875 90.355469 120.753906 89.5 121.894531 88 Z M 121.894531 88 "/>
<path style=" stroke:none;fill-rule:nonzero;fill:rgb(14.901961%,16.470589%,21.960784%);fill-opacity:1;" d="M 164.285156 67.644531 C 166.351562 69 167.988281 70.929688 168.984375 73.070312 C 170.125 75.644531 170.695312 78.429688 170.695312 81.285156 C 170.765625 84.144531 170.195312 87 168.984375 89.570312 C 167.917969 91.855469 166.351562 93.785156 164.210938 95.144531 C 162.21875 96.5 159.722656 97.144531 157.300781 97.144531 C 155.308594 97.214844 153.382812 96.714844 151.601562 95.785156 C 149.964844 95 148.609375 93.714844 147.753906 92.144531 L 147.753906 96.644531 L 138.921875 96.644531 L 138.921875 55.785156 L 147.898438 52.785156 L 147.898438 70.714844 C 148.753906 69.144531 150.105469 67.855469 151.746094 67.070312 C 153.453125 66.144531 155.378906 65.644531 157.375 65.714844 C 159.796875 65.644531 162.21875 66.355469 164.285156 67.644531 Z M 159.867188 87.929688 C 161.078125 86.355469 161.648438 84.144531 161.648438 81.214844 C 161.648438 78.429688 161.078125 76.285156 159.867188 74.785156 C 158.65625 73.285156 156.945312 72.5 154.738281 72.5 C 152.742188 72.355469 150.820312 73.285156 149.609375 74.855469 C 148.398438 76.429688 147.828125 78.570312 147.828125 81.355469 C 147.828125 84.214844 148.398438 86.429688 149.609375 87.929688 C 150.820312 89.5 152.742188 90.355469 154.738281 90.285156 C 156.804688 90.429688 158.65625 89.5 159.867188 87.929688 Z M 159.867188 87.929688 "/>
<path style=" stroke:none;fill-rule:nonzero;fill:rgb(14.901961%,16.470589%,21.960784%);fill-opacity:1;" d="M 183.089844 73.214844 L 183.089844 84.929688 C 183.089844 86.644531 183.589844 87.855469 184.375 88.570312 C 185.300781 89.355469 186.511719 89.785156 187.792969 89.714844 C 188.789062 89.714844 189.789062 89.570312 190.785156 89.285156 L 190.785156 96.285156 C 189.074219 96.855469 187.367188 97.144531 185.65625 97.070312 C 181.953125 97.070312 179.101562 96 177.105469 93.929688 C 175.113281 91.855469 174.113281 88.855469 174.113281 85 L 174.113281 59.285156 L 183.089844 56.429688 L 183.089844 66.429688 L 190.714844 66.429688 L 190.714844 73.144531 L 183.089844 73.144531 Z M 183.089844 73.214844 "/>
<path style=" stroke:none;fill-rule:nonzero;fill:rgb(100%,41.176471%,29.019609%);fill-opacity:1;" d="M 84.207031 45.5 C 85.703125 46.929688 86.703125 48.855469 86.914062 50.929688 C 86.914062 51.785156 86.703125 52.355469 86.132812 53.5 C 85.632812 54.570312 79.148438 65.785156 77.226562 68.855469 C 76.15625 70.644531 75.515625 72.785156 75.515625 74.929688 C 75.515625 77.070312 76.085938 79.144531 77.226562 81 C 79.148438 84.070312 85.5625 95.285156 86.132812 96.429688 C 86.628906 97.5 86.914062 98.070312 86.914062 98.929688 C 86.703125 101 85.773438 102.929688 84.277344 104.355469 C 82.855469 105.855469 80.929688 106.855469 78.863281 107 C 78.011719 107 77.441406 106.785156 76.371094 106.214844 C 75.300781 105.714844 63.976562 99.429688 60.910156 97.5 C 60.699219 97.355469 60.414062 97.214844 60.128906 97.070312 L 44.953125 88.070312 C 45.308594 91 46.59375 93.785156 48.65625 95.785156 C 49.085938 96.214844 49.441406 96.570312 49.941406 96.855469 C 49.585938 97 49.15625 97.214844 48.871094 97.429688 C 45.808594 99.355469 34.625 105.785156 33.484375 106.355469 C 32.414062 106.855469 31.84375 107.144531 30.917969 107.144531 C 28.851562 106.929688 26.929688 106 25.503906 104.5 C 24.007812 103.070312 23.011719 101.144531 22.796875 99.070312 C 22.867188 98.214844 23.082031 97.355469 23.582031 96.570312 C 24.078125 95.5 30.5625 84.214844 32.484375 81.144531 C 33.554688 79.355469 34.195312 77.214844 34.195312 75.070312 C 34.195312 72.929688 33.625 70.855469 32.484375 69 C 30.5625 65.785156 24.078125 54.570312 23.582031 53.5 C 23.082031 52.714844 22.867188 51.855469 22.796875 51 C 23.011719 48.929688 23.9375 47 25.433594 45.570312 C 26.859375 44.070312 28.78125 43.144531 30.847656 42.929688 C 31.703125 43 32.558594 43.214844 33.414062 43.714844 C 34.339844 44.144531 42.53125 48.855469 46.878906 51.429688 L 47.875 52 C 48.230469 52.214844 48.515625 52.429688 48.730469 52.5 L 49.226562 52.785156 L 64.6875 62 C 64.332031 58.5 62.550781 55.285156 59.773438 53.144531 C 60.128906 53 60.554688 52.785156 60.839844 52.570312 C 63.902344 50.644531 75.089844 44.144531 76.230469 43.644531 C 77.011719 43.144531 77.867188 42.929688 78.792969 42.855469 C 80.859375 43.070312 82.710938 44 84.207031 45.5 Z M 55.640625 79.144531 L 58.917969 75.855469 C 59.414062 75.355469 59.414062 74.714844 58.917969 74.214844 L 55.640625 70.929688 C 55.140625 70.429688 54.5 70.429688 54 70.929688 L 50.722656 74.214844 C 50.226562 74.714844 50.226562 75.355469 50.722656 75.855469 L 54 79.144531 C 54.429688 79.5 55.210938 79.5 55.640625 79.144531 Z M 55.640625 79.144531 "/>
</g>
</svg>
