<?xml version="1.0" encoding="UTF-8"?>
<svg xmlns="http://www.w3.org/2000/svg" xmlns:xlink="http://www.w3.org/1999/xlink" width="px" height="150px" viewBox="0 0 111 149" version="1.1">
<g id="surface1">
<path style=" stroke:none;fill-rule:nonzero;fill:rgb(94.117647%,52.941179%,1.960784%);fill-opacity:1;" d="M 111 106.023438 C 111 108.691406 108.800781 110.75 106.261719 110.75 L 4.738281 110.75 C 2.0625 110.75 0 108.554688 0 106.023438 L 0 4.738281 C 0 2.066406 2.199219 0.0117188 4.738281 0.0117188 L 106.257812 0.0117188 C 108.933594 0.0117188 110.992188 2.207031 110.992188 4.738281 L 110.992188 106.023438 Z M 111 106.023438 "/>
<path style=" stroke:none;fill-rule:nonzero;fill:rgb(87.450981%,42.352942%,4.705882%);fill-opacity:1;" d="M 111 106.023438 C 111 108.691406 108.800781 110.75 106.261719 110.75 L 37.984375 110.75 L 15.867188 88.339844 L 29.609375 65.929688 L 70.410156 15.359375 L 110.867188 56.953125 Z M 111 106.023438 "/>
<path style=" stroke:none;fill-rule:nonzero;fill:rgb(100%,100%,100%);fill-opacity:1;" d="M 91.148438 61.886719 L 79.46875 61.886719 L 67.101562 40.921875 C 69.851562 40.371094 71.910156 37.90625 71.910156 35.027344 L 71.910156 19.195312 C 71.910156 15.839844 69.234375 13.164062 65.863281 13.164062 L 45.265625 13.164062 C 41.902344 13.164062 39.21875 15.835938 39.21875 19.195312 L 39.21875 35.027344 C 39.21875 37.972656 41.28125 40.371094 43.957031 40.921875 L 31.589844 61.960938 L 19.917969 61.960938 C 16.554688 61.960938 13.871094 64.628906 13.871094 67.992188 L 13.871094 83.820312 C 13.871094 87.175781 16.546875 89.851562 19.917969 89.851562 L 40.523438 89.851562 C 43.886719 89.851562 46.570312 87.183594 46.570312 83.820312 L 46.570312 67.992188 C 46.570312 64.636719 43.890625 61.960938 40.523438 61.960938 L 38.535156 61.960938 L 50.761719 41.128906 L 60.308594 41.128906 L 72.605469 61.960938 L 70.542969 61.960938 C 67.179688 61.960938 64.496094 64.628906 64.496094 67.992188 L 64.496094 83.820312 C 64.496094 87.175781 67.171875 89.851562 70.542969 89.851562 L 91.148438 89.851562 C 94.511719 89.851562 97.195312 87.183594 97.195312 83.820312 L 97.195312 67.992188 C 97.195312 64.628906 94.515625 61.886719 91.148438 61.886719 Z M 91.148438 61.886719 "/>
<path style=" stroke:none;fill-rule:nonzero;fill:rgb(20%,20%,20%);fill-opacity:1;" d="M 15.730469 148.027344 C 15.730469 148.164062 15.730469 148.230469 15.664062 148.367188 C 15.597656 148.433594 15.527344 148.503906 15.390625 148.570312 C 15.253906 148.636719 15.050781 148.636719 14.839844 148.707031 C 14.636719 148.707031 14.289062 148.773438 13.949219 148.773438 C 13.609375 148.773438 13.261719 148.773438 13.058594 148.707031 C 12.855469 148.707031 12.648438 148.640625 12.511719 148.570312 C 12.371094 148.503906 12.234375 148.433594 12.167969 148.367188 C 12.105469 148.300781 12.105469 148.164062 12.105469 148.027344 L 12.105469 146.316406 C 11.277344 147.207031 10.453125 147.824219 9.566406 148.300781 C 8.675781 148.78125 7.710938 148.988281 6.613281 148.988281 C 5.449219 148.988281 4.414062 148.785156 3.589844 148.300781 C 2.765625 147.824219 2.078125 147.207031 1.601562 146.453125 C 1.050781 145.703125 0.710938 144.746094 0.5 143.714844 C 0.296875 142.6875 0.160156 141.589844 0.160156 140.421875 C 0.160156 139.054688 0.296875 137.820312 0.574219 136.65625 C 0.847656 135.558594 1.328125 134.601562 1.875 133.851562 C 2.425781 133.097656 3.179688 132.480469 4.003906 132.066406 C 4.828125 131.65625 5.855469 131.453125 6.953125 131.453125 C 7.84375 131.453125 8.601562 131.65625 9.355469 132.003906 C 10.042969 132.34375 10.796875 132.890625 11.480469 133.574219 L 11.480469 125.148438 C 11.480469 125.011719 11.480469 124.945312 11.546875 124.808594 C 11.613281 124.742188 11.75 124.605469 11.886719 124.605469 C 12.027344 124.539062 12.300781 124.46875 12.574219 124.46875 C 12.851562 124.402344 13.191406 124.402344 13.675781 124.402344 C 14.085938 124.402344 14.425781 124.402344 14.773438 124.46875 C 15.050781 124.535156 15.253906 124.535156 15.460938 124.605469 C 15.597656 124.671875 15.734375 124.742188 15.800781 124.808594 C 15.867188 124.875 15.9375 125.011719 15.9375 125.148438 Z M 11.332031 137.609375 C 10.71875 136.789062 10.097656 136.238281 9.546875 135.761719 C 8.996094 135.351562 8.382812 135.148438 7.761719 135.148438 C 7.210938 135.148438 6.660156 135.285156 6.25 135.558594 C 5.835938 135.835938 5.496094 136.246094 5.222656 136.722656 C 4.945312 137.199219 4.808594 137.746094 4.671875 138.296875 C 4.535156 138.910156 4.46875 139.457031 4.46875 140.078125 C 4.46875 140.761719 4.535156 141.378906 4.605469 141.996094 C 4.742188 142.609375 4.882812 143.160156 5.15625 143.640625 C 5.359375 144.117188 5.707031 144.53125 6.117188 144.804688 C 6.53125 145.078125 7.007812 145.214844 7.628906 145.214844 C 7.902344 145.214844 8.246094 145.148438 8.519531 145.078125 C 8.792969 145.007812 9.070312 144.875 9.410156 144.667969 C 9.683594 144.464844 10.023438 144.191406 10.300781 143.917969 C 10.640625 143.578125 10.988281 143.230469 11.328125 142.753906 L 11.328125 137.609375 Z M 30.015625 133.910156 C 30.015625 134.320312 30.015625 134.660156 29.949219 134.933594 C 29.949219 135.207031 29.882812 135.410156 29.8125 135.546875 C 29.746094 135.683594 29.671875 135.824219 29.609375 135.886719 C 29.542969 135.953125 29.40625 135.953125 29.332031 135.953125 C 29.261719 135.953125 29.128906 135.953125 28.992188 135.886719 C 28.855469 135.824219 28.71875 135.824219 28.582031 135.75 C 28.441406 135.679688 28.304688 135.683594 28.101562 135.613281 C 27.898438 135.546875 27.761719 135.546875 27.554688 135.546875 C 27.277344 135.546875 27.074219 135.613281 26.800781 135.683594 C 26.523438 135.75 26.320312 135.960938 26.046875 136.164062 C 25.773438 136.363281 25.496094 136.640625 25.222656 136.984375 C 24.949219 137.324219 24.609375 137.734375 24.332031 138.285156 L 24.332031 148.015625 C 24.332031 148.152344 24.265625 148.21875 24.195312 148.289062 C 24.125 148.363281 23.992188 148.429688 23.855469 148.492188 C 23.71875 148.558594 23.441406 148.558594 23.167969 148.628906 C 22.894531 148.628906 22.550781 148.695312 22.070312 148.695312 C 21.65625 148.695312 21.316406 148.695312 20.96875 148.628906 C 20.695312 148.628906 20.492188 148.566406 20.28125 148.492188 C 20.144531 148.429688 20.007812 148.355469 19.941406 148.289062 C 19.875 148.226562 19.804688 148.089844 19.804688 148.015625 L 19.804688 132.460938 C 19.804688 132.324219 19.804688 132.257812 19.871094 132.1875 C 19.9375 132.121094 20.007812 132.050781 20.210938 131.984375 C 20.347656 131.917969 20.550781 131.917969 20.824219 131.847656 C 21.027344 131.847656 21.375 131.78125 21.714844 131.78125 C 22.054688 131.78125 22.402344 131.78125 22.679688 131.847656 C 22.953125 131.847656 23.089844 131.914062 23.226562 131.984375 C 23.363281 132.050781 23.429688 132.121094 23.503906 132.1875 C 23.566406 132.253906 23.566406 132.390625 23.566406 132.460938 L 23.566406 134.378906 C 23.980469 133.832031 24.390625 133.355469 24.734375 132.945312 C 25.074219 132.53125 25.421875 132.257812 25.761719 132.054688 C 26.101562 131.851562 26.449219 131.714844 26.722656 131.578125 C 27.0625 131.511719 27.410156 131.441406 27.683594 131.441406 L 28.164062 131.441406 C 28.367188 131.441406 28.503906 131.507812 28.710938 131.507812 C 28.914062 131.574219 29.050781 131.574219 29.191406 131.644531 L 29.464844 131.78125 C 29.53125 131.847656 29.601562 131.917969 29.601562 131.984375 C 29.601562 132.050781 29.667969 132.121094 29.667969 132.257812 C 29.667969 132.394531 29.734375 132.53125 29.734375 132.808594 C 30.015625 133.160156 30.015625 133.433594 30.015625 133.910156 Z M 45.953125 148.09375 C 45.953125 148.230469 45.886719 148.367188 45.75 148.503906 C 45.613281 148.570312 45.476562 148.640625 45.199219 148.707031 C 44.925781 148.773438 44.585938 148.773438 44.101562 148.773438 C 43.550781 148.773438 43.210938 148.773438 42.9375 148.707031 C 42.734375 148.640625 42.523438 148.570312 42.457031 148.503906 C 42.394531 148.441406 42.320312 148.300781 42.320312 148.09375 L 42.320312 146.859375 C 41.707031 147.546875 40.945312 148.09375 40.121094 148.433594 C 39.296875 148.84375 38.40625 148.980469 37.375 148.980469 C 36.550781 148.980469 35.796875 148.84375 35.109375 148.640625 C 34.421875 148.441406 33.808594 148.09375 33.324219 147.683594 C 32.847656 147.273438 32.433594 146.722656 32.160156 146.109375 C 31.882812 145.496094 31.746094 144.738281 31.746094 143.917969 C 31.746094 143.027344 31.949219 142.207031 32.296875 141.519531 C 32.644531 140.835938 33.1875 140.285156 33.875 139.875 C 34.5625 139.464844 35.449219 139.125 36.484375 138.914062 C 37.511719 138.714844 38.75 138.574219 40.121094 138.574219 L 41.632812 138.574219 L 41.632812 137.617188 C 41.632812 137.140625 41.566406 136.726562 41.496094 136.316406 C 41.429688 135.976562 41.222656 135.632812 41.019531 135.429688 C 40.816406 135.15625 40.46875 135.019531 40.128906 134.878906 C 39.714844 134.742188 39.304688 134.679688 38.6875 134.679688 C 37.9375 134.679688 37.316406 134.742188 36.699219 134.953125 C 36.148438 135.089844 35.601562 135.292969 35.1875 135.5 L 34.089844 136.050781 C 33.8125 136.1875 33.539062 136.324219 33.335938 136.324219 C 33.199219 136.324219 33.0625 136.257812 32.996094 136.1875 C 32.929688 136.121094 32.792969 135.984375 32.71875 135.847656 C 32.65625 135.710938 32.582031 135.507812 32.582031 135.296875 C 32.515625 135.09375 32.515625 134.820312 32.515625 134.546875 C 32.515625 134.207031 32.515625 133.933594 32.582031 133.722656 C 32.648438 133.523438 32.71875 133.3125 32.921875 133.175781 C 33.0625 133.039062 33.402344 132.835938 33.75 132.628906 C 34.160156 132.425781 34.636719 132.214844 35.1875 132.078125 C 35.738281 131.875 36.351562 131.738281 36.972656 131.667969 C 37.589844 131.53125 38.277344 131.53125 38.964844 131.53125 C 40.199219 131.53125 41.226562 131.667969 42.125 131.871094 C 43.015625 132.074219 43.699219 132.484375 44.25 132.96875 C 44.800781 133.445312 45.210938 134.128906 45.488281 134.886719 C 45.761719 135.636719 45.898438 136.597656 45.898438 137.695312 Z M 41.621094 141.378906 L 39.972656 141.378906 C 39.285156 141.378906 38.671875 141.441406 38.121094 141.515625 C 37.644531 141.652344 37.230469 141.789062 36.882812 141.992188 C 36.542969 142.195312 36.335938 142.46875 36.199219 142.742188 C 36.058594 143.015625 35.996094 143.355469 35.996094 143.765625 C 35.996094 144.453125 36.199219 144.929688 36.609375 145.273438 C 37.023438 145.613281 37.570312 145.824219 38.324219 145.824219 C 38.941406 145.824219 39.488281 145.6875 40.039062 145.347656 C 40.589844 145.007812 41.066406 144.59375 41.617188 143.976562 L 41.617188 141.378906 Z M 73.703125 132.402344 C 73.703125 132.539062 73.703125 132.675781 73.636719 132.878906 C 73.570312 133.082031 73.570312 133.355469 73.433594 133.699219 L 69.242188 147.820312 C 69.175781 148.023438 69.101562 148.160156 69.039062 148.296875 C 68.972656 148.433594 68.835938 148.5 68.625 148.570312 C 68.421875 148.636719 68.148438 148.707031 67.800781 148.707031 C 67.460938 148.707031 66.976562 148.773438 66.425781 148.773438 C 65.878906 148.773438 65.398438 148.773438 65.050781 148.707031 C 64.710938 148.707031 64.4375 148.640625 64.226562 148.570312 C 64.023438 148.503906 63.886719 148.433594 63.75 148.296875 C 63.683594 148.160156 63.613281 148.023438 63.546875 147.820312 L 60.9375 138.363281 L 60.871094 138.222656 L 60.804688 138.363281 L 58.386719 147.820312 C 58.320312 148.023438 58.25 148.160156 58.183594 148.296875 C 58.117188 148.433594 57.980469 148.5 57.703125 148.570312 C 57.5 148.636719 57.226562 148.707031 56.878906 148.707031 C 56.539062 148.707031 56.054688 148.773438 55.507812 148.773438 C 54.890625 148.773438 54.476562 148.773438 54.066406 148.707031 C 53.726562 148.707031 53.449219 148.640625 53.242188 148.570312 C 53.039062 148.503906 52.902344 148.433594 52.765625 148.296875 C 52.699219 148.160156 52.625 148.023438 52.5625 147.820312 L 48.4375 133.707031 C 48.300781 133.367188 48.234375 133.09375 48.234375 132.882812 C 48.234375 132.679688 48.167969 132.542969 48.167969 132.40625 C 48.167969 132.269531 48.167969 132.203125 48.234375 132.132812 C 48.300781 132.066406 48.4375 131.996094 48.574219 131.929688 C 48.714844 131.863281 48.988281 131.863281 49.261719 131.792969 C 49.539062 131.792969 49.878906 131.726562 50.363281 131.726562 C 50.847656 131.726562 51.1875 131.726562 51.527344 131.792969 C 51.800781 131.792969 52.078125 131.859375 52.214844 131.929688 C 52.351562 131.996094 52.488281 132.066406 52.554688 132.132812 C 52.621094 132.199219 52.691406 132.335938 52.691406 132.472656 L 55.78125 143.917969 L 55.847656 144.117188 L 55.914062 143.917969 L 58.796875 132.472656 C 58.863281 132.335938 58.863281 132.199219 58.933594 132.132812 C 59 132.066406 59.136719 131.929688 59.277344 131.929688 C 59.414062 131.863281 59.617188 131.863281 59.890625 131.792969 C 60.164062 131.792969 60.507812 131.726562 60.917969 131.726562 C 61.332031 131.726562 61.671875 131.726562 61.945312 131.792969 C 62.222656 131.792969 62.425781 131.859375 62.5625 131.929688 C 62.699219 132.003906 62.835938 132.066406 62.902344 132.132812 C 62.96875 132.199219 63.039062 132.335938 63.039062 132.40625 L 66.128906 143.921875 L 66.195312 144.125 L 66.257812 143.921875 L 69.210938 132.480469 C 69.210938 132.34375 69.277344 132.203125 69.347656 132.140625 C 69.414062 132.074219 69.550781 131.9375 69.6875 131.9375 C 69.824219 131.871094 70.101562 131.871094 70.375 131.800781 C 70.652344 131.800781 70.992188 131.734375 71.476562 131.734375 C 71.886719 131.734375 72.226562 131.734375 72.503906 131.800781 C 72.777344 131.800781 72.980469 131.863281 73.117188 131.9375 C 73.253906 132.003906 73.394531 132.074219 73.457031 132.140625 C 73.703125 132.199219 73.703125 132.265625 73.703125 132.402344 Z M 80.226562 146.109375 C 80.226562 147.207031 80.023438 147.890625 79.675781 148.300781 C 79.265625 148.640625 78.648438 148.851562 77.617188 148.851562 C 76.65625 148.851562 75.96875 148.648438 75.554688 148.300781 C 75.214844 147.964844 75.003906 147.207031 75.003906 146.246094 C 75.003906 145.148438 75.207031 144.398438 75.554688 144.054688 C 75.96875 143.714844 76.65625 143.503906 77.617188 143.503906 C 78.578125 143.503906 79.265625 143.707031 79.605469 144.054688 C 80.089844 144.328125 80.226562 145.078125 80.226562 146.109375 Z M 80.226562 146.109375 "/>
<path style=" stroke:none;fill-rule:nonzero;fill:rgb(94.117647%,52.941179%,1.960784%);fill-opacity:1;" d="M 89.5 127.125 C 89.5 128.015625 89.296875 128.632812 88.949219 128.972656 C 88.609375 129.3125 87.921875 129.453125 86.960938 129.453125 C 86 129.453125 85.3125 129.3125 84.96875 128.972656 C 84.628906 128.632812 84.421875 128.085938 84.421875 127.191406 C 84.421875 126.296875 84.625 125.683594 84.96875 125.34375 C 85.316406 125.003906 86 124.796875 86.960938 124.796875 C 87.921875 124.796875 88.609375 124.933594 88.949219 125.273438 C 89.363281 125.683594 89.5 126.304688 89.5 127.125 Z M 89.222656 148.027344 C 89.222656 148.164062 89.160156 148.230469 89.085938 148.300781 C 89.019531 148.367188 88.882812 148.441406 88.746094 148.503906 C 88.609375 148.570312 88.335938 148.570312 88.058594 148.640625 C 87.785156 148.640625 87.445312 148.707031 86.960938 148.707031 C 86.546875 148.707031 86.207031 148.707031 85.859375 148.640625 C 85.585938 148.640625 85.382812 148.578125 85.171875 148.503906 C 85.035156 148.441406 84.898438 148.367188 84.832031 148.300781 C 84.765625 148.238281 84.695312 148.101562 84.695312 148.027344 L 84.695312 132.472656 C 84.695312 132.335938 84.761719 132.269531 84.832031 132.199219 C 84.898438 132.132812 85.035156 132.0625 85.171875 131.996094 C 85.3125 131.929688 85.585938 131.859375 85.859375 131.859375 C 86.136719 131.792969 86.476562 131.792969 86.960938 131.792969 C 87.445312 131.792969 87.710938 131.792969 88.058594 131.859375 C 88.335938 131.925781 88.539062 131.925781 88.746094 131.996094 C 88.882812 132.0625 89.019531 132.132812 89.085938 132.199219 C 89.152344 132.265625 89.222656 132.402344 89.222656 132.472656 Z M 109.625 140.078125 C 109.625 141.378906 109.421875 142.609375 109.078125 143.707031 C 108.734375 144.804688 108.1875 145.765625 107.5 146.515625 C 106.8125 147.335938 105.921875 147.886719 104.824219 148.363281 C 103.722656 148.773438 102.488281 148.976562 101.046875 148.976562 C 99.671875 148.976562 98.4375 148.773438 97.410156 148.429688 C 96.382812 148.015625 95.558594 147.46875 94.871094 146.78125 C 94.183594 146.03125 93.703125 145.136719 93.359375 144.042969 C 93.019531 142.945312 92.878906 141.78125 92.878906 140.339844 C 92.878906 139.039062 93.082031 137.808594 93.429688 136.710938 C 93.769531 135.613281 94.320312 134.652344 95.007812 133.902344 C 95.695312 133.152344 96.585938 132.53125 97.683594 132.054688 C 98.78125 131.644531 100.019531 131.441406 101.460938 131.441406 C 102.832031 131.441406 104.070312 131.644531 105.097656 131.988281 C 106.125 132.402344 106.949219 132.949219 107.636719 133.636719 C 108.324219 134.386719 108.800781 135.28125 109.148438 136.375 C 109.421875 137.472656 109.625 138.707031 109.625 140.078125 Z M 105.089844 140.214844 C 105.089844 139.464844 105.027344 138.707031 104.886719 138.09375 C 104.75 137.480469 104.546875 136.859375 104.273438 136.382812 C 104 135.90625 103.585938 135.558594 103.109375 135.285156 C 102.628906 135.011719 102.007812 134.875 101.257812 134.875 C 100.570312 134.875 100.019531 135.011719 99.542969 135.214844 C 99.0625 135.417969 98.652344 135.828125 98.304688 136.238281 C 97.964844 136.714844 97.753906 137.265625 97.617188 137.882812 C 97.480469 138.5 97.414062 139.253906 97.414062 140.078125 C 97.414062 140.828125 97.480469 141.585938 97.617188 142.199219 C 97.753906 142.8125 97.957031 143.433594 98.234375 143.910156 C 98.507812 144.386719 98.921875 144.734375 99.398438 145.007812 C 99.875 145.28125 100.496094 145.417969 101.25 145.417969 C 101.9375 145.417969 102.488281 145.28125 102.964844 145.078125 C 103.441406 144.875 103.855469 144.464844 104.203125 144.054688 C 104.542969 143.578125 104.75 143.027344 104.886719 142.410156 C 105.027344 141.789062 105.089844 141.039062 105.089844 140.214844 Z M 105.089844 140.214844 "/>
</g>
</svg>
