<?xml version="1.0" encoding="UTF-8"?>
<svg xmlns="http://www.w3.org/2000/svg" xmlns:xlink="http://www.w3.org/1999/xlink" width="px" height="150px" viewBox="0 0 218 150" version="1.1">
<g id="surface1">
<path style=" stroke:none;fill-rule:nonzero;fill:rgb(0%,45.09804%,100%);fill-opacity:1;" d="M 90.660156 64.746094 L 90.660156 68.761719 L 79.839844 68.761719 L 79.839844 73.136719 L 89.800781 73.136719 L 89.800781 77.222656 L 79.839844 77.222656 L 79.839844 85.683594 L 74.613281 85.683594 L 74.613281 64.746094 Z M 90.660156 64.746094 "/>
<path style=" stroke:none;fill-rule:nonzero;fill:rgb(0%,45.09804%,100%);fill-opacity:1;" d="M 94.886719 64.675781 L 99.398438 64.675781 L 99.398438 68.261719 L 94.886719 68.261719 Z M 94.886719 70.125 L 99.398438 70.125 L 99.398438 85.613281 L 94.886719 85.613281 Z M 94.886719 70.125 "/>
<path style=" stroke:none;fill-rule:nonzero;fill:rgb(0%,45.09804%,100%);fill-opacity:1;" d="M 102.625 70.195312 L 107.425781 70.195312 C 109.359375 77.078125 109.644531 78.441406 110.144531 81.453125 C 110.792969 78.011719 110.863281 77.652344 111.792969 73.996094 L 112.726562 70.195312 L 117.382812 70.195312 L 112.367188 85.683594 L 107.640625 85.683594 Z M 102.625 70.195312 "/>
<path style=" stroke:none;fill-rule:nonzero;fill:rgb(0%,45.09804%,100%);fill-opacity:1;" d="M 134.648438 81.667969 C 134.144531 82.527344 133.5 83.316406 132.785156 83.960938 C 131.210938 85.398438 129.132812 86.183594 126.980469 86.183594 C 122.398438 86.183594 119.171875 83.246094 119.171875 78.15625 C 119.171875 74.425781 121.035156 69.621094 127.125 69.621094 C 129.203125 69.550781 131.210938 70.339844 132.714844 71.84375 C 134.71875 73.996094 134.863281 77.007812 134.933594 78.800781 L 123.902344 78.800781 C 123.902344 80.734375 124.976562 82.671875 127.410156 82.671875 C 129.847656 82.671875 130.777344 81.023438 131.351562 79.949219 Z M 130.132812 75.933594 C 130.0625 75.144531 129.777344 74.355469 129.273438 73.710938 C 128.703125 73.136719 127.84375 72.847656 127.054688 72.847656 C 126.195312 72.847656 125.335938 73.207031 124.761719 73.851562 C 124.257812 74.425781 123.972656 75.144531 123.828125 75.859375 L 130.132812 75.859375 Z M 130.132812 75.933594 "/>
<path style=" stroke:none;fill-rule:nonzero;fill:rgb(0%,45.09804%,100%);fill-opacity:1;" d="M 139.375 65.679688 L 143.890625 65.679688 L 143.890625 70.484375 L 146.898438 70.484375 L 146.898438 73.277344 L 143.890625 73.277344 L 143.890625 80.304688 C 143.890625 81.238281 143.890625 82.097656 145.109375 82.097656 L 146.753906 82.027344 L 146.753906 85.613281 C 145.96875 85.753906 145.179688 85.828125 144.390625 85.828125 C 142.816406 85.828125 141.09375 85.753906 140.09375 84.320312 C 139.449219 83.390625 139.449219 82.3125 139.449219 80.808594 L 139.449219 73.277344 L 137.226562 73.277344 L 137.226562 70.484375 L 139.449219 70.484375 Z M 139.375 65.679688 "/>
<path style=" stroke:none;fill-rule:nonzero;fill:rgb(0%,45.09804%,100%);fill-opacity:1;" d="M 155.066406 71.773438 C 156.285156 70.699219 157.859375 70.050781 159.507812 69.980469 L 159.507812 73.996094 L 158.003906 74.210938 C 155.78125 74.570312 155.136719 74.929688 155.136719 76.863281 L 155.136719 85.539062 L 150.625 85.539062 L 150.625 70.125 L 155.066406 70.125 Z M 155.066406 71.773438 "/>
<path style=" stroke:none;fill-rule:nonzero;fill:rgb(0%,45.09804%,100%);fill-opacity:1;" d="M 162.875 74.570312 C 162.875 73.207031 163.449219 71.988281 164.523438 71.128906 C 165.957031 69.980469 167.746094 69.765625 169.609375 69.765625 C 171.472656 69.765625 176.128906 70.195312 176.128906 74.210938 L 176.128906 83.175781 C 176.128906 84.824219 176.199219 85.109375 176.558594 85.613281 L 172.046875 85.613281 L 172.046875 84.179688 C 170.828125 85.039062 169.609375 86.042969 167.316406 86.042969 C 163.804688 86.042969 162.230469 83.460938 162.230469 81.308594 C 162.230469 78.800781 164.234375 77.367188 165.453125 76.863281 C 167.460938 76.21875 169.464844 75.71875 171.542969 75.429688 L 171.542969 74.570312 C 171.472656 73.851562 171.398438 72.632812 169.753906 72.632812 C 167.746094 72.632812 167.460938 73.851562 167.386719 74.425781 Z M 168.605469 79.230469 C 167.816406 79.515625 166.671875 79.949219 166.671875 81.167969 C 166.742188 82.097656 167.460938 82.742188 168.390625 82.742188 C 168.964844 82.742188 169.464844 82.527344 169.96875 82.242188 C 171.472656 81.308594 171.542969 79.875 171.542969 78.296875 Z M 168.605469 79.230469 "/>
<path style=" stroke:none;fill-rule:nonzero;fill:rgb(0%,45.09804%,100%);fill-opacity:1;" d="M 185.800781 71.558594 C 186.230469 71.054688 186.730469 70.625 187.375 70.339844 C 188.234375 69.980469 189.238281 69.765625 190.171875 69.765625 C 191.101562 69.765625 192.105469 69.980469 192.894531 70.410156 C 194.539062 71.273438 194.898438 72.632812 194.898438 75.070312 L 194.898438 85.683594 L 190.386719 85.683594 L 190.386719 77.007812 C 190.457031 76.21875 190.386719 75.429688 190.171875 74.714844 C 189.8125 73.925781 189.023438 73.496094 188.164062 73.496094 C 185.800781 73.496094 185.800781 75.429688 185.800781 77.367188 L 185.800781 85.753906 L 181.285156 85.753906 L 181.285156 70.195312 L 185.871094 70.195312 Z M 185.800781 71.558594 "/>
<path style=" stroke:none;fill-rule:nonzero;fill:rgb(0%,45.09804%,100%);fill-opacity:1;" d="M 46.816406 75 L 51.613281 75 C 52.042969 75 52.332031 74.714844 52.332031 74.28125 C 52.332031 74.210938 52.332031 74.066406 52.257812 73.996094 L 44.019531 51.480469 C 43.949219 51.195312 43.664062 51.050781 43.375 51.050781 L 38.574219 51.050781 C 38.144531 51.050781 37.859375 51.339844 37.859375 51.769531 C 37.859375 51.839844 37.859375 51.910156 37.929688 51.984375 L 46.097656 74.570312 C 46.242188 74.855469 46.527344 75 46.816406 75 Z M 46.816406 75 "/>
<path style=" stroke:none;fill-rule:nonzero;fill:rgb(0%,45.09804%,100%);fill-opacity:1;" d="M 45.953125 98.949219 L 50.753906 98.949219 C 51.183594 98.949219 51.472656 98.660156 51.472656 98.230469 C 51.472656 98.160156 51.472656 98.089844 51.398438 98.015625 L 34.421875 51.480469 C 34.347656 51.195312 34.0625 51.050781 33.777344 51.050781 L 28.976562 51.050781 C 28.546875 51.050781 28.257812 51.339844 28.257812 51.769531 C 28.257812 51.839844 28.257812 51.910156 28.332031 51.984375 L 45.382812 98.445312 C 45.382812 98.734375 45.667969 98.949219 45.953125 98.949219 Z M 45.953125 98.949219 "/>
<path style=" stroke:none;fill-rule:nonzero;fill:rgb(0%,45.09804%,100%);fill-opacity:1;" d="M 36.5 98.949219 L 41.296875 98.949219 C 41.65625 98.949219 42.015625 98.660156 42.015625 98.304688 C 42.015625 98.230469 42.015625 98.089844 41.941406 98.015625 L 33.632812 75.5 C 33.5625 75.214844 33.273438 75.070312 32.988281 75.070312 L 28.1875 75.070312 C 27.828125 75.070312 27.542969 75.429688 27.542969 75.789062 C 27.542969 75.859375 27.542969 75.933594 27.613281 76.003906 L 35.855469 98.589844 C 35.925781 98.804688 36.210938 98.949219 36.5 98.949219 Z M 36.5 98.949219 "/>
<path style=" stroke:none;fill-rule:nonzero;fill:rgb(0%,45.09804%,100%);fill-opacity:1;" d="M 47.386719 51.984375 L 51.257812 62.523438 C 51.328125 62.8125 51.613281 62.953125 51.902344 62.953125 L 56.703125 62.953125 C 57.132812 62.953125 57.417969 62.667969 57.417969 62.238281 C 57.417969 62.164062 57.417969 62.09375 57.347656 62.023438 L 53.476562 51.480469 C 53.40625 51.195312 53.121094 51.050781 52.832031 51.050781 L 48.03125 51.050781 C 47.601562 51.050781 47.316406 51.339844 47.316406 51.769531 C 47.316406 51.839844 47.316406 51.910156 47.386719 51.984375 Z M 47.386719 51.984375 "/>
<path style=" stroke:none;fill-rule:nonzero;fill:rgb(0%,45.09804%,100%);fill-opacity:1;" d="M 27.613281 98.949219 L 32.414062 98.949219 C 32.84375 98.949219 33.132812 98.660156 33.132812 98.230469 C 33.132812 98.160156 33.132812 98.089844 33.058594 98.015625 L 29.191406 87.40625 C 29.121094 87.117188 28.832031 86.972656 28.546875 86.972656 L 23.746094 86.972656 C 23.316406 86.972656 23.03125 87.261719 23.03125 87.691406 C 23.03125 87.761719 23.03125 87.835938 23.101562 87.90625 L 26.96875 98.519531 C 27.042969 98.804688 27.328125 98.949219 27.613281 98.949219 Z M 27.613281 98.949219 "/>
</g>
</svg>
