<?xml version="1.0" encoding="UTF-8"?>
<svg xmlns="http://www.w3.org/2000/svg" xmlns:xlink="http://www.w3.org/1999/xlink" width="px" height="150px" viewBox="0 0 212 150" version="1.1">
<g id="surface1">
<path style=" stroke:none;fill-rule:nonzero;fill:rgb(30.980393%,30.588236%,30.588236%);fill-opacity:1;" d="M 61.914062 77.464844 C 61.914062 80.972656 61.636719 82.113281 60.914062 82.953125 C 60.113281 83.675781 59.074219 84.074219 57.996094 84.074219 L 58.273438 86.074219 C 59.949219 86.097656 61.566406 85.503906 62.832031 84.414062 C 64.210938 82.734375 64.847656 80.566406 64.597656 78.40625 L 64.597656 65.152344 L 61.914062 65.152344 Z M 81.910156 75.890625 C 81.910156 77.386719 81.910156 78.730469 82.03125 79.890625 L 79.648438 79.890625 L 79.492188 77.511719 C 78.476562 79.226562 76.621094 80.265625 74.628906 80.230469 C 72.308594 80.230469 69.546875 78.972656 69.546875 73.828125 L 69.546875 65.273438 L 72.226562 65.273438 L 72.226562 73.285156 C 72.226562 76.070312 73.085938 77.933594 75.511719 77.933594 C 77.578125 77.953125 79.269531 76.289062 79.289062 74.222656 C 79.289062 74.199219 79.289062 74.175781 79.289062 74.148438 L 79.289062 65.175781 L 81.972656 65.175781 L 81.972656 75.808594 Z M 86.992188 70.039062 C 86.992188 68.179688 86.992188 66.65625 86.871094 65.273438 L 89.273438 65.273438 L 89.394531 67.777344 C 90.484375 65.933594 92.496094 64.839844 94.636719 64.929688 C 98.195312 64.929688 100.875 67.914062 100.875 72.363281 C 100.875 77.605469 97.65625 80.210938 94.171875 80.210938 C 92.359375 80.289062 90.640625 79.417969 89.632812 77.910156 L 89.632812 85.917969 L 86.992188 85.917969 C 86.992188 85.917969 86.992188 70.039062 86.992188 70.039062 Z M 89.632812 73.945312 C 89.640625 74.308594 89.679688 74.667969 89.753906 75.023438 C 90.222656 76.851562 91.867188 78.128906 93.753906 78.128906 C 96.574219 78.128906 98.238281 75.828125 98.238281 72.484375 C 98.238281 69.5625 96.675781 67.054688 93.855469 67.054688 C 91.546875 67.242188 89.738281 69.121094 89.636719 71.4375 L 89.636719 73.945312 Z M 105.652344 65.261719 L 108.871094 73.890625 C 109.214844 74.851562 109.570312 76.015625 109.8125 76.871094 C 110.09375 75.996094 110.398438 74.871094 110.757812 73.832031 L 113.675781 65.261719 L 116.5 65.261719 L 112.496094 75.671875 C 110.496094 80.675781 109.273438 83.261719 107.4375 84.820312 C 106.507812 85.667969 105.375 86.261719 104.152344 86.542969 L 103.496094 84.304688 C 104.347656 84.019531 105.140625 83.578125 105.828125 83 C 106.804688 82.203125 107.582031 81.1875 108.09375 80.039062 C 108.203125 79.835938 108.273438 79.621094 108.3125 79.394531 C 108.289062 79.152344 108.230469 78.917969 108.136719 78.695312 L 102.691406 65.21875 L 105.613281 65.21875 Z M 123.613281 61.0625 L 123.613281 65.265625 L 127.453125 65.265625 L 127.453125 67.269531 L 123.613281 67.269531 L 123.613281 75.15625 C 123.613281 76.957031 124.132812 78 125.617188 78 C 126.140625 78.007812 126.667969 77.949219 127.171875 77.820312 L 127.292969 79.824219 C 126.53125 80.089844 125.722656 80.210938 124.917969 80.1875 C 123.832031 80.253906 122.773438 79.84375 122.015625 79.066406 C 121.199219 77.972656 120.828125 76.613281 120.972656 75.257812 L 120.972656 67.246094 L 118.691406 67.246094 L 118.691406 65.246094 L 121.011719 65.246094 L 121.011719 61.683594 Z M 132.394531 73.042969 C 132.183594 75.632812 134.109375 77.898438 136.695312 78.109375 C 136.945312 78.132812 137.203125 78.132812 137.453125 78.109375 C 138.828125 78.140625 140.191406 77.882812 141.457031 77.351562 L 141.914062 79.351562 C 140.363281 79.992188 138.691406 80.300781 137.011719 80.253906 C 133.261719 80.507812 130.015625 77.671875 129.761719 73.921875 C 129.738281 73.574219 129.742188 73.230469 129.769531 72.882812 C 129.769531 68.480469 132.394531 64.996094 136.675781 64.996094 C 141.476562 64.996094 142.675781 69.199219 142.675781 71.882812 C 142.699219 72.296875 142.699219 72.710938 142.675781 73.125 L 132.332031 73.125 Z M 140.238281 71.042969 C 140.539062 68.972656 139.101562 67.054688 137.035156 66.753906 C 136.863281 66.730469 136.691406 66.71875 136.519531 66.714844 C 134.238281 66.878906 132.457031 68.757812 132.414062 71.042969 Z M 146.742188 69.8125 C 146.742188 68.09375 146.742188 66.609375 146.621094 65.246094 L 149.023438 65.246094 L 149.023438 68.109375 L 149.144531 68.109375 C 149.664062 66.300781 151.269531 65.015625 153.148438 64.910156 C 153.398438 64.875 153.65625 64.875 153.90625 64.910156 L 153.90625 67.410156 C 153.597656 67.375 153.289062 67.375 152.988281 67.410156 C 151.105469 67.480469 149.574219 68.941406 149.402344 70.8125 C 149.332031 71.226562 149.289062 71.640625 149.28125 72.054688 L 149.28125 79.84375 L 146.640625 79.84375 L 146.640625 69.835938 Z M 146.742188 69.8125 "/>
<path style=" stroke:none;fill-rule:nonzero;fill:rgb(46.27451%,46.27451%,46.666667%);fill-opacity:1;" d="M 145.570312 25.042969 C 145.796875 28.785156 142.957031 32.003906 139.214844 32.234375 C 135.476562 32.464844 132.257812 29.617188 132.027344 25.875 C 131.796875 22.132812 134.640625 18.914062 138.382812 18.683594 C 138.421875 18.679688 138.464844 18.675781 138.503906 18.675781 C 142.199219 18.472656 145.363281 21.304688 145.566406 25.003906 C 145.570312 25.015625 145.570312 25.03125 145.570312 25.042969 Z M 145.570312 25.042969 "/>
<path style=" stroke:none;fill-rule:nonzero;fill:rgb(93.333334%,46.27451%,15.686275%);fill-opacity:1;" d="M 106.007812 103.457031 C 88.003906 103.457031 72.179688 96.996094 63.992188 87.4375 C 72.582031 110.660156 98.347656 122.519531 121.554688 113.925781 C 133.816406 109.386719 143.484375 99.710938 148.019531 87.4375 C 139.859375 96.992188 124.09375 103.457031 106.007812 103.457031 Z M 106.007812 41.351562 C 124.011719 41.351562 139.839844 47.816406 148.023438 57.371094 C 139.441406 34.148438 113.675781 22.285156 90.472656 30.875 C 78.203125 35.414062 68.53125 45.09375 63.996094 57.371094 C 72.179688 47.796875 87.921875 41.351562 106.007812 41.351562 Z M 106.007812 41.351562 "/>
<path style=" stroke:none;fill-rule:nonzero;fill:rgb(61.960787%,61.960787%,61.960787%);fill-opacity:1;" d="M 81.21875 122.046875 C 81.515625 126.757812 77.9375 130.820312 73.226562 131.117188 C 68.515625 131.410156 64.457031 127.832031 64.164062 123.117188 C 63.867188 118.402344 67.445312 114.339844 72.15625 114.046875 C 72.210938 114.042969 72.261719 114.039062 72.316406 114.035156 C 76.984375 113.789062 80.96875 117.375 81.21875 122.046875 Z M 81.21875 122.046875 "/>
<path style=" stroke:none;fill-rule:nonzero;fill:rgb(38.431373%,38.82353%,38.82353%);fill-opacity:1;" d="M 66.042969 39.175781 C 63.324219 39.253906 61.058594 37.109375 60.984375 34.390625 C 60.90625 31.671875 63.046875 29.40625 65.765625 29.328125 C 68.457031 29.253906 70.710938 31.355469 70.820312 34.050781 C 70.902344 36.78125 68.769531 39.066406 66.042969 39.175781 Z M 66.042969 39.175781 "/>
</g>
</svg>
