<?xml version="1.0" encoding="UTF-8"?>
<svg xmlns="http://www.w3.org/2000/svg" xmlns:xlink="http://www.w3.org/1999/xlink" width="px" height="150px" viewBox="0 0 606 150" version="1.1">
<g id="surface1">
<path style=" stroke:none;fill-rule:nonzero;fill:rgb(35.294119%,37.64706%,44.705883%);fill-opacity:1;" d="M 252.234375 37.425781 L 252.234375 113.554688 L 238.347656 113.554688 L 238.347656 66.804688 C 238.347656 65.828125 238.367188 64.777344 238.398438 63.660156 C 238.46875 62.539062 238.574219 61.402344 238.714844 60.25 L 216.964844 101.539062 C 215.777344 103.8125 213.941406 104.949219 211.460938 104.949219 L 209.261719 104.949219 C 208.039062 104.949219 206.953125 104.667969 206.011719 104.109375 C 205.066406 103.515625 204.316406 102.65625 203.757812 101.539062 L 181.902344 60.089844 C 182.007812 61.316406 182.09375 62.503906 182.164062 63.660156 C 182.234375 64.777344 182.269531 65.828125 182.269531 66.804688 L 182.269531 113.554688 L 168.378906 113.554688 L 168.378906 37.425781 L 180.332031 37.425781 C 180.996094 37.425781 181.589844 37.441406 182.113281 37.476562 C 182.636719 37.511719 183.089844 37.617188 183.476562 37.792969 C 183.894531 37.933594 184.261719 38.179688 184.574219 38.527344 C 184.925781 38.84375 185.257812 39.296875 185.570312 39.890625 L 206.851562 80.5 C 207.511719 81.722656 208.125 82.984375 208.683594 84.277344 C 209.277344 85.570312 209.835938 86.898438 210.359375 88.265625 C 210.886719 86.867188 211.425781 85.5 211.984375 84.171875 C 212.578125 82.84375 213.207031 81.566406 213.871094 80.34375 L 234.992188 39.890625 C 235.308594 39.296875 235.640625 38.84375 235.988281 38.527344 C 236.339844 38.179688 236.707031 37.933594 237.089844 37.792969 C 237.507812 37.617188 237.964844 37.511719 238.453125 37.476562 C 238.976562 37.441406 239.585938 37.425781 240.285156 37.425781 Z M 252.234375 37.425781 "/>
<path style=" stroke:none;fill-rule:nonzero;fill:rgb(35.294119%,37.64706%,44.705883%);fill-opacity:1;" d="M 296.632812 80.132812 C 296.632812 78.628906 296.421875 77.195312 296.003906 75.832031 C 295.617188 74.464844 294.988281 73.257812 294.117188 72.210938 C 293.242188 71.160156 292.140625 70.339844 290.8125 69.746094 C 289.488281 69.113281 287.898438 68.800781 286.042969 68.800781 C 282.585938 68.800781 279.878906 69.78125 277.921875 71.738281 C 275.964844 73.695312 274.691406 76.496094 274.097656 80.132812 Z M 273.886719 88.738281 C 274.339844 93.808594 275.773438 97.515625 278.183594 99.859375 C 280.628906 102.203125 283.808594 103.375 287.722656 103.375 C 289.714844 103.375 291.425781 103.148438 292.859375 102.691406 C 294.324219 102.203125 295.601562 101.679688 296.683594 101.117188 C 297.800781 100.523438 298.796875 100 299.671875 99.546875 C 300.582031 99.054688 301.46875 98.808594 302.34375 98.808594 C 303.460938 98.808594 304.335938 99.230469 304.964844 100.070312 L 309.15625 105.316406 C 307.621094 107.101562 305.925781 108.585938 304.074219 109.777344 C 302.222656 110.929688 300.300781 111.855469 298.308594 112.554688 C 296.316406 113.21875 294.308594 113.675781 292.28125 113.921875 C 290.253906 114.199219 288.296875 114.339844 286.410156 114.339844 C 282.636719 114.339844 279.109375 113.726562 275.824219 112.503906 C 272.574219 111.246094 269.730469 109.410156 267.28125 106.996094 C 264.871094 104.546875 262.96875 101.519531 261.570312 97.917969 C 260.171875 94.316406 259.472656 90.136719 259.472656 85.378906 C 259.472656 81.707031 260.066406 78.242188 261.253906 74.992188 C 262.476562 71.738281 264.226562 68.90625 266.496094 66.492188 C 268.765625 64.078125 271.527344 62.171875 274.777344 60.773438 C 278.027344 59.339844 281.695312 58.621094 285.78125 58.621094 C 289.242188 58.621094 292.421875 59.179688 295.320312 60.300781 C 298.257812 61.386719 300.773438 62.976562 302.867188 65.074219 C 305 67.171875 306.640625 69.761719 307.792969 72.839844 C 308.984375 75.882812 309.578125 79.363281 309.578125 83.28125 C 309.578125 84.363281 309.523438 85.257812 309.417969 85.957031 C 309.316406 86.65625 309.140625 87.214844 308.894531 87.636719 C 308.652344 88.054688 308.320312 88.351562 307.898438 88.527344 C 307.480469 88.667969 306.9375 88.738281 306.273438 88.738281 Z M 273.886719 88.738281 "/>
<path style=" stroke:none;fill-rule:nonzero;fill:rgb(35.294119%,37.64706%,44.705883%);fill-opacity:1;" d="M 334.5 114.390625 C 332.054688 114.390625 329.886719 114.042969 328 113.34375 C 326.113281 112.609375 324.523438 111.578125 323.230469 110.246094 C 321.9375 108.917969 320.960938 107.308594 320.296875 105.421875 C 319.632812 103.53125 319.300781 101.398438 319.300781 99.019531 L 319.300781 69.851562 L 314.21875 69.851562 C 313.449219 69.851562 312.785156 69.605469 312.226562 69.113281 C 311.703125 68.625 311.441406 67.890625 311.441406 66.910156 L 311.441406 61.246094 L 320.085938 59.671875 L 323.023438 45.664062 C 323.40625 44.089844 324.472656 43.300781 326.21875 43.300781 L 333.765625 43.300781 L 333.765625 59.777344 L 347.707031 59.777344 L 347.707031 69.851562 L 333.765625 69.851562 L 333.765625 98.074219 C 333.765625 99.578125 334.117188 100.769531 334.816406 101.644531 C 335.546875 102.519531 336.578125 102.953125 337.90625 102.953125 C 338.605469 102.953125 339.199219 102.886719 339.6875 102.746094 C 340.179688 102.570312 340.597656 102.394531 340.945312 102.21875 C 341.296875 102.011719 341.609375 101.835938 341.890625 101.695312 C 342.203125 101.519531 342.519531 101.433594 342.832031 101.433594 C 343.253906 101.433594 343.601562 101.539062 343.882812 101.75 C 344.160156 101.921875 344.441406 102.238281 344.71875 102.691406 L 349.070312 109.617188 C 347.078125 111.191406 344.824219 112.382812 342.308594 113.183594 C 339.792969 113.988281 337.191406 114.390625 334.5 114.390625 Z M 334.5 114.390625 "/>
<path style=" stroke:none;fill-rule:nonzero;fill:rgb(35.294119%,37.64706%,44.705883%);fill-opacity:1;" d="M 381.609375 90.941406 C 378.082031 91.117188 375.144531 91.429688 372.804688 91.886719 C 370.464844 92.304688 368.59375 92.863281 367.195312 93.5625 C 365.832031 94.261719 364.855469 95.066406 364.261719 95.976562 C 363.703125 96.851562 363.421875 97.8125 363.421875 98.863281 C 363.421875 100.960938 364 102.449219 365.152344 103.324219 C 366.339844 104.195312 367.984375 104.632812 370.078125 104.632812 C 372.488281 104.632812 374.566406 104.214844 376.316406 103.375 C 378.097656 102.5 379.863281 101.152344 381.609375 99.335938 Z M 352.15625 66.964844 C 355.335938 64.09375 358.84375 61.960938 362.6875 60.5625 C 366.53125 59.128906 370.691406 58.410156 375.164062 58.410156 C 378.378906 58.410156 381.242188 58.9375 383.757812 59.984375 C 386.308594 61.035156 388.457031 62.503906 390.203125 64.394531 C 391.984375 66.246094 393.347656 68.46875 394.292969 71.054688 C 395.234375 73.644531 395.707031 76.476562 395.707031 79.554688 L 395.707031 113.554688 L 389.105469 113.554688 C 387.742188 113.554688 386.691406 113.359375 385.957031 112.976562 C 385.261719 112.589844 384.683594 111.785156 384.230469 110.5625 L 383.078125 107.101562 C 381.714844 108.289062 380.386719 109.339844 379.09375 110.246094 C 377.835938 111.15625 376.523438 111.925781 375.164062 112.554688 C 373.800781 113.152344 372.332031 113.605469 370.761719 113.921875 C 369.222656 114.234375 367.492188 114.390625 365.570312 114.390625 C 363.195312 114.390625 361.03125 114.078125 359.074219 113.449219 C 357.117188 112.820312 355.421875 111.890625 353.988281 110.667969 C 352.589844 109.410156 351.507812 107.851562 350.738281 105.996094 C 349.972656 104.144531 349.585938 102.011719 349.585938 99.597656 C 349.585938 97.605469 350.09375 95.609375 351.105469 93.617188 C 352.121094 91.621094 353.847656 89.820312 356.296875 88.210938 C 358.777344 86.566406 362.058594 85.222656 366.148438 84.171875 C 370.269531 83.089844 375.425781 82.476562 381.609375 82.335938 L 381.609375 79.554688 C 381.609375 76.164062 380.890625 73.679688 379.460938 72.105469 C 378.027344 70.496094 375.964844 69.691406 373.277344 69.691406 C 371.285156 69.691406 369.625 69.9375 368.296875 70.425781 C 366.96875 70.882812 365.796875 71.386719 364.785156 71.949219 C 363.808594 72.472656 362.882812 72.980469 362.007812 73.46875 C 361.132812 73.925781 360.121094 74.152344 358.96875 74.152344 C 357.953125 74.152344 357.097656 73.90625 356.398438 73.417969 C 355.734375 72.890625 355.175781 72.28125 354.722656 71.582031 Z M 352.15625 66.964844 "/>
<path style=" stroke:none;fill-rule:nonzero;fill:rgb(35.294119%,37.64706%,44.705883%);fill-opacity:1;" d="M 419.367188 99.28125 C 420.730469 100.855469 422.195312 101.957031 423.769531 102.585938 C 425.375 103.21875 427.035156 103.53125 428.746094 103.53125 C 430.53125 103.53125 432.136719 103.21875 433.570312 102.585938 C 435.039062 101.921875 436.292969 100.890625 437.34375 99.492188 C 438.390625 98.058594 439.195312 96.203125 439.753906 93.929688 C 440.3125 91.65625 440.59375 88.910156 440.59375 85.695312 C 440.59375 82.824219 440.367188 80.394531 439.910156 78.402344 C 439.457031 76.371094 438.777344 74.710938 437.867188 73.417969 C 436.992188 72.125 435.910156 71.179688 434.617188 70.582031 C 433.324219 69.988281 431.824219 69.691406 430.109375 69.691406 C 427.839844 69.691406 425.863281 70.199219 424.1875 71.214844 C 422.546875 72.191406 420.9375 73.644531 419.367188 75.570312 Z M 419.367188 65.703125 C 421.496094 63.570312 423.855469 61.855469 426.441406 60.5625 C 429.027344 59.269531 431.925781 58.621094 435.140625 58.621094 C 438.25 58.621094 441.046875 59.25 443.527344 60.511719 C 446.042969 61.734375 448.175781 63.5 449.921875 65.808594 C 451.703125 68.117188 453.066406 70.914062 454.007812 74.203125 C 454.988281 77.457031 455.476562 81.113281 455.476562 85.167969 C 455.476562 89.542969 454.917969 93.527344 453.800781 97.132812 C 452.714844 100.699219 451.160156 103.757812 449.136719 106.3125 C 447.109375 108.867188 444.679688 110.84375 441.851562 112.242188 C 439.054688 113.640625 435.925781 114.339844 432.46875 114.339844 C 430.792969 114.339844 429.289062 114.164062 427.960938 113.816406 C 426.632812 113.5 425.410156 113.046875 424.292969 112.453125 C 423.175781 111.855469 422.144531 111.15625 421.199219 110.351562 C 420.257812 109.511719 419.367188 108.585938 418.527344 107.570312 L 417.953125 110.824219 C 417.707031 111.839844 417.304688 112.554688 416.746094 112.976562 C 416.1875 113.359375 415.4375 113.554688 414.492188 113.554688 L 404.902344 113.554688 L 404.902344 35.328125 L 419.367188 35.328125 Z M 419.367188 65.703125 "/>
<path style=" stroke:none;fill-rule:nonzero;fill:rgb(35.294119%,37.64706%,44.705883%);fill-opacity:1;" d="M 490.933594 90.941406 C 487.40625 91.117188 484.472656 91.429688 482.132812 91.886719 C 479.789062 92.304688 477.921875 92.863281 476.523438 93.5625 C 475.160156 94.261719 474.183594 95.066406 473.589844 95.976562 C 473.027344 96.851562 472.75 97.8125 472.75 98.863281 C 472.75 100.960938 473.328125 102.449219 474.480469 103.324219 C 475.667969 104.195312 477.308594 104.632812 479.40625 104.632812 C 481.816406 104.632812 483.894531 104.214844 485.640625 103.375 C 487.425781 102.5 489.1875 101.152344 490.933594 99.335938 Z M 461.480469 66.964844 C 464.660156 64.09375 468.171875 61.960938 472.015625 60.5625 C 475.859375 59.128906 480.015625 58.410156 484.488281 58.410156 C 487.703125 58.410156 490.570312 58.9375 493.085938 59.984375 C 495.636719 61.035156 497.785156 62.503906 499.53125 64.394531 C 501.3125 66.246094 502.675781 68.46875 503.617188 71.054688 C 504.5625 73.644531 505.035156 76.476562 505.035156 79.554688 L 505.035156 113.554688 L 498.429688 113.554688 C 497.066406 113.554688 496.019531 113.359375 495.285156 112.976562 C 494.585938 112.589844 494.011719 111.785156 493.554688 110.5625 L 492.402344 107.101562 C 491.039062 108.289062 489.714844 109.339844 488.421875 110.246094 C 487.164062 111.15625 485.851562 111.925781 484.488281 112.554688 C 483.125 113.152344 481.660156 113.605469 480.085938 113.921875 C 478.550781 114.234375 476.820312 114.390625 474.898438 114.390625 C 472.523438 114.390625 470.355469 114.078125 468.398438 113.449219 C 466.441406 112.820312 464.75 111.890625 463.316406 110.667969 C 461.917969 109.410156 460.835938 107.851562 460.066406 105.996094 C 459.296875 104.144531 458.914062 102.011719 458.914062 99.597656 C 458.914062 97.605469 459.421875 95.609375 460.433594 93.617188 C 461.445312 91.621094 463.175781 89.820312 465.621094 88.210938 C 468.101562 86.566406 471.386719 85.222656 475.476562 84.171875 C 479.597656 83.089844 484.75 82.476562 490.933594 82.335938 L 490.933594 79.554688 C 490.933594 76.164062 490.21875 73.679688 488.785156 72.105469 C 487.355469 70.496094 485.292969 69.691406 482.601562 69.691406 C 480.609375 69.691406 478.953125 69.9375 477.625 70.425781 C 476.296875 70.882812 475.125 71.386719 474.113281 71.949219 C 473.132812 72.472656 472.207031 72.980469 471.335938 73.46875 C 470.460938 73.925781 469.449219 74.152344 468.296875 74.152344 C 467.28125 74.152344 466.425781 73.90625 465.726562 73.417969 C 465.0625 72.890625 464.503906 72.28125 464.050781 71.582031 Z M 461.480469 66.964844 "/>
<path style=" stroke:none;fill-rule:nonzero;fill:rgb(35.294119%,37.64706%,44.705883%);fill-opacity:1;" d="M 547.824219 70.582031 C 547.4375 71.179688 547.035156 71.617188 546.617188 71.894531 C 546.234375 72.140625 545.691406 72.261719 544.992188 72.261719 C 544.292969 72.261719 543.578125 72.085938 542.84375 71.738281 C 542.109375 71.386719 541.289062 71.019531 540.382812 70.636719 C 539.472656 70.214844 538.425781 69.832031 537.234375 69.480469 C 536.082031 69.132812 534.738281 68.957031 533.199219 68.957031 C 530.859375 68.957031 529.042969 69.445312 527.75 70.425781 C 526.457031 71.371094 525.8125 72.628906 525.8125 74.203125 C 525.8125 75.289062 526.179688 76.199219 526.910156 76.933594 C 527.644531 77.667969 528.605469 78.3125 529.792969 78.875 C 531.015625 79.398438 532.398438 79.90625 533.933594 80.394531 C 535.472656 80.847656 537.042969 81.355469 538.652344 81.917969 C 540.292969 82.476562 541.882812 83.121094 543.421875 83.859375 C 544.957031 84.59375 546.320312 85.519531 547.507812 86.636719 C 548.730469 87.722656 549.710938 89.050781 550.445312 90.625 C 551.175781 92.164062 551.542969 94.035156 551.542969 96.238281 C 551.542969 98.863281 551.054688 101.292969 550.078125 103.53125 C 549.132812 105.734375 547.734375 107.640625 545.882812 109.25 C 544.03125 110.859375 541.726562 112.121094 538.964844 113.027344 C 536.207031 113.9375 533.027344 114.390625 529.425781 114.390625 C 527.574219 114.390625 525.742188 114.21875 523.925781 113.867188 C 522.105469 113.554688 520.378906 113.097656 518.734375 112.503906 C 517.09375 111.875 515.554688 111.15625 514.125 110.351562 C 512.691406 109.546875 511.449219 108.671875 510.402344 107.730469 L 513.757812 102.324219 C 514.140625 101.695312 514.613281 101.207031 515.171875 100.855469 C 515.765625 100.507812 516.515625 100.332031 517.425781 100.332031 C 518.300781 100.332031 519.101562 100.558594 519.835938 101.015625 C 520.570312 101.433594 521.390625 101.90625 522.300781 102.429688 C 523.207031 102.921875 524.273438 103.390625 525.496094 103.847656 C 526.753906 104.265625 528.308594 104.476562 530.160156 104.476562 C 531.558594 104.476562 532.765625 104.320312 533.777344 104.003906 C 534.789062 103.691406 535.613281 103.269531 536.242188 102.746094 C 536.871094 102.1875 537.324219 101.574219 537.601562 100.910156 C 537.917969 100.210938 538.074219 99.492188 538.074219 98.757812 C 538.074219 97.570312 537.691406 96.605469 536.921875 95.871094 C 536.1875 95.101562 535.210938 94.4375 533.988281 93.878906 C 532.796875 93.320312 531.417969 92.8125 529.847656 92.355469 C 528.273438 91.902344 526.667969 91.394531 525.023438 90.835938 C 523.417969 90.277344 521.828125 89.613281 520.253906 88.839844 C 518.71875 88.070312 517.339844 87.109375 516.117188 85.957031 C 514.925781 84.765625 513.949219 83.316406 513.179688 81.601562 C 512.445312 79.886719 512.078125 77.804688 512.078125 75.359375 C 512.078125 73.121094 512.515625 71.003906 513.390625 69.011719 C 514.261719 66.980469 515.574219 65.195312 517.320312 63.660156 C 519.066406 62.121094 521.234375 60.894531 523.820312 59.984375 C 526.441406 59.078125 529.460938 58.621094 532.886719 58.621094 C 536.730469 58.621094 540.222656 59.25 543.367188 60.511719 C 546.511719 61.769531 549.097656 63.414062 551.125 65.441406 Z M 547.824219 70.582031 "/>
<path style=" stroke:none;fill-rule:nonzero;fill:rgb(35.294119%,37.64706%,44.705883%);fill-opacity:1;" d="M 592.777344 80.132812 C 592.777344 78.628906 592.570312 77.195312 592.148438 75.832031 C 591.765625 74.464844 591.132812 73.257812 590.261719 72.210938 C 589.390625 71.160156 588.289062 70.339844 586.960938 69.746094 C 585.628906 69.113281 584.042969 68.800781 582.191406 68.800781 C 578.730469 68.800781 576.023438 69.78125 574.066406 71.738281 C 572.113281 73.695312 570.835938 76.496094 570.242188 80.132812 Z M 570.03125 88.738281 C 570.488281 93.808594 571.917969 97.515625 574.328125 99.859375 C 576.777344 102.203125 579.953125 103.375 583.867188 103.375 C 585.859375 103.375 587.574219 103.148438 589.003906 102.691406 C 590.472656 102.203125 591.75 101.679688 592.832031 101.117188 C 593.949219 100.523438 594.945312 100 595.816406 99.546875 C 596.726562 99.054688 597.617188 98.808594 598.488281 98.808594 C 599.605469 98.808594 600.484375 99.230469 601.109375 100.070312 L 605.304688 105.316406 C 603.769531 107.101562 602.070312 108.585938 600.222656 109.777344 C 598.371094 110.929688 596.445312 111.855469 594.453125 112.554688 C 592.464844 113.21875 590.453125 113.675781 588.429688 113.921875 C 586.402344 114.199219 584.445312 114.339844 582.558594 114.339844 C 578.785156 114.339844 575.253906 113.726562 571.972656 112.503906 C 568.722656 111.246094 565.875 109.410156 563.429688 106.996094 C 561.019531 104.546875 559.113281 101.519531 557.714844 97.917969 C 556.320312 94.316406 555.621094 90.136719 555.621094 85.378906 C 555.621094 81.707031 556.214844 78.242188 557.402344 74.992188 C 558.625 71.738281 560.371094 68.90625 562.644531 66.492188 C 564.914062 64.078125 567.675781 62.171875 570.921875 60.773438 C 574.171875 59.339844 577.839844 58.621094 581.929688 58.621094 C 585.386719 58.621094 588.570312 59.179688 591.46875 60.300781 C 594.402344 61.386719 596.917969 62.976562 599.015625 65.074219 C 601.144531 67.171875 602.785156 69.761719 603.9375 72.839844 C 605.128906 75.882812 605.726562 79.363281 605.726562 83.28125 C 605.726562 84.363281 605.671875 85.257812 605.566406 85.957031 C 605.460938 86.65625 605.285156 87.214844 605.039062 87.636719 C 604.800781 88.054688 604.464844 88.351562 604.042969 88.527344 C 603.628906 88.667969 603.085938 88.738281 602.421875 88.738281 Z M 570.03125 88.738281 "/>
<path style=" stroke:none;fill-rule:evenodd;fill:rgb(31.37255%,61.960787%,89.019608%);fill-opacity:1;" d="M 9.105469 44.578125 C 14.132812 44.578125 18.210938 40.5 18.210938 35.46875 C 18.210938 30.433594 14.132812 26.355469 9.105469 26.355469 C 4.078125 26.355469 0 30.433594 0 35.46875 C 0 40.5 4.078125 44.578125 9.105469 44.578125 Z M 9.105469 44.578125 "/>
<path style=" stroke:none;fill-rule:evenodd;fill:rgb(31.37255%,61.960787%,89.019608%);fill-opacity:1;" d="M 9.105469 70.933594 C 14.132812 70.933594 18.210938 66.855469 18.210938 61.820312 C 18.210938 56.789062 14.132812 52.710938 9.105469 52.710938 C 4.078125 52.710938 0 56.789062 0 61.820312 C 0 66.855469 4.078125 70.933594 9.105469 70.933594 Z M 9.105469 70.933594 "/>
<path style=" stroke:none;fill-rule:evenodd;fill:rgb(31.37255%,61.960787%,89.019608%);fill-opacity:1;" d="M 35.441406 70.933594 C 40.46875 70.933594 44.546875 66.855469 44.546875 61.820312 C 44.546875 56.789062 40.46875 52.710938 35.441406 52.710938 C 30.414062 52.710938 26.335938 56.789062 26.335938 61.820312 C 26.335938 66.855469 30.414062 70.933594 35.441406 70.933594 Z M 35.441406 70.933594 "/>
<path style=" stroke:none;fill-rule:evenodd;fill:rgb(31.37255%,61.960787%,89.019608%);fill-opacity:1;" d="M 114.449219 44.578125 C 119.476562 44.578125 123.554688 40.5 123.554688 35.46875 C 123.554688 30.433594 119.476562 26.355469 114.449219 26.355469 C 109.417969 26.355469 105.34375 30.433594 105.34375 35.46875 C 105.34375 40.5 109.417969 44.578125 114.449219 44.578125 Z M 114.449219 44.578125 "/>
<path style=" stroke:none;fill-rule:evenodd;fill:rgb(31.37255%,61.960787%,89.019608%);fill-opacity:1;" d="M 88.113281 70.933594 C 93.140625 70.933594 97.21875 66.855469 97.21875 61.820312 C 97.21875 56.789062 93.140625 52.710938 88.113281 52.710938 C 83.085938 52.710938 79.007812 56.789062 79.007812 61.820312 C 79.007812 66.855469 83.085938 70.933594 88.113281 70.933594 Z M 88.113281 70.933594 "/>
<path style=" stroke:none;fill-rule:evenodd;fill:rgb(31.37255%,61.960787%,89.019608%);fill-opacity:1;" d="M 61.777344 97.289062 C 66.804688 97.289062 70.882812 93.210938 70.882812 88.179688 C 70.882812 83.144531 66.804688 79.066406 61.777344 79.066406 C 56.75 79.066406 52.671875 83.144531 52.671875 88.179688 C 52.671875 93.210938 56.75 97.289062 61.777344 97.289062 Z M 61.777344 97.289062 "/>
<path style=" stroke:none;fill-rule:evenodd;fill:rgb(31.37255%,61.960787%,89.019608%);fill-opacity:1;" d="M 114.449219 70.933594 C 119.476562 70.933594 123.554688 66.855469 123.554688 61.820312 C 123.554688 56.789062 119.476562 52.710938 114.449219 52.710938 C 109.417969 52.710938 105.34375 56.789062 105.34375 61.820312 C 105.34375 66.855469 109.417969 70.933594 114.449219 70.933594 Z M 114.449219 70.933594 "/>
<path style=" stroke:none;fill-rule:evenodd;fill:rgb(31.37255%,61.960787%,89.019608%);fill-opacity:1;" d="M 9.105469 97.289062 C 14.132812 97.289062 18.210938 93.210938 18.210938 88.179688 C 18.210938 83.144531 14.132812 79.066406 9.105469 79.066406 C 4.078125 79.066406 0 83.144531 0 88.179688 C 0 93.210938 4.078125 97.289062 9.105469 97.289062 Z M 9.105469 97.289062 "/>
<path style=" stroke:none;fill-rule:evenodd;fill:rgb(31.37255%,61.960787%,89.019608%);fill-opacity:1;" d="M 114.449219 97.289062 C 119.476562 97.289062 123.554688 93.210938 123.554688 88.179688 C 123.554688 83.144531 119.476562 79.066406 114.449219 79.066406 C 109.417969 79.066406 105.34375 83.144531 105.34375 88.179688 C 105.34375 93.210938 109.417969 97.289062 114.449219 97.289062 Z M 114.449219 97.289062 "/>
<path style=" stroke:none;fill-rule:evenodd;fill:rgb(31.37255%,61.960787%,89.019608%);fill-opacity:1;" d="M 9.105469 123.644531 C 14.132812 123.644531 18.210938 119.566406 18.210938 114.53125 C 18.210938 109.5 14.132812 105.421875 9.105469 105.421875 C 4.078125 105.421875 0 109.5 0 114.53125 C 0 119.566406 4.078125 123.644531 9.105469 123.644531 Z M 9.105469 123.644531 "/>
<path style=" stroke:none;fill-rule:evenodd;fill:rgb(31.37255%,61.960787%,89.019608%);fill-opacity:1;" d="M 114.449219 123.644531 C 119.476562 123.644531 123.554688 119.566406 123.554688 114.53125 C 123.554688 109.5 119.476562 105.421875 114.449219 105.421875 C 109.417969 105.421875 105.34375 109.5 105.34375 114.53125 C 105.34375 119.566406 109.417969 123.644531 114.449219 123.644531 Z M 114.449219 123.644531 "/>
<path style=" stroke:none;fill-rule:evenodd;fill:rgb(76.078433%,85.490197%,94.117647%);fill-opacity:1;" d="M 35.441406 44.578125 C 40.46875 44.578125 44.546875 40.5 44.546875 35.46875 C 44.546875 30.433594 40.46875 26.355469 35.441406 26.355469 C 30.414062 26.355469 26.335938 30.433594 26.335938 35.46875 C 26.335938 40.5 30.414062 44.578125 35.441406 44.578125 Z M 35.441406 44.578125 "/>
<path style=" stroke:none;fill-rule:evenodd;fill:rgb(76.078433%,85.490197%,94.117647%);fill-opacity:1;" d="M 61.777344 44.578125 C 66.804688 44.578125 70.882812 40.5 70.882812 35.46875 C 70.882812 30.433594 66.804688 26.355469 61.777344 26.355469 C 56.75 26.355469 52.671875 30.433594 52.671875 35.46875 C 52.671875 40.5 56.75 44.578125 61.777344 44.578125 Z M 61.777344 44.578125 "/>
<path style=" stroke:none;fill-rule:evenodd;fill:rgb(76.078433%,85.490197%,94.117647%);fill-opacity:1;" d="M 61.777344 18.222656 C 66.804688 18.222656 70.882812 14.144531 70.882812 9.113281 C 70.882812 4.078125 66.804688 0 61.777344 0 C 56.75 0 52.671875 4.078125 52.671875 9.113281 C 52.671875 14.144531 56.75 18.222656 61.777344 18.222656 Z M 61.777344 18.222656 "/>
<path style=" stroke:none;fill-rule:evenodd;fill:rgb(76.078433%,85.490197%,94.117647%);fill-opacity:1;" d="M 61.777344 70.933594 C 66.804688 70.933594 70.882812 66.855469 70.882812 61.820312 C 70.882812 56.789062 66.804688 52.710938 61.777344 52.710938 C 56.75 52.710938 52.671875 56.789062 52.671875 61.820312 C 52.671875 66.855469 56.75 70.933594 61.777344 70.933594 Z M 61.777344 70.933594 "/>
<path style=" stroke:none;fill-rule:evenodd;fill:rgb(76.078433%,85.490197%,94.117647%);fill-opacity:1;" d="M 88.113281 44.578125 C 93.140625 44.578125 97.21875 40.5 97.21875 35.46875 C 97.21875 30.433594 93.140625 26.355469 88.113281 26.355469 C 83.085938 26.355469 79.007812 30.433594 79.007812 35.46875 C 79.007812 40.5 83.085938 44.578125 88.113281 44.578125 Z M 88.113281 44.578125 "/>
<path style=" stroke:none;fill-rule:evenodd;fill:rgb(76.078433%,85.490197%,94.117647%);fill-opacity:1;" d="M 35.441406 97.289062 C 40.46875 97.289062 44.546875 93.210938 44.546875 88.179688 C 44.546875 83.144531 40.46875 79.066406 35.441406 79.066406 C 30.414062 79.066406 26.335938 83.144531 26.335938 88.179688 C 26.335938 93.210938 30.414062 97.289062 35.441406 97.289062 Z M 35.441406 97.289062 "/>
<path style=" stroke:none;fill-rule:evenodd;fill:rgb(76.078433%,85.490197%,94.117647%);fill-opacity:1;" d="M 88.113281 97.289062 C 93.140625 97.289062 97.21875 93.210938 97.21875 88.179688 C 97.21875 83.144531 93.140625 79.066406 88.113281 79.066406 C 83.085938 79.066406 79.007812 83.144531 79.007812 88.179688 C 79.007812 93.210938 83.085938 97.289062 88.113281 97.289062 Z M 88.113281 97.289062 "/>
<path style=" stroke:none;fill-rule:evenodd;fill:rgb(76.078433%,85.490197%,94.117647%);fill-opacity:1;" d="M 35.441406 123.644531 C 40.46875 123.644531 44.546875 119.566406 44.546875 114.53125 C 44.546875 109.5 40.46875 105.421875 35.441406 105.421875 C 30.414062 105.421875 26.335938 109.5 26.335938 114.53125 C 26.335938 119.566406 30.414062 123.644531 35.441406 123.644531 Z M 35.441406 123.644531 "/>
<path style=" stroke:none;fill-rule:evenodd;fill:rgb(76.078433%,85.490197%,94.117647%);fill-opacity:1;" d="M 61.777344 123.644531 C 66.804688 123.644531 70.882812 119.566406 70.882812 114.53125 C 70.882812 109.5 66.804688 105.421875 61.777344 105.421875 C 56.75 105.421875 52.671875 109.5 52.671875 114.53125 C 52.671875 119.566406 56.75 123.644531 61.777344 123.644531 Z M 61.777344 123.644531 "/>
<path style=" stroke:none;fill-rule:evenodd;fill:rgb(76.078433%,85.490197%,94.117647%);fill-opacity:1;" d="M 61.777344 150 C 66.804688 150 70.882812 145.921875 70.882812 140.886719 C 70.882812 135.855469 66.804688 131.777344 61.777344 131.777344 C 56.75 131.777344 52.671875 135.855469 52.671875 140.886719 C 52.671875 145.921875 56.75 150 61.777344 150 Z M 61.777344 150 "/>
<path style=" stroke:none;fill-rule:evenodd;fill:rgb(76.078433%,85.490197%,94.117647%);fill-opacity:1;" d="M 88.113281 123.644531 C 93.140625 123.644531 97.21875 119.566406 97.21875 114.53125 C 97.21875 109.5 93.140625 105.421875 88.113281 105.421875 C 83.085938 105.421875 79.007812 109.5 79.007812 114.53125 C 79.007812 119.566406 83.085938 123.644531 88.113281 123.644531 Z M 88.113281 123.644531 "/>
</g>
</svg>
