<?xml version="1.0" encoding="UTF-8"?>
<svg xmlns="http://www.w3.org/2000/svg" xmlns:xlink="http://www.w3.org/1999/xlink" width="px" height="150px" viewBox="0 0 300 150" version="1.1">
<defs>
<linearGradient id="linear0" gradientUnits="userSpaceOnUse" x1="800.289978" y1="85.089996" x2="921.640015" y2="418.5" gradientTransform="matrix(0.3,0,0,0.3,0,0)">
<stop offset="0.01" style="stop-color:rgb(89.411765%,66.27451%,6.27451%);stop-opacity:1;"/>
<stop offset="0.32" style="stop-color:rgb(87.45098%,63.921569%,6.666667%);stop-opacity:1;"/>
<stop offset="0.63" style="stop-color:rgb(81.568627%,54.901961%,4.705882%);stop-opacity:1;"/>
<stop offset="1" style="stop-color:rgb(75.686275%,49.803922%,2.352941%);stop-opacity:1;"/>
</linearGradient>
<filter id="alpha" filterUnits="objectBoundingBox" x="0%" y="0%" width="100%" height="100%">
  <feColorMatrix type="matrix" in="SourceGraphic" values="0 0 0 0 1 0 0 0 0 1 0 0 0 0 1 0 0 0 1 0"/>
</filter>
<mask id="mask0">
  <g filter="url(#alpha)">
<rect x="0" y="0" width="300" height="150" style="fill:rgb(0%,0%,0%);fill-opacity:0.14902;stroke:none;"/>
  </g>
</mask>
<linearGradient id="linear1" gradientUnits="userSpaceOnUse" x1="836.159973" y1="454.559998" x2="836.159973" y2="147.270004" gradientTransform="matrix(0.3,0,0,0.3,0,0)">
<stop offset="0" style="stop-color:rgb(75.686275%,49.803922%,2.352941%);stop-opacity:1;"/>
<stop offset="0.22" style="stop-color:rgb(75.686275%,49.803922%,2.352941%);stop-opacity:0.988235;"/>
<stop offset="0.37" style="stop-color:rgb(76.078431%,50.196078%,2.352941%);stop-opacity:0.941176;"/>
<stop offset="0.5" style="stop-color:rgb(76.470588%,50.588235%,2.745098%);stop-opacity:0.858824;"/>
<stop offset="0.61" style="stop-color:rgb(77.254902%,50.980392%,2.745098%);stop-opacity:0.74902;"/>
<stop offset="0.72" style="stop-color:rgb(78.039216%,51.764706%,3.137255%);stop-opacity:0.611765;"/>
<stop offset="0.82" style="stop-color:rgb(79.215686%,52.54902%,3.529412%);stop-opacity:0.431373;"/>
<stop offset="0.91" style="stop-color:rgb(80.392157%,53.72549%,4.313725%);stop-opacity:0.219608;"/>
<stop offset="1" style="stop-color:rgb(81.568627%,54.901961%,4.705882%);stop-opacity:0;"/>
</linearGradient>
<clipPath id="clip1">
  <rect x="0" y="0" width="300" height="150"/>
</clipPath>
<g id="surface5" clip-path="url(#clip1)">
<path style=" stroke:none;fill-rule:nonzero;fill:url(#linear1);" d="M 252.433594 44.179688 L 243.335938 44.179688 L 243.335938 136.367188 L 258.355469 136.367188 L 258.355469 50.101562 C 258.355469 46.828125 255.703125 44.179688 252.433594 44.179688 Z M 252.433594 44.179688 "/>
</g>
<linearGradient id="linear2" gradientUnits="userSpaceOnUse" x1="730.330017" y1="145.899994" x2="820.890015" y2="461.700012" gradientTransform="matrix(0.3,0,0,0.3,0,0)">
<stop offset="0" style="stop-color:rgb(96.470588%,83.529412%,30.588235%);stop-opacity:1;"/>
<stop offset="0.31" style="stop-color:rgb(93.333333%,77.647059%,20.392157%);stop-opacity:1;"/>
<stop offset="0.57" style="stop-color:rgb(91.372549%,72.156863%,13.333333%);stop-opacity:1;"/>
<stop offset="1" style="stop-color:rgb(91.372549%,69.803922%,10.980392%);stop-opacity:1;"/>
</linearGradient>
<mask id="mask1">
  <g filter="url(#alpha)">
<rect x="0" y="0" width="300" height="150" style="fill:rgb(0%,0%,0%);fill-opacity:0.14902;stroke:none;"/>
  </g>
</mask>
<linearGradient id="linear3" gradientUnits="userSpaceOnUse" x1="739.570007" y1="454.559998" x2="739.570007" y2="248.960007" gradientTransform="matrix(0.3,0,0,0.3,0,0)">
<stop offset="0" style="stop-color:rgb(96.862745%,85.882353%,36.862745%);stop-opacity:1;"/>
<stop offset="0.2" style="stop-color:rgb(96.862745%,85.490196%,36.470588%);stop-opacity:0.988235;"/>
<stop offset="0.34" style="stop-color:rgb(96.078431%,84.313725%,35.294118%);stop-opacity:0.94902;"/>
<stop offset="0.45" style="stop-color:rgb(95.294118%,82.352941%,33.333333%);stop-opacity:0.890196;"/>
<stop offset="0.56" style="stop-color:rgb(93.72549%,80%,30.588235%);stop-opacity:0.8;"/>
<stop offset="0.66" style="stop-color:rgb(92.156863%,76.470588%,27.058824%);stop-opacity:0.690196;"/>
<stop offset="0.75" style="stop-color:rgb(90.196078%,72.156863%,22.352941%);stop-opacity:0.54902;"/>
<stop offset="0.84" style="stop-color:rgb(87.45098%,67.058824%,17.254902%);stop-opacity:0.388235;"/>
<stop offset="0.92" style="stop-color:rgb(84.705882%,61.176471%,11.372549%);stop-opacity:0.211765;"/>
<stop offset="1" style="stop-color:rgb(81.568627%,54.901961%,4.705882%);stop-opacity:0;"/>
</linearGradient>
<clipPath id="clip2">
  <rect x="0" y="0" width="300" height="150"/>
</clipPath>
<g id="surface8" clip-path="url(#clip2)">
<path style=" stroke:none;fill-rule:nonzero;fill:url(#linear3);" d="M 223.769531 74.699219 L 214.050781 74.699219 L 214.050781 136.378906 L 229.691406 136.378906 L 229.691406 80.613281 C 229.6875 77.347656 227.039062 74.699219 223.769531 74.699219 Z M 223.769531 74.699219 "/>
</g>
<linearGradient id="linear4" gradientUnits="userSpaceOnUse" x1="661.039978" y1="243.089996" x2="724.640015" y2="464.920013" gradientTransform="matrix(0.3,0,0,0.3,0,0)">
<stop offset="0" style="stop-color:rgb(97.254902%,89.019608%,52.54902%);stop-opacity:1;"/>
<stop offset="0.31" style="stop-color:rgb(96.470588%,86.27451%,39.607843%);stop-opacity:1;"/>
<stop offset="0.57" style="stop-color:rgb(96.862745%,85.882353%,36.862745%);stop-opacity:1;"/>
<stop offset="1" style="stop-color:rgb(98.039216%,84.705882%,34.901961%);stop-opacity:1;"/>
</linearGradient>
</defs>
<g id="surface1">
<path style=" stroke:none;fill-rule:nonzero;fill:url(#linear0);" d="M 273.316406 136.367188 L 238.714844 136.367188 L 238.714844 19.558594 C 238.714844 16.285156 241.367188 13.632812 244.640625 13.632812 L 273.316406 13.632812 C 276.589844 13.632812 279.242188 16.285156 279.242188 19.558594 L 279.242188 130.441406 C 279.242188 133.714844 276.589844 136.367188 273.316406 136.367188 Z M 273.316406 136.367188 "/>
<use xlink:href="#surface5" mask="url(#mask0)"/>
<path style=" stroke:none;fill-rule:nonzero;fill:url(#linear2);" d="M 253.738281 136.367188 L 212.589844 136.367188 L 212.589844 50.101562 C 212.589844 46.828125 215.242188 44.175781 218.515625 44.179688 L 247.816406 44.179688 C 251.085938 44.179688 253.738281 46.828125 253.738281 50.101562 Z M 253.738281 136.367188 "/>
<use xlink:href="#surface8" mask="url(#mask1)"/>
<path style=" stroke:none;fill-rule:nonzero;fill:url(#linear4);" d="M 228.234375 136.367188 L 193.007812 136.367188 C 189.734375 136.367188 187.085938 133.714844 187.085938 130.441406 L 187.085938 80.613281 C 187.089844 77.347656 189.742188 74.699219 193.007812 74.699219 L 222.300781 74.699219 C 225.574219 74.699219 228.226562 77.351562 228.226562 80.625 Z M 228.234375 136.367188 "/>
<path style=" stroke:none;fill-rule:nonzero;fill:rgb(79.215688%,49.803922%,5.098039%);fill-opacity:1;" d="M 21.664062 90.394531 C 21.148438 90.367188 20.75 89.933594 20.765625 89.414062 L 20.765625 61.960938 C 20.765625 60.988281 21.097656 60.429688 21.664062 60.429688 L 28.625 60.429688 C 32.335938 60.429688 35.660156 62.65625 36.902344 65.96875 C 37.894531 68.757812 37.460938 71.851562 35.738281 74.257812 C 34.101562 76.617188 31.570312 78.027344 28.972656 78.027344 L 22.621094 78.113281 L 22.621094 89.484375 C 22.605469 89.996094 22.179688 90.394531 21.667969 90.382812 Z M 22.621094 76.246094 L 28.972656 76.246094 C 32.449219 76.203125 35.613281 72.71875 35.613281 68.9375 C 35.609375 65.269531 32.636719 62.296875 28.972656 62.296875 L 22.621094 62.296875 Z M 22.621094 76.246094 "/>
<path style=" stroke:none;fill-rule:nonzero;fill:rgb(79.215688%,49.803922%,5.098039%);fill-opacity:1;" d="M 50.507812 91.019531 C 44.617188 91.019531 39.820312 85.953125 39.820312 79.726562 C 39.820312 73.496094 44.621094 68.433594 50.507812 68.433594 C 56.394531 68.433594 61.199219 73.5 61.199219 79.726562 C 61.199219 85.949219 56.398438 91.019531 50.507812 91.019531 Z M 50.507812 70.375 C 45.707031 70.375 41.808594 74.574219 41.808594 79.726562 C 41.808594 84.875 45.707031 89.023438 50.507812 89.023438 C 55.308594 89.023438 59.207031 84.851562 59.207031 79.726562 C 59.207031 74.597656 55.304688 70.375 50.507812 70.375 Z M 50.507812 70.375 "/>
<path style=" stroke:none;fill-rule:nonzero;fill:rgb(79.215688%,49.803922%,5.098039%);fill-opacity:1;" d="M 83.699219 91.019531 C 83.355469 90.976562 83.0625 90.746094 82.933594 90.421875 L 82.933594 90.386719 L 82.863281 90.316406 L 77.464844 72.6875 L 72.078125 90.300781 C 72.042969 90.335938 72.027344 90.386719 72.027344 90.433594 C 71.871094 90.773438 71.542969 90.996094 71.171875 91.011719 C 71.042969 91 70.914062 90.972656 70.789062 90.925781 C 70.738281 90.925781 70.6875 90.902344 70.65625 90.859375 C 70.449219 90.773438 70.289062 90.601562 70.214844 90.390625 L 64.308594 69.988281 C 64.109375 69.496094 64.324219 68.933594 64.800781 68.699219 C 64.917969 68.652344 65.039062 68.628906 65.164062 68.628906 C 65.5625 68.621094 65.921875 68.859375 66.066406 69.226562 L 71.109375 87.625 L 76.507812 70.015625 C 76.6875 69.636719 77.070312 69.394531 77.488281 69.394531 C 77.90625 69.394531 78.285156 69.636719 78.464844 70.015625 L 83.84375 87.601562 L 89.632812 69.226562 C 89.800781 68.863281 90.164062 68.628906 90.566406 68.628906 C 90.683594 68.628906 90.796875 68.652344 90.898438 68.699219 C 91.398438 68.910156 91.640625 69.480469 91.441406 69.984375 L 84.800781 90.300781 C 84.722656 90.5 84.59375 90.671875 84.421875 90.800781 C 84.289062 90.917969 84.117188 90.992188 83.941406 91.007812 Z M 83.699219 91.019531 "/>
<path style=" stroke:none;fill-rule:nonzero;fill:rgb(79.215688%,49.803922%,5.098039%);fill-opacity:1;" d="M 103.765625 91.019531 C 97.996094 91.019531 93.972656 86.394531 93.972656 79.773438 C 93.972656 72.988281 97.699219 68.476562 103.554688 68.433594 C 111.191406 68.371094 112.15625 73.753906 112.15625 78.933594 L 112.15625 79.109375 C 112.152344 79.363281 112.039062 79.601562 111.851562 79.769531 C 111.664062 79.941406 111.417969 80.027344 111.164062 80.011719 L 95.953125 80.011719 L 95.953125 80.140625 C 96.210938 85.609375 98.980469 88.761719 103.753906 89.019531 C 103.925781 89.019531 104.089844 89.035156 104.257812 89.035156 C 106.101562 89.0625 107.898438 88.46875 109.359375 87.34375 C 109.695312 86.992188 109.960938 86.828125 110.238281 86.828125 C 110.40625 86.84375 110.5625 86.902344 110.699219 87 C 111.167969 87.308594 111.3125 87.933594 111.027344 88.414062 C 110.078125 89.664062 107.667969 91.019531 103.765625 91.019531 Z M 103.625 70.417969 C 99.652344 70.417969 96.59375 72.585938 96.101562 77.917969 L 96.074219 78.066406 L 110.277344 78.066406 C 110.277344 74.753906 109.886719 70.417969 103.625 70.417969 Z M 103.625 70.417969 "/>
<path style=" stroke:none;fill-rule:nonzero;fill:rgb(79.215688%,49.803922%,5.098039%);fill-opacity:1;" d="M 118.753906 91.019531 C 118.480469 91.03125 118.21875 90.933594 118.019531 90.746094 C 117.824219 90.558594 117.710938 90.296875 117.710938 90.027344 L 117.710938 69.472656 C 117.710938 69.203125 117.824219 68.941406 118.019531 68.753906 C 118.214844 68.566406 118.480469 68.464844 118.753906 68.476562 C 119.289062 68.492188 119.710938 68.9375 119.699219 69.472656 L 119.699219 72.015625 L 119.9375 72.070312 C 121.4375 69.917969 123.894531 68.640625 126.515625 68.644531 C 127.078125 68.644531 127.867188 68.898438 127.867188 69.457031 C 127.867188 70.015625 127.671875 70.421875 126.667969 70.425781 C 123.75 70.441406 122.558594 71.269531 121.707031 72.160156 C 119.742188 74.214844 119.6875 77.480469 119.6875 77.515625 L 119.6875 90.027344 C 119.699219 90.558594 119.28125 91 118.753906 91.019531 Z M 118.753906 91.019531 "/>
<path style=" stroke:none;fill-rule:nonzero;fill:rgb(79.215688%,49.803922%,5.098039%);fill-opacity:1;" d="M 143.730469 90.394531 C 143.484375 90.402344 143.242188 90.308594 143.070312 90.132812 C 142.894531 89.957031 142.800781 89.71875 142.804688 89.472656 L 142.804688 60.996094 C 142.8125 60.488281 143.222656 60.078125 143.730469 60.070312 L 151.167969 60.070312 C 155.304688 60.085938 158.648438 63.453125 158.640625 67.589844 C 158.640625 69.867188 156.839844 72.691406 154.53125 74.046875 L 154.296875 74.183594 L 154.554688 74.273438 C 158.003906 75.453125 159.828125 78.050781 159.828125 81.773438 C 159.824219 86.527344 155.972656 90.378906 151.21875 90.382812 Z M 144.695312 88.507812 L 151.21875 88.507812 C 153 88.511719 154.710938 87.804688 155.972656 86.542969 C 157.234375 85.28125 157.941406 83.570312 157.9375 81.789062 C 157.894531 78.253906 155.070312 75.691406 151.21875 75.691406 L 144.695312 75.691406 Z M 144.695312 73.753906 L 150.542969 73.753906 C 153.617188 73.753906 156.75 70.644531 156.75 67.589844 C 156.757812 64.496094 154.261719 61.980469 151.167969 61.964844 L 144.695312 61.964844 Z M 144.695312 73.753906 "/>
<path style=" stroke:none;fill-rule:nonzero;fill:rgb(79.215688%,49.803922%,5.098039%);fill-opacity:1;" d="M 167.546875 90.394531 C 167.039062 90.390625 166.628906 89.980469 166.621094 89.472656 L 166.621094 60.996094 C 166.621094 60.472656 167.046875 60.050781 167.566406 60.050781 C 168.089844 60.050781 168.511719 60.472656 168.511719 60.996094 L 168.511719 89.472656 C 168.5 89.992188 168.070312 90.40625 167.546875 90.394531 Z M 167.546875 90.394531 "/>
</g>
</svg>
