<?xml version="1.0" encoding="UTF-8"?>
<svg xmlns="http://www.w3.org/2000/svg" xmlns:xlink="http://www.w3.org/1999/xlink" width="px" height="150px" viewBox="0 0 288 150" version="1.1">
<g id="surface1">
<path style=" stroke:none;fill-rule:nonzero;fill:rgb(0%,38.039216%,54.11765%);fill-opacity:1;" d="M 0 136.257812 L 9.488281 136.257812 L 9.488281 98.707031 L 24.175781 131.453125 C 25.910156 135.402344 28.28125 136.820312 32.933594 136.820312 C 37.585938 136.820312 39.867188 135.417969 41.601562 131.453125 L 56.292969 98.707031 L 56.292969 136.269531 L 65.78125 136.269531 L 65.78125 98.769531 C 65.78125 95.113281 64.320312 93.34375 61.308594 92.429688 C 54.101562 90.175781 49.265625 92.125 47.078125 97.003906 L 32.664062 129.320312 L 18.703125 96.988281 C 16.605469 92.109375 11.679688 90.160156 4.472656 92.414062 C 1.460938 93.332031 0 95.101562 0 98.757812 Z M 73.667969 105.683594 L 83.152344 105.683594 L 83.152344 126.378906 C 83.0625 127.503906 83.511719 130.144531 88.710938 130.222656 C 91.363281 130.265625 109.175781 130.222656 109.34375 130.222656 L 109.34375 105.582031 L 118.847656 105.582031 C 118.890625 105.582031 118.839844 139.183594 118.839844 139.324219 C 118.894531 147.613281 108.582031 149.414062 103.832031 149.550781 L 73.875 149.550781 L 73.875 143.152344 L 103.886719 143.152344 C 109.992188 142.503906 109.273438 139.460938 109.273438 138.4375 L 109.273438 135.941406 L 89.105469 135.941406 C 79.722656 135.855469 73.75 131.75 73.675781 127.027344 C 73.667969 126.605469 73.878906 105.886719 73.671875 105.683594 Z M 73.667969 105.683594 "/>
<path style=" stroke:none;fill-rule:nonzero;fill:rgb(89.411765%,55.686277%,0%);fill-opacity:1;" d="M 126.164062 136.257812 L 153.441406 136.257812 C 156.632812 136.257812 159.738281 135.585938 162.203125 134.425781 C 166.308594 132.539062 168.316406 129.976562 168.316406 126.621094 L 168.316406 119.671875 C 168.316406 116.925781 166.035156 114.367188 161.566406 112.660156 C 159.191406 111.742188 156.273438 111.257812 153.445312 111.257812 L 141.949219 111.257812 C 138.117188 111.257812 136.292969 110.097656 135.839844 107.539062 C 135.746094 107.234375 135.746094 106.972656 135.746094 106.683594 L 135.746094 102.355469 C 135.746094 102.113281 135.746094 101.867188 135.839844 101.5625 C 136.292969 99.609375 137.296875 99.0625 140.671875 98.742188 C 140.945312 98.742188 141.3125 98.679688 141.585938 98.679688 L 168.683594 98.679688 L 168.683594 92.339844 L 142.042969 92.339844 C 138.210938 92.339844 136.203125 92.585938 134.378906 93.132812 C 128.71875 94.902344 126.253906 97.722656 126.253906 102.601562 L 126.253906 108.148438 C 126.253906 112.417969 131.089844 116.074219 139.207031 116.929688 C 140.121094 116.988281 141.03125 117.050781 141.945312 117.050781 L 151.796875 117.050781 C 152.164062 117.050781 152.527344 117.050781 152.800781 117.113281 C 155.8125 117.355469 157.089844 117.90625 158.003906 119 C 158.566406 119.566406 158.734375 120.101562 158.734375 120.691406 L 158.734375 126.242188 C 158.734375 126.914062 158.277344 127.765625 157.363281 128.496094 C 156.542969 129.230469 155.175781 129.71875 153.351562 129.839844 C 152.984375 129.839844 152.710938 129.898438 152.347656 129.898438 L 126.164062 129.898438 Z M 227.503906 125.222656 C 227.503906 131.746094 232.335938 135.402344 242.101562 136.136719 C 243.011719 136.207031 243.921875 136.246094 244.835938 136.257812 L 269.5625 136.257812 L 269.5625 129.914062 L 244.652344 129.914062 C 239.089844 129.914062 236.988281 128.511719 236.988281 125.160156 L 236.988281 92.355469 L 227.5 92.355469 L 227.5 125.21875 Z M 174.367188 125.550781 L 174.367188 102.945312 C 174.367188 97.203125 178.390625 93.71875 186.34375 92.617188 C 187.191406 92.496094 188.046875 92.4375 188.90625 92.433594 L 206.914062 92.433594 C 207.800781 92.4375 208.6875 92.496094 209.566406 92.617188 C 217.519531 93.71875 221.542969 97.199219 221.542969 102.945312 L 221.542969 125.550781 C 221.542969 130.210938 219.832031 132.703125 215.894531 134.328125 L 225.242188 142.789062 L 214.226562 142.789062 L 206.664062 135.945312 L 199.050781 136.429688 L 188.90625 136.429688 C 187.167969 136.429688 185.339844 136.183594 183.328125 135.632812 C 177.28125 133.984375 174.371094 130.804688 174.371094 125.550781 Z M 184.609375 124.988281 C 184.609375 125.292969 184.699219 125.597656 184.792969 125.964844 C 185.355469 128.59375 187.808594 130.058594 191.542969 130.058594 L 200.164062 130.058594 L 192.246094 122.894531 L 203.261719 122.894531 L 210.152344 129.144531 C 211.425781 128.464844 212.261719 127.421875 212.542969 126.089844 C 212.636719 125.785156 212.636719 125.476562 212.636719 125.171875 L 212.636719 103.496094 C 212.636719 103.253906 212.636719 102.933594 212.542969 102.640625 C 211.980469 100.199219 209.527344 98.792969 205.871094 98.792969 L 191.558594 98.792969 C 187.339844 98.792969 184.613281 100.625 184.613281 103.496094 L 184.613281 125.003906 Z M 184.609375 124.988281 "/>
<path style=" stroke:none;fill-rule:nonzero;fill:rgb(0%,38.039216%,54.11765%);fill-opacity:1;" d="M 277.910156 81.832031 C 272.078125 81.675781 267.621094 82.21875 263.8125 83.828125 C 262.730469 84.285156 261.003906 84.296875 260.828125 85.660156 C 261.421875 86.28125 261.515625 87.214844 261.988281 87.984375 C 262.898438 89.460938 264.433594 91.4375 265.800781 92.472656 C 267.296875 93.605469 268.839844 94.816406 270.445312 95.800781 C 273.300781 97.546875 276.488281 98.542969 279.234375 100.289062 C 280.855469 101.320312 282.464844 102.617188 284.046875 103.78125 C 284.824219 104.355469 285.351562 105.25 286.367188 105.609375 L 286.367188 105.441406 C 285.832031 104.761719 285.695312 103.824219 285.207031 103.117188 L 283.050781 100.953125 C 280.941406 98.136719 278.265625 95.6875 275.421875 93.636719 C 273.152344 92.003906 268.074219 89.800781 267.128906 87.152344 L 266.960938 86.988281 C 268.570312 86.804688 270.453125 86.222656 271.941406 85.824219 C 274.433594 85.152344 276.664062 85.324219 279.238281 84.660156 L 282.722656 83.664062 L 282.722656 82.996094 C 281.421875 81.65625 280.492188 79.886719 279.074219 78.675781 C 275.359375 75.503906 271.304688 72.335938 267.132812 69.695312 C 264.820312 68.226562 261.960938 67.277344 259.503906 66.035156 C 258.679688 65.617188 257.230469 65.402344 256.6875 64.707031 C 255.398438 63.058594 254.695312 60.96875 253.703125 59.066406 C 251.621094 55.046875 249.574219 50.65625 247.730469 46.429688 C 246.472656 43.546875 245.648438 40.703125 244.082031 38.117188 C 236.550781 25.707031 228.445312 18.214844 215.890625 10.851562 C 213.21875 9.285156 210.003906 8.667969 206.601562 7.859375 L 201.128906 7.527344 C 200.015625 7.0625 198.855469 5.695312 197.808594 5.03125 C 193.652344 2.394531 182.980469 -3.332031 179.898438 4.183594 C 177.957031 8.941406 182.808594 13.578125 184.542969 15.992188 C 185.761719 17.683594 187.324219 19.574219 188.191406 21.476562 C 188.765625 22.726562 188.863281 23.980469 189.351562 25.300781 C 190.558594 28.542969 191.605469 32.101562 193.167969 35.109375 C 193.953125 36.632812 194.824219 38.238281 195.820312 39.601562 C 196.433594 40.4375 197.480469 40.804688 197.644531 42.09375 C 196.621094 43.53125 196.5625 45.761719 195.984375 47.582031 C 193.394531 55.777344 194.371094 65.957031 198.140625 72.023438 C 199.296875 73.882812 202.023438 77.875 205.769531 76.34375 C 209.046875 75.007812 208.300781 70.863281 209.253906 67.203125 C 209.464844 66.371094 209.335938 65.765625 209.75 65.207031 L 209.75 65.375 L 212.734375 71.359375 C 214.945312 74.925781 218.867188 78.652344 222.1875 81.167969 C 223.910156 82.472656 225.28125 84.730469 227.496094 85.492188 L 227.496094 85.324219 L 227.332031 85.324219 C 226.898438 84.648438 226.222656 84.371094 225.671875 83.832031 C 224.371094 82.554688 222.929688 80.96875 221.855469 79.507812 C 218.832031 75.394531 216.164062 70.894531 213.730469 66.207031 C 212.570312 63.96875 211.558594 61.503906 210.582031 59.226562 C 210.203125 58.347656 210.207031 57.019531 209.421875 56.566406 C 208.347656 58.234375 206.765625 59.582031 205.9375 61.554688 C 204.609375 64.703125 204.4375 68.542969 203.945312 72.527344 C 203.65625 72.632812 203.785156 72.558594 203.613281 72.691406 C 201.304688 72.132812 200.492188 69.75 199.636719 67.707031 C 197.464844 62.53125 197.0625 54.207031 198.972656 48.253906 C 199.464844 46.714844 201.699219 41.859375 200.796875 40.4375 C 200.363281 39.019531 198.9375 38.183594 198.140625 37.113281 C 197.15625 35.773438 196.171875 34.003906 195.488281 32.457031 C 193.710938 28.425781 192.882812 23.898438 191.011719 19.820312 C 190.117188 17.871094 188.605469 15.902344 187.363281 14.179688 C 185.988281 12.265625 184.449219 10.847656 183.382812 8.542969 C 183.003906 7.71875 182.488281 6.398438 183.050781 5.550781 C 183.160156 5.050781 183.550781 4.660156 184.046875 4.550781 C 185.007812 3.808594 187.6875 4.796875 188.691406 5.21875 C 191.347656 6.324219 193.570312 7.378906 195.824219 8.875 C 196.90625 9.582031 198 10.984375 199.304688 11.371094 L 200.796875 11.371094 C 203.128906 11.910156 205.746094 11.539062 207.925781 12.203125 C 211.78125 13.375 215.234375 15.207031 218.375 17.191406 C 227.933594 23.242188 235.746094 31.855469 241.09375 42.144531 C 241.957031 43.796875 242.328125 45.378906 243.085938 47.132812 C 244.613281 50.65625 246.539062 54.3125 248.058594 57.769531 C 249.578125 61.222656 251.054688 64.707031 253.199219 67.578125 C 254.328125 69.089844 258.683594 69.898438 260.664062 70.738281 C 262.050781 71.324219 264.324219 71.9375 265.640625 72.730469 C 268.148438 74.25 270.582031 76.058594 272.9375 77.722656 C 274.113281 78.554688 277.734375 80.378906 277.914062 81.878906 Z M 277.910156 81.832031 "/>
<path style=" stroke:none;fill-rule:evenodd;fill:rgb(0%,38.039216%,54.11765%);fill-opacity:1;" d="M 203.78125 18.488281 C 202.5625 18.46875 201.703125 18.621094 200.792969 18.824219 L 200.792969 18.988281 L 200.960938 18.988281 C 201.539062 20.183594 202.5625 20.953125 203.28125 21.980469 L 204.941406 25.472656 L 205.105469 25.304688 C 206.132812 24.582031 206.601562 23.417969 206.597656 21.648438 C 206.183594 21.214844 206.125 20.667969 205.765625 20.152344 C 205.292969 19.460938 204.359375 19.066406 203.777344 18.488281 Z M 203.78125 18.488281 "/>
<path style=" stroke:none;fill-rule:evenodd;fill:rgb(89.411765%,55.686277%,0%);fill-opacity:1;" d="M 274.015625 129.734375 C 274.015625 133.921875 277.316406 136.746094 281.007812 136.746094 C 284.699219 136.746094 288 133.921875 288 129.734375 C 288 125.546875 284.699219 122.726562 281.007812 122.726562 C 277.316406 122.726562 274.015625 125.546875 274.015625 129.734375 Z M 286.433594 129.734375 C 286.433594 132.914062 284.007812 135.285156 281.003906 135.285156 C 277.964844 135.285156 275.574219 132.914062 275.574219 129.734375 C 275.574219 126.558594 277.964844 124.183594 281.003906 124.183594 C 284.007812 124.183594 286.433594 126.558594 286.433594 129.734375 Z M 282.886719 133.734375 L 284.453125 133.734375 L 282.160156 130.222656 C 283.390625 130.09375 284.324219 129.492188 284.324219 128.035156 C 284.324219 126.40625 283.296875 125.738281 281.320312 125.738281 L 278.207031 125.738281 L 278.207031 133.738281 L 279.550781 133.738281 L 279.550781 130.28125 L 280.796875 130.28125 L 282.886719 133.738281 Z M 279.550781 129.15625 L 279.550781 126.855469 L 281.097656 126.855469 C 281.898438 126.855469 282.867188 127.007812 282.867188 127.941406 C 282.867188 129.0625 281.992188 129.15625 280.984375 129.15625 Z M 279.550781 129.15625 "/>
</g>
</svg>
