<?xml version="1.0" encoding="UTF-8"?>
<svg xmlns="http://www.w3.org/2000/svg" xmlns:xlink="http://www.w3.org/1999/xlink" width="298px" height="149px" viewBox="0 0 298 149" version="1.1">
<defs>
<linearGradient id="linear0" gradientUnits="userSpaceOnUse" x1="614" y1="401.049988" x2="690.099976" y2="401.049988" gradientTransform="matrix(0.18625,0,0,-0.18625,0,149)">
<stop offset="0" style="stop-color:rgb(79.215686%,29.803922%,15.686275%);stop-opacity:1;"/>
<stop offset="0.5" style="stop-color:rgb(77.254902%,25.098039%,11.764706%);stop-opacity:1;"/>
<stop offset="1" style="stop-color:rgb(71.372549%,18.431373%,7.843137%);stop-opacity:1;"/>
</linearGradient>
<linearGradient id="linear1" gradientUnits="userSpaceOnUse" x1="700.099976" y1="383.100006" x2="786.900024" y2="383.100006" gradientTransform="matrix(0.18625,0,0,-0.18625,0,149)">
<stop offset="0" style="stop-color:rgb(79.215686%,29.803922%,15.686275%);stop-opacity:1;"/>
<stop offset="0.5" style="stop-color:rgb(77.254902%,25.098039%,11.764706%);stop-opacity:1;"/>
<stop offset="1" style="stop-color:rgb(71.372549%,18.431373%,7.843137%);stop-opacity:1;"/>
</linearGradient>
<linearGradient id="linear2" gradientUnits="userSpaceOnUse" x1="795.799988" y1="383.149994" x2="925.099976" y2="383.149994" gradientTransform="matrix(0.18625,0,0,-0.18625,0,149)">
<stop offset="0" style="stop-color:rgb(79.215686%,29.803922%,15.686275%);stop-opacity:1;"/>
<stop offset="0.5" style="stop-color:rgb(77.254902%,25.098039%,11.764706%);stop-opacity:1;"/>
<stop offset="1" style="stop-color:rgb(71.372549%,18.431373%,7.843137%);stop-opacity:1;"/>
</linearGradient>
<linearGradient id="linear3" gradientUnits="userSpaceOnUse" x1="932.900024" y1="383.200012" x2="1011.299988" y2="383.200012" gradientTransform="matrix(0.18625,0,0,-0.18625,0,149)">
<stop offset="0" style="stop-color:rgb(79.215686%,29.803922%,15.686275%);stop-opacity:1;"/>
<stop offset="0.5" style="stop-color:rgb(77.254902%,25.098039%,11.764706%);stop-opacity:1;"/>
<stop offset="1" style="stop-color:rgb(71.372549%,18.431373%,7.843137%);stop-opacity:1;"/>
</linearGradient>
<linearGradient id="linear4" gradientUnits="userSpaceOnUse" x1="1030.400024" y1="384.200012" x2="1074.899902" y2="384.200012" gradientTransform="matrix(0.18625,0,0,-0.18625,0,149)">
<stop offset="0" style="stop-color:rgb(79.215686%,29.803922%,15.686275%);stop-opacity:1;"/>
<stop offset="0.5" style="stop-color:rgb(77.254902%,25.098039%,11.764706%);stop-opacity:1;"/>
<stop offset="1" style="stop-color:rgb(71.372549%,18.431373%,7.843137%);stop-opacity:1;"/>
</linearGradient>
<linearGradient id="linear5" gradientUnits="userSpaceOnUse" x1="1091.699829" y1="401.049988" x2="1167.799927" y2="401.049988" gradientTransform="matrix(0.18625,0,0,-0.18625,0,149)">
<stop offset="0" style="stop-color:rgb(79.215686%,29.803922%,15.686275%);stop-opacity:1;"/>
<stop offset="0.5" style="stop-color:rgb(77.254902%,25.098039%,11.764706%);stop-opacity:1;"/>
<stop offset="1" style="stop-color:rgb(71.372549%,18.431373%,7.843137%);stop-opacity:1;"/>
</linearGradient>
<linearGradient id="linear6" gradientUnits="userSpaceOnUse" x1="1177.800049" y1="383.100006" x2="1264.599976" y2="383.100006" gradientTransform="matrix(0.18625,0,0,-0.18625,0,149)">
<stop offset="0" style="stop-color:rgb(79.215686%,29.803922%,15.686275%);stop-opacity:1;"/>
<stop offset="0.5" style="stop-color:rgb(77.254902%,25.098039%,11.764706%);stop-opacity:1;"/>
<stop offset="1" style="stop-color:rgb(71.372549%,18.431373%,7.843137%);stop-opacity:1;"/>
</linearGradient>
<linearGradient id="linear7" gradientUnits="userSpaceOnUse" x1="1282.900024" y1="400.649994" x2="1302.906982" y2="400.649994" gradientTransform="matrix(0.18625,0,0,-0.18625,0,149)">
<stop offset="0" style="stop-color:rgb(79.215686%,29.803922%,15.686275%);stop-opacity:1;"/>
<stop offset="0.5" style="stop-color:rgb(77.254902%,25.098039%,11.764706%);stop-opacity:1;"/>
<stop offset="1" style="stop-color:rgb(71.372549%,18.431373%,7.843137%);stop-opacity:1;"/>
</linearGradient>
<linearGradient id="linear8" gradientUnits="userSpaceOnUse" x1="1327.200073" y1="384.049988" x2="1403.60022" y2="384.049988" gradientTransform="matrix(0.18625,0,0,-0.18625,0,149)">
<stop offset="0" style="stop-color:rgb(79.215686%,29.803922%,15.686275%);stop-opacity:1;"/>
<stop offset="0.5" style="stop-color:rgb(77.254902%,25.098039%,11.764706%);stop-opacity:1;"/>
<stop offset="1" style="stop-color:rgb(71.372549%,18.431373%,7.843137%);stop-opacity:1;"/>
</linearGradient>
<linearGradient id="linear9" gradientUnits="userSpaceOnUse" x1="1418.899902" y1="394.950012" x2="1471.5" y2="394.950012" gradientTransform="matrix(0.18625,0,0,-0.18625,0,149)">
<stop offset="0" style="stop-color:rgb(79.215686%,29.803922%,15.686275%);stop-opacity:1;"/>
<stop offset="0.5" style="stop-color:rgb(77.254902%,25.098039%,11.764706%);stop-opacity:1;"/>
<stop offset="1" style="stop-color:rgb(71.372549%,18.431373%,7.843137%);stop-opacity:1;"/>
</linearGradient>
<filter id="alpha" filterUnits="objectBoundingBox" x="0%" y="0%" width="100%" height="100%">
  <feColorMatrix type="matrix" in="SourceGraphic" values="0 0 0 0 1 0 0 0 0 1 0 0 0 0 1 0 0 0 1 0"/>
</filter>
<mask id="mask0">
  <g filter="url(#alpha)">
<rect x="0" y="0" width="298" height="149" style="fill:rgb(0%,0%,0%);fill-opacity:0.101961;stroke:none;"/>
  </g>
</mask>
<clipPath id="clip1">
  <rect x="0" y="0" width="298" height="149"/>
</clipPath>
<g id="surface5" clip-path="url(#clip1)">
<path style=" stroke:none;fill-rule:nonzero;fill:rgb(0%,0%,0%);fill-opacity:1;" d="M 60.140625 57.53125 L 60.140625 92.9375 C 60.140625 94.167969 59.394531 95.265625 58.242188 95.75 C 57.886719 95.898438 57.496094 95.976562 57.105469 95.976562 L 33.132812 95.976562 C 32.667969 95.433594 32.222656 94.875 31.8125 94.316406 C 27.582031 88.671875 25.292969 81.820312 25.3125 74.761719 L 25.3125 74.035156 C 25.292969 67.683594 27.15625 61.460938 30.65625 56.15625 C 31.027344 55.59375 31.402344 55.019531 31.8125 54.496094 L 57.121094 54.496094 C 58.78125 54.515625 60.140625 55.855469 60.140625 57.53125 Z M 60.140625 57.53125 "/>
</g>
<mask id="mask1">
  <g filter="url(#alpha)">
<rect x="0" y="0" width="298" height="149" style="fill:rgb(0%,0%,0%);fill-opacity:0.2;stroke:none;"/>
  </g>
</mask>
<clipPath id="clip2">
  <rect x="0" y="0" width="298" height="149"/>
</clipPath>
<g id="surface8" clip-path="url(#clip2)">
<path style=" stroke:none;fill-rule:nonzero;fill:rgb(0%,0%,0%);fill-opacity:1;" d="M 58.484375 59.191406 L 58.484375 94.597656 C 58.484375 94.988281 58.40625 95.378906 58.257812 95.734375 C 57.792969 96.867188 56.675781 97.613281 55.445312 97.632812 L 34.640625 97.632812 C 34.121094 97.09375 33.617188 96.550781 33.132812 95.976562 C 32.667969 95.433594 32.222656 94.875 31.8125 94.316406 C 27.582031 88.671875 25.292969 81.820312 25.3125 74.761719 L 25.3125 74.035156 C 25.292969 67.683594 27.15625 61.460938 30.65625 56.15625 L 55.464844 56.15625 C 57.121094 56.171875 58.464844 57.515625 58.484375 59.191406 Z M 58.484375 59.191406 "/>
</g>
<mask id="mask2">
  <g filter="url(#alpha)">
<rect x="0" y="0" width="298" height="149" style="fill:rgb(0%,0%,0%);fill-opacity:0.2;stroke:none;"/>
  </g>
</mask>
<clipPath id="clip3">
  <rect x="0" y="0" width="298" height="149"/>
</clipPath>
<g id="surface11" clip-path="url(#clip3)">
<path style=" stroke:none;fill-rule:nonzero;fill:rgb(0%,0%,0%);fill-opacity:1;" d="M 58.484375 59.191406 L 58.484375 91.28125 C 58.464844 92.957031 57.121094 94.296875 55.445312 94.316406 L 31.792969 94.316406 C 27.566406 88.671875 25.273438 81.820312 25.292969 74.761719 L 25.292969 74.035156 C 25.273438 67.683594 27.136719 61.460938 30.636719 56.15625 L 55.445312 56.15625 C 57.121094 56.171875 58.464844 57.515625 58.484375 59.191406 Z M 58.484375 59.191406 "/>
</g>
<mask id="mask3">
  <g filter="url(#alpha)">
<rect x="0" y="0" width="298" height="149" style="fill:rgb(0%,0%,0%);fill-opacity:0.2;stroke:none;"/>
  </g>
</mask>
<clipPath id="clip4">
  <rect x="0" y="0" width="298" height="149"/>
</clipPath>
<g id="surface14" clip-path="url(#clip4)">
<path style=" stroke:none;fill-rule:nonzero;fill:rgb(0%,0%,0%);fill-opacity:1;" d="M 56.824219 59.191406 L 56.824219 91.28125 C 56.804688 92.957031 55.464844 94.296875 53.789062 94.316406 L 31.8125 94.316406 C 27.582031 88.671875 25.292969 81.820312 25.3125 74.761719 L 25.3125 74.035156 C 25.292969 67.683594 27.15625 61.460938 30.65625 56.15625 L 53.808594 56.15625 C 55.464844 56.171875 56.804688 57.515625 56.824219 59.191406 Z M 56.824219 59.191406 "/>
</g>
<linearGradient id="linear10" gradientUnits="userSpaceOnUse" x1="143.128204" y1="1507.259888" x2="270.971802" y2="1285.840088" gradientTransform="matrix(0.18625,0,0,-0.18625,0,334.505)">
<stop offset="0" style="stop-color:rgb(79.215686%,29.803922%,15.686275%);stop-opacity:1;"/>
<stop offset="0.5" style="stop-color:rgb(77.254902%,25.098039%,11.764706%);stop-opacity:1;"/>
<stop offset="1" style="stop-color:rgb(71.372549%,18.431373%,7.843137%);stop-opacity:1;"/>
</linearGradient>
</defs>
<g id="surface1">
<path style=" stroke:none;fill-rule:nonzero;fill:url(#linear0);" d="M 114.359375 63.140625 C 115.792969 62.898438 117.671875 62.691406 120.058594 62.691406 C 123 62.691406 125.140625 63.382812 126.519531 64.609375 C 127.785156 65.710938 128.53125 67.386719 128.53125 69.433594 C 128.53125 71.519531 127.917969 73.160156 126.761719 74.351562 C 125.195312 76.027344 122.628906 76.882812 119.722656 76.882812 C 118.828125 76.882812 118.007812 76.847656 117.335938 76.679688 L 117.335938 85.898438 L 114.359375 85.898438 Z M 117.335938 74.277344 C 117.988281 74.445312 118.808594 74.519531 119.796875 74.519531 C 123.390625 74.519531 125.570312 72.769531 125.570312 69.601562 C 125.570312 66.566406 123.410156 65.09375 120.132812 65.09375 C 118.828125 65.09375 117.839844 65.207031 117.335938 65.335938 Z M 117.335938 74.277344 "/>
<path style=" stroke:none;fill-rule:nonzero;fill:url(#linear1);" d="M 146.558594 77.5 C 146.558594 83.609375 142.3125 86.289062 138.328125 86.289062 C 133.859375 86.289062 130.394531 83.011719 130.394531 77.777344 C 130.394531 72.246094 134.027344 68.988281 138.589844 68.988281 C 143.339844 69.003906 146.558594 72.453125 146.558594 77.5 Z M 133.429688 77.667969 C 133.429688 81.296875 135.515625 84.015625 138.457031 84.015625 C 141.328125 84.015625 143.488281 81.316406 143.488281 77.589844 C 143.488281 74.796875 142.089844 71.242188 138.53125 71.242188 C 134.976562 71.242188 133.429688 74.519531 133.429688 77.667969 Z M 133.429688 77.667969 "/>
<path style=" stroke:none;fill-rule:nonzero;fill:url(#linear2);" d="M 151.308594 69.378906 L 153.488281 77.777344 C 153.972656 79.621094 154.417969 81.335938 154.71875 83.050781 L 154.828125 83.050781 C 155.203125 81.371094 155.761719 79.601562 156.300781 77.816406 L 159 69.378906 L 161.535156 69.378906 L 164.105469 77.648438 C 164.71875 79.621094 165.203125 81.371094 165.578125 83.050781 L 165.6875 83.050781 C 165.96875 81.371094 166.414062 79.621094 166.953125 77.683594 L 169.320312 69.378906 L 172.300781 69.378906 L 166.9375 85.917969 L 164.199219 85.917969 L 161.664062 78.019531 C 161.085938 76.175781 160.601562 74.539062 160.195312 72.582031 L 160.117188 72.582031 C 159.710938 74.554688 159.1875 76.269531 158.609375 78.058594 L 155.945312 85.917969 L 153.210938 85.917969 L 148.21875 69.378906 Z M 151.308594 69.378906 "/>
<path style=" stroke:none;fill-rule:nonzero;fill:url(#linear3);" d="M 176.601562 78.207031 C 176.675781 82.265625 179.265625 83.941406 182.28125 83.941406 C 184.445312 83.941406 185.726562 83.570312 186.863281 83.085938 L 187.386719 85.246094 C 186.324219 85.730469 184.519531 86.269531 181.890625 86.269531 C 176.808594 86.269531 173.753906 82.917969 173.753906 77.925781 C 173.753906 72.933594 176.695312 69.003906 181.519531 69.003906 C 186.921875 69.003906 188.355469 73.753906 188.355469 76.789062 C 188.355469 77.40625 188.28125 77.890625 188.242188 78.1875 L 176.601562 78.1875 Z M 185.410156 76.027344 C 185.449219 74.109375 184.628906 71.148438 181.238281 71.148438 C 178.203125 71.148438 176.863281 73.941406 176.621094 76.027344 Z M 185.410156 76.027344 "/>
<path style=" stroke:none;fill-rule:nonzero;fill:url(#linear4);" d="M 192.042969 74.519531 C 192.042969 72.5625 192.003906 70.886719 191.910156 69.359375 L 194.539062 69.359375 L 194.632812 72.601562 L 194.761719 72.601562 C 195.507812 70.382812 197.332031 68.96875 199.34375 68.96875 C 199.679688 68.96875 199.921875 69.003906 200.199219 69.082031 L 200.199219 71.929688 C 199.882812 71.855469 199.585938 71.816406 199.175781 71.816406 C 197.050781 71.816406 195.542969 73.417969 195.132812 75.671875 C 195.058594 76.082031 195.003906 76.566406 195.003906 77.070312 L 195.003906 85.898438 L 192.023438 85.898438 Z M 192.042969 74.519531 "/>
<path style=" stroke:none;fill-rule:nonzero;fill:url(#linear5);" d="M 203.328125 63.140625 C 204.761719 62.898438 206.644531 62.691406 209.027344 62.691406 C 211.972656 62.691406 214.113281 63.382812 215.492188 64.609375 C 216.757812 65.710938 217.503906 67.386719 217.503906 69.433594 C 217.503906 71.519531 216.886719 73.160156 215.734375 74.351562 C 214.167969 76.027344 211.597656 76.882812 208.691406 76.882812 C 207.800781 76.882812 206.980469 76.847656 206.308594 76.679688 L 206.308594 85.898438 L 203.328125 85.898438 Z M 206.308594 74.277344 C 206.960938 74.445312 207.78125 74.519531 208.769531 74.519531 C 212.363281 74.519531 214.542969 72.769531 214.542969 69.601562 C 214.542969 66.566406 212.382812 65.09375 209.101562 65.09375 C 207.800781 65.09375 206.8125 65.207031 206.308594 65.335938 Z M 206.308594 74.277344 "/>
<path style=" stroke:none;fill-rule:nonzero;fill:url(#linear6);" d="M 235.53125 77.5 C 235.53125 83.609375 231.285156 86.289062 227.300781 86.289062 C 222.828125 86.289062 219.367188 83.011719 219.367188 77.777344 C 219.367188 72.246094 222.996094 68.988281 227.558594 68.988281 C 232.308594 69.003906 235.53125 72.453125 235.53125 77.5 Z M 222.402344 77.667969 C 222.402344 81.296875 224.488281 84.015625 227.429688 84.015625 C 230.296875 84.015625 232.457031 81.316406 232.457031 77.589844 C 232.457031 74.796875 231.0625 71.242188 227.503906 71.242188 C 223.929688 71.242188 222.402344 74.519531 222.402344 77.667969 Z M 222.402344 77.667969 "/>
<path style=" stroke:none;fill-rule:nonzero;fill:url(#linear7);" d="M 242.664062 64.722656 C 242.703125 65.746094 241.9375 66.566406 240.746094 66.566406 C 239.683594 66.566406 238.941406 65.746094 238.941406 64.722656 C 238.941406 63.660156 239.722656 62.839844 240.820312 62.839844 C 241.957031 62.839844 242.664062 63.679688 242.664062 64.722656 Z M 239.3125 85.898438 L 239.3125 69.359375 L 242.3125 69.359375 L 242.3125 85.898438 Z M 239.3125 85.898438 "/>
<path style=" stroke:none;fill-rule:nonzero;fill:url(#linear8);" d="M 247.320312 73.847656 C 247.320312 72.132812 247.285156 70.738281 247.191406 69.378906 L 249.855469 69.378906 L 250.023438 72.117188 L 250.097656 72.117188 C 250.914062 70.550781 252.835938 69.003906 255.570312 69.003906 C 257.863281 69.003906 261.421875 70.367188 261.421875 76.046875 L 261.421875 85.917969 L 258.421875 85.917969 L 258.421875 76.382812 C 258.421875 73.71875 257.433594 71.5 254.585938 71.5 C 252.609375 71.5 251.066406 72.898438 250.542969 74.574219 C 250.414062 74.945312 250.339844 75.46875 250.339844 75.972656 L 250.339844 85.898438 L 247.339844 85.898438 Z M 247.320312 73.847656 "/>
<path style=" stroke:none;fill-rule:nonzero;fill:url(#linear9);" d="M 269.765625 64.609375 L 269.765625 69.359375 L 274.066406 69.359375 L 274.066406 71.648438 L 269.765625 71.648438 L 269.765625 80.570312 C 269.765625 82.621094 270.34375 83.792969 272.019531 83.792969 C 272.800781 83.792969 273.378906 83.683594 273.769531 83.589844 L 273.898438 85.84375 C 273.320312 86.085938 272.390625 86.253906 271.234375 86.253906 C 269.839844 86.253906 268.703125 85.804688 267.996094 84.984375 C 267.136719 84.09375 266.839844 82.621094 266.839844 80.683594 L 266.839844 71.667969 L 264.269531 71.667969 L 264.269531 69.378906 L 266.839844 69.378906 L 266.839844 65.410156 Z M 269.765625 64.609375 "/>
<path style=" stroke:none;fill-rule:nonzero;fill:rgb(92.941177%,42.352942%,27.843139%);fill-opacity:1;" d="M 63.457031 77.722656 L 58.484375 41.21875 L 58.109375 41.21875 C 40.007812 41.273438 25.347656 55.929688 25.292969 74.035156 L 25.292969 74.40625 Z M 63.457031 77.722656 "/>
<path style=" stroke:none;fill-rule:nonzero;fill:rgb(100%,56.078434%,41.960785%);fill-opacity:1;" d="M 58.855469 41.21875 L 58.484375 41.21875 L 58.484375 74.40625 L 75.078125 81.039062 L 91.671875 74.40625 L 91.671875 74.035156 C 91.617188 55.929688 76.957031 41.273438 58.855469 41.21875 Z M 58.855469 41.21875 "/>
<path style=" stroke:none;fill-rule:nonzero;fill:rgb(82.745099%,32.156864%,18.82353%);fill-opacity:1;" d="M 91.671875 74.40625 L 91.671875 74.78125 C 91.617188 92.882812 76.957031 107.539062 58.855469 107.597656 L 58.128906 107.597656 C 40.023438 107.539062 25.367188 92.882812 25.3125 74.78125 L 25.3125 74.40625 Z M 91.671875 74.40625 "/>
<use xlink:href="#surface5" mask="url(#mask0)"/>
<use xlink:href="#surface8" mask="url(#mask1)"/>
<use xlink:href="#surface11" mask="url(#mask2)"/>
<use xlink:href="#surface14" mask="url(#mask3)"/>
<path style=" stroke:none;fill-rule:nonzero;fill:url(#linear10);" d="M 23.355469 56.15625 L 53.769531 56.15625 C 55.445312 56.15625 56.804688 57.515625 56.804688 59.191406 L 56.804688 89.605469 C 56.804688 91.28125 55.445312 92.640625 53.769531 92.640625 L 23.355469 92.640625 C 21.679688 92.640625 20.320312 91.28125 20.320312 89.605469 L 20.320312 59.191406 C 20.320312 57.515625 21.679688 56.15625 23.355469 56.15625 Z M 23.355469 56.15625 "/>
<path style=" stroke:none;fill-rule:nonzero;fill:rgb(100%,100%,100%);fill-opacity:1;" d="M 38.90625 64.273438 C 40.882812 64.144531 42.855469 64.722656 44.4375 65.894531 C 45.761719 67.085938 46.488281 68.820312 46.375 70.589844 C 46.394531 71.816406 46.058594 73.046875 45.425781 74.109375 C 44.773438 75.152344 43.84375 75.972656 42.726562 76.492188 C 41.460938 77.089844 40.0625 77.367188 38.664062 77.351562 L 34.808594 77.351562 L 34.808594 84.5 L 30.863281 84.5 L 30.863281 64.273438 Z M 34.808594 74.257812 L 38.199219 74.257812 C 39.28125 74.332031 40.339844 74.015625 41.199219 73.363281 C 41.90625 72.695312 42.277344 71.726562 42.203125 70.757812 C 42.203125 68.519531 40.902344 67.402344 38.3125 67.402344 L 34.792969 67.402344 Z M 34.808594 74.257812 "/>
</g>
</svg>
