<?xml version="1.0" encoding="UTF-8"?> <svg xmlns="http://www.w3.org/2000/svg" xmlns:xlink="http://www.w3.org/1999/xlink" version="1.1" id="Layer_1" x="0px" y="0px" viewBox="0 0 1600 800" style="enable-background:new 0 0 1600 800;" xml:space="preserve"> <style type="text/css"> .st0{fill:url(#SVGID_1_);} .st1{fill:url(#SVGID_00000127756528755543990580000005205204260969829546_);} .st2{fill:url(#SVGID_00000057833438961178075250000016753190884335260049_);} .st3{fill:url(#SVGID_00000143575594636697394970000015595533272657705663_);} .st4{fill:url(#SVGID_00000120540993387690687400000018042084465207530158_);} .st5{fill:url(#SVGID_00000170961423220081538840000001042576560037157266_);} .st6{fill:url(#SVGID_00000142169361769585572300000000950468586649863592_);} .st7{fill:url(#SVGID_00000059310700043698440380000014037055818725781423_);} .st8{fill:url(#SVGID_00000058578965264742122780000009791374340474402235_);} .st9{fill:url(#SVGID_00000127026575983643181770000005679126410204493974_);} .st10{fill:#ED6C47;} .st11{fill:#FF8F6B;} .st12{fill:#D35230;} .st13{opacity:0.1;enable-background:new ;} .st14{opacity:0.2;enable-background:new ;} .st15{fill:url(#SVGID_00000129174709868506922390000017735100647976322469_);} .st16{fill:#FFFFFF;} </style> <g> <linearGradient id="SVGID_1_" gradientUnits="userSpaceOnUse" x1="614" y1="401.05" x2="690.1" y2="401.05" gradientTransform="matrix(1 0 0 -1 0 800)"> <stop offset="0" style="stop-color:#CA4C28"></stop> <stop offset="0.5" style="stop-color:#C5401E"></stop> <stop offset="1" style="stop-color:#B62F14"></stop> </linearGradient> <path class="st0" d="M614,339c7.7-1.3,17.8-2.4,30.6-2.4c15.8,0,27.3,3.7,34.7,10.3c6.8,5.9,10.8,14.9,10.8,25.9 c0,11.2-3.3,20-9.5,26.4c-8.4,9-22.2,13.6-37.8,13.6c-4.8,0-9.2-0.2-12.8-1.1v49.5h-16V339z M630,398.8c3.5,0.9,7.9,1.3,13.2,1.3 c19.3,0,31-9.4,31-26.4c0-16.3-11.6-24.2-29.2-24.2c-7,0-12.3,0.6-15,1.3V398.8z"></path> <linearGradient id="SVGID_00000132084429480052013600000000398238830379788203_" gradientUnits="userSpaceOnUse" x1="700.1" y1="383.1" x2="786.9" y2="383.1" gradientTransform="matrix(1 0 0 -1 0 800)"> <stop offset="0" style="stop-color:#CA4C28"></stop> <stop offset="0.5" style="stop-color:#C5401E"></stop> <stop offset="1" style="stop-color:#B62F14"></stop> </linearGradient> <path style="fill:url(#SVGID_00000132084429480052013600000000398238830379788203_);" d="M786.9,416.1c0,32.8-22.8,47.2-44.2,47.2 c-24,0-42.6-17.6-42.6-45.7c0-29.7,19.5-47.2,44-47.2C769.6,370.5,786.9,389,786.9,416.1z M716.4,417c0,19.5,11.2,34.1,27,34.1 c15.4,0,27-14.5,27-34.5c0-15-7.5-34.1-26.6-34.1C724.7,382.5,716.4,400.1,716.4,417z"></path> <linearGradient id="SVGID_00000054969763794812792180000002783917566440799372_" gradientUnits="userSpaceOnUse" x1="795.8" y1="383.15" x2="925.1" y2="383.15" gradientTransform="matrix(1 0 0 -1 0 800)"> <stop offset="0" style="stop-color:#CA4C28"></stop> <stop offset="0.5" style="stop-color:#C5401E"></stop> <stop offset="1" style="stop-color:#B62F14"></stop> </linearGradient> <path style="fill:url(#SVGID_00000054969763794812792180000002783917566440799372_);" d="M812.4,372.5l11.7,45.1 c2.6,9.9,5,19.1,6.6,28.3h0.6c2-9,5-18.5,7.9-28.1l14.5-45.3h13.6l13.8,44.4c3.3,10.6,5.9,20,7.9,29h0.6c1.5-9,3.9-18.4,6.8-28.8 l12.7-44.6h16l-28.8,88.8h-14.7L868,418.9c-3.1-9.9-5.7-18.7-7.9-29.2h-0.4c-2.2,10.6-5,19.8-8.1,29.4l-14.3,42.2h-14.7l-26.8-88.8 H812.4z"></path> <linearGradient id="SVGID_00000036222910718847775870000006362606786480565437_" gradientUnits="userSpaceOnUse" x1="932.9" y1="383.2" x2="1011.3" y2="383.2" gradientTransform="matrix(1 0 0 -1 0 800)"> <stop offset="0" style="stop-color:#CA4C28"></stop> <stop offset="0.5" style="stop-color:#C5401E"></stop> <stop offset="1" style="stop-color:#B62F14"></stop> </linearGradient> <path style="fill:url(#SVGID_00000036222910718847775870000006362606786480565437_);" d="M948.2,419.9 c0.4,21.8,14.3,30.8,30.5,30.8c11.6,0,18.5-2,24.6-4.6l2.8,11.6c-5.7,2.6-15.4,5.5-29.5,5.5c-27.3,0-43.7-18-43.7-44.8 s15.8-47.9,41.7-47.9c29,0,36.7,25.5,36.7,41.8c0,3.3-0.4,5.9-0.6,7.5h-62.5V419.9z M995.5,408.2c0.2-10.3-4.2-26.2-22.4-26.2 c-16.3,0-23.5,15-24.8,26.2H995.5z"></path> <linearGradient id="SVGID_00000046307568807271254220000003469888113162864049_" gradientUnits="userSpaceOnUse" x1="1030.4" y1="384.2" x2="1074.8999" y2="384.2" gradientTransform="matrix(1 0 0 -1 0 800)"> <stop offset="0" style="stop-color:#CA4C28"></stop> <stop offset="0.5" style="stop-color:#C5401E"></stop> <stop offset="1" style="stop-color:#B62F14"></stop> </linearGradient> <path style="fill:url(#SVGID_00000046307568807271254220000003469888113162864049_);" d="M1031.1,400.1c0-10.5-0.2-19.5-0.7-27.7 h14.1l0.5,17.4h0.7c4-11.9,13.8-19.5,24.6-19.5c1.8,0,3.1,0.2,4.6,0.6v15.3c-1.7-0.4-3.3-0.6-5.5-0.6c-11.4,0-19.5,8.6-21.7,20.7 c-0.4,2.2-0.7,4.8-0.7,7.5v47.4h-16L1031.1,400.1L1031.1,400.1z"></path> <linearGradient id="SVGID_00000037655441840459684310000001057372436394227596_" gradientUnits="userSpaceOnUse" x1="1091.6998" y1="401.05" x2="1167.7999" y2="401.05" gradientTransform="matrix(1 0 0 -1 0 800)"> <stop offset="0" style="stop-color:#CA4C28"></stop> <stop offset="0.5" style="stop-color:#C5401E"></stop> <stop offset="1" style="stop-color:#B62F14"></stop> </linearGradient> <path style="fill:url(#SVGID_00000037655441840459684310000001057372436394227596_);" d="M1091.7,339c7.7-1.3,17.8-2.4,30.6-2.4 c15.8,0,27.3,3.7,34.7,10.3c6.8,5.9,10.8,14.9,10.8,25.9c0,11.2-3.3,20-9.5,26.4c-8.4,9-22.2,13.6-37.8,13.6 c-4.8,0-9.2-0.2-12.8-1.1v49.5h-16L1091.7,339L1091.7,339z M1107.7,398.8c3.5,0.9,7.9,1.3,13.2,1.3c19.3,0,31-9.4,31-26.4 c0-16.3-11.6-24.2-29.2-24.2c-7,0-12.3,0.6-15,1.3V398.8z"></path> <linearGradient id="SVGID_00000141427704708809574600000002975769756676823980_" gradientUnits="userSpaceOnUse" x1="1177.8" y1="383.1" x2="1264.6" y2="383.1" gradientTransform="matrix(1 0 0 -1 0 800)"> <stop offset="0" style="stop-color:#CA4C28"></stop> <stop offset="0.5" style="stop-color:#C5401E"></stop> <stop offset="1" style="stop-color:#B62F14"></stop> </linearGradient> <path style="fill:url(#SVGID_00000141427704708809574600000002975769756676823980_);" d="M1264.6,416.1c0,32.8-22.8,47.2-44.2,47.2 c-24,0-42.6-17.6-42.6-45.7c0-29.7,19.5-47.2,44-47.2C1247.3,370.5,1264.6,389,1264.6,416.1z M1194.1,417c0,19.5,11.2,34.1,27,34.1 c15.4,0,27-14.5,27-34.5c0-15-7.5-34.1-26.6-34.1C1202.3,382.5,1194.1,400.1,1194.1,417z"></path> <linearGradient id="SVGID_00000019648333722055596980000017515684096608453311_" gradientUnits="userSpaceOnUse" x1="1282.9" y1="400.65" x2="1302.907" y2="400.65" gradientTransform="matrix(1 0 0 -1 0 800)"> <stop offset="0" style="stop-color:#CA4C28"></stop> <stop offset="0.5" style="stop-color:#C5401E"></stop> <stop offset="1" style="stop-color:#B62F14"></stop> </linearGradient> <path style="fill:url(#SVGID_00000019648333722055596980000017515684096608453311_);" d="M1302.9,347.5c0.2,5.5-3.9,9.9-10.3,9.9 c-5.7,0-9.7-4.4-9.7-9.9c0-5.7,4.2-10.1,10.1-10.1C1299.1,337.4,1302.9,341.9,1302.9,347.5z M1284.9,461.2v-88.8h16.1v88.8H1284.9z "></path> <linearGradient id="SVGID_00000022540620896440869140000014101543769424435901_" gradientUnits="userSpaceOnUse" x1="1327.2001" y1="384.05" x2="1403.6002" y2="384.05" gradientTransform="matrix(1 0 0 -1 0 800)"> <stop offset="0" style="stop-color:#CA4C28"></stop> <stop offset="0.5" style="stop-color:#C5401E"></stop> <stop offset="1" style="stop-color:#B62F14"></stop> </linearGradient> <path style="fill:url(#SVGID_00000022540620896440869140000014101543769424435901_);" d="M1327.9,396.5c0-9.2-0.2-16.7-0.7-24h14.3 l0.9,14.7h0.4c4.4-8.4,14.7-16.7,29.4-16.7c12.3,0,31.4,7.3,31.4,37.8v53h-16.1v-51.2c0-14.3-5.3-26.2-20.6-26.2 c-10.6,0-18.9,7.5-21.7,16.5c-0.7,2-1.1,4.8-1.1,7.5v53.3H1328L1327.9,396.5L1327.9,396.5z"></path> <linearGradient id="SVGID_00000083079557970974889200000017520750128113903518_" gradientUnits="userSpaceOnUse" x1="1418.8999" y1="394.95" x2="1471.5" y2="394.95" gradientTransform="matrix(1 0 0 -1 0 800)"> <stop offset="0" style="stop-color:#CA4C28"></stop> <stop offset="0.5" style="stop-color:#C5401E"></stop> <stop offset="1" style="stop-color:#B62F14"></stop> </linearGradient> <path style="fill:url(#SVGID_00000083079557970974889200000017520750128113903518_);" d="M1448.4,346.9v25.5h23.1v12.3h-23.1v47.9 c0,11,3.1,17.3,12.1,17.3c4.2,0,7.3-0.6,9.4-1.1l0.7,12.1c-3.1,1.3-8.1,2.2-14.3,2.2c-7.5,0-13.6-2.4-17.4-6.8 c-4.6-4.8-6.2-12.7-6.2-23.1v-48.4h-13.8v-12.3h13.8v-21.3L1448.4,346.9z"></path> </g> <g> <path class="st10" d="M340.7,417.3l-26.7-196h-2c-97.2,0.3-175.9,79-176.2,176.2v2L340.7,417.3z"></path> <path class="st11" d="M316,221.3h-2v178.2l89.1,35.6l89.1-35.6v-2C491.9,300.3,413.2,221.6,316,221.3z"></path> <path class="st12" d="M492.2,399.5v2c-0.3,97.2-79,175.9-176.2,176.2h-3.9c-97.2-0.3-175.9-79-176.2-176.2v-2H492.2z"></path> <path class="st13" d="M322.9,308.9V499c0,6.6-4,12.5-10.2,15.1c-1.9,0.8-4,1.2-6.1,1.2H177.9c-2.5-2.9-4.9-5.9-7.1-8.9 c-22.7-30.3-35-67.1-34.9-105v-3.9c-0.1-34.1,9.9-67.5,28.7-96c2-3,4-6.1,6.2-8.9h135.9C315.6,292.7,322.9,299.9,322.9,308.9z"></path> <path class="st14" d="M314,317.8v190.1c0,2.1-0.4,4.2-1.2,6.1c-2.5,6.1-8.5,10.1-15.1,10.2H186c-2.8-2.9-5.5-5.8-8.1-8.9 c-2.5-2.9-4.9-5.9-7.1-8.9c-22.7-30.3-35-67.1-34.9-105v-3.9c-0.1-34.1,9.9-67.5,28.7-96h133.2C306.7,301.6,313.9,308.8,314,317.8z "></path> <path class="st14" d="M314,317.8v172.3c-0.1,9-7.3,16.2-16.3,16.3h-127c-22.7-30.3-35-67.1-34.9-105v-3.9 c-0.1-34.1,9.9-67.5,28.7-96h133.2C306.7,301.6,313.9,308.8,314,317.8z"></path> <path class="st14" d="M305.1,317.8v172.3c-0.1,9-7.3,16.2-16.3,16.3h-118c-22.7-30.3-35-67.1-34.9-105v-3.9 c-0.1-34.1,9.9-67.5,28.7-96h124.3C297.8,301.6,305,308.8,305.1,317.8z"></path> <linearGradient id="SVGID_00000149359340346197055550000011564098741831539076_" gradientUnits="userSpaceOnUse" x1="143.1282" y1="1507.2599" x2="270.9718" y2="1285.8401" gradientTransform="matrix(1 0 0 -1 0 1796)"> <stop offset="0" style="stop-color:#CA4C28"></stop> <stop offset="0.5" style="stop-color:#C5401E"></stop> <stop offset="1" style="stop-color:#B62F14"></stop> </linearGradient> <path style="fill:url(#SVGID_00000149359340346197055550000011564098741831539076_);" d="M125.4,301.5h163.3 c9,0,16.3,7.3,16.3,16.3v163.3c0,9-7.3,16.3-16.3,16.3H125.4c-9,0-16.3-7.3-16.3-16.3V317.8C109.1,308.8,116.4,301.5,125.4,301.5z"></path> <path class="st16" d="M208.9,345.1c10.6-0.7,21.2,2.4,29.7,8.7c7.1,6.4,11,15.7,10.4,25.2c0.1,6.6-1.7,13.2-5.1,18.9 c-3.5,5.6-8.5,10-14.5,12.8c-6.8,3.2-14.3,4.7-21.8,4.6h-20.7v38.4h-21.2V345.1H208.9z M186.9,398.7h18.2 c5.8,0.4,11.5-1.3,16.1-4.8c3.8-3.6,5.8-8.8,5.4-14c0-12-7-18-20.9-18h-18.9L186.9,398.7L186.9,398.7z"></path> </g> </svg> 