<?xml version="1.0" encoding="UTF-8"?>
<svg xmlns="http://www.w3.org/2000/svg" xmlns:xlink="http://www.w3.org/1999/xlink" width="px" height="150px" viewBox="0 0 506 150" version="1.1">
<defs>
<linearGradient id="linear0" gradientUnits="userSpaceOnUse" x1="26.65" y1="20.6" x2="135.699997" y2="114.400002" gradientTransform="matrix(0.585648,0,0,0.591667,-9.786831,-5.526041)">
<stop offset="0" style="stop-color:rgb(35.294118%,62.352941%,83.137255%);stop-opacity:1;"/>
<stop offset="1" style="stop-color:rgb(18.823529%,41.176471%,59.607843%);stop-opacity:1;"/>
</linearGradient>
<linearGradient id="linear1" gradientUnits="userSpaceOnUse" x1="151" y1="192.399994" x2="112" y2="137.300003" gradientTransform="matrix(0.585648,0,0,0.591667,-9.786831,-5.526041)">
<stop offset="0" style="stop-color:rgb(100%,83.137255%,23.137255%);stop-opacity:1;"/>
<stop offset="1" style="stop-color:rgb(100%,90.980392%,45.098039%);stop-opacity:1;"/>
</linearGradient>
<filter id="alpha" filterUnits="objectBoundingBox" x="0%" y="0%" width="100%" height="100%">
  <feColorMatrix type="matrix" in="SourceGraphic" values="0 0 0 0 1 0 0 0 0 1 0 0 0 0 1 0 0 0 1 0"/>
</filter>
<mask id="mask0">
  <g filter="url(#alpha)">
<rect x="0" y="0" width="506" height="150" style="fill:rgb(0%,0%,0%);fill-opacity:0.443137;stroke:none;"/>
  </g>
</mask>
<radialGradient id="radial0" gradientUnits="userSpaceOnUse" cx="61.52" cy="132.300003" fx="61.52" fy="132.300003" r="29.040001" gradientTransform="matrix(0.0000000182135,-0.249933,1.098313,0.000000394969,-81.295093,155.041403)">
<stop offset="0" style="stop-color:rgb(72.156863%,72.156863%,72.156863%);stop-opacity:0.498039;"/>
<stop offset="1" style="stop-color:rgb(49.803922%,49.803922%,49.803922%);stop-opacity:0;"/>
</radialGradient>
<clipPath id="clip1">
  <rect x="0" y="0" width="506" height="150"/>
</clipPath>
<g id="surface5" clip-path="url(#clip1)">
<path style=" stroke:none;fill-rule:nonzero;fill:url(#radial0);" d="M 101.375 139.695312 C 101.375 143.703125 84.625 146.953125 63.960938 146.953125 C 43.300781 146.953125 26.550781 143.703125 26.550781 139.695312 C 26.550781 135.6875 43.300781 132.4375 63.960938 132.4375 C 84.625 132.4375 101.375 135.6875 101.375 139.695312 Z M 101.375 139.695312 "/>
</g>
</defs>
<g id="surface1">
<path style=" stroke:none;fill-rule:nonzero;fill:rgb(39.215687%,39.215687%,39.215687%);fill-opacity:1;" d="M 192.195312 64.511719 C 192.195312 49.34375 187.875 41.550781 179.222656 41.125 C 175.785156 40.960938 172.425781 41.511719 169.15625 42.78125 C 166.550781 43.714844 164.792969 44.636719 163.871094 45.570312 L 163.871094 81.78125 C 169.402344 85.253906 174.3125 86.867188 178.59375 86.613281 C 187.652344 86.015625 192.1875 78.652344 192.1875 64.507812 Z M 202.859375 65.140625 C 202.859375 72.847656 201.050781 79.242188 197.417969 84.328125 C 193.371094 90.085938 187.757812 93.050781 180.582031 93.210938 C 175.175781 93.382812 169.597656 91.6875 163.875 88.132812 L 163.875 121.039062 L 154.597656 117.730469 L 154.597656 44.6875 C 156.121094 42.820312 158.078125 41.214844 160.453125 39.855469 C 165.972656 36.636719 172.6875 34.980469 180.578125 34.898438 L 180.710938 35.03125 C 187.925781 34.941406 193.484375 37.90625 197.390625 43.917969 C 201.03125 49.429688 202.859375 56.5 202.859375 65.136719 Z M 202.859375 65.140625 "/>
<path style=" stroke:none;fill-rule:nonzero;fill:rgb(39.215687%,39.215687%,39.215687%);fill-opacity:1;" d="M 259.558594 86.738281 C 259.558594 97.074219 258.523438 104.230469 256.453125 108.21875 C 254.375 112.199219 250.414062 115.378906 244.574219 117.742188 C 239.835938 119.609375 234.710938 120.625 229.207031 120.800781 L 227.675781 114.949219 C 233.265625 114.191406 237.203125 113.429688 239.492188 112.667969 C 243.988281 111.144531 247.070312 108.808594 248.765625 105.679688 C 250.125 103.132812 250.796875 98.269531 250.796875 91.066406 L 250.796875 88.648438 C 244.453125 91.535156 237.800781 92.964844 230.859375 92.964844 C 226.292969 92.964844 222.261719 91.535156 218.789062 88.648438 C 214.894531 85.511719 212.945312 81.53125 212.945312 76.710938 L 212.945312 38.085938 L 222.222656 34.910156 L 222.222656 73.785156 C 222.222656 77.9375 223.5625 81.136719 226.242188 83.378906 C 228.917969 85.621094 232.390625 86.699219 236.640625 86.617188 C 240.894531 86.527344 245.449219 84.882812 250.292969 81.664062 L 250.292969 36.308594 L 259.566406 36.308594 L 259.566406 86.734375 Z M 259.558594 86.738281 "/>
<path style=" stroke:none;fill-rule:nonzero;fill:rgb(39.215687%,39.215687%,39.215687%);fill-opacity:1;" d="M 295.792969 92.707031 C 294.6875 92.800781 293.671875 92.839844 292.738281 92.839844 C 287.492188 92.839844 283.402344 91.589844 280.480469 89.085938 C 277.570312 86.574219 276.109375 83.113281 276.109375 78.699219 L 276.109375 42.144531 L 269.753906 42.144531 L 269.753906 36.308594 L 276.109375 36.308594 L 276.109375 20.808594 L 285.375 17.507812 L 285.375 36.308594 L 295.796875 36.308594 L 295.796875 42.148438 L 285.375 42.148438 L 285.375 78.449219 C 285.375 81.933594 286.308594 84.398438 288.175781 85.839844 C 289.777344 87.027344 292.324219 87.710938 295.796875 87.882812 L 295.796875 92.714844 Z M 295.792969 92.707031 "/>
<path style=" stroke:none;fill-rule:nonzero;fill:rgb(39.215687%,39.215687%,39.215687%);fill-opacity:1;" d="M 351.910156 91.949219 L 342.632812 91.949219 L 342.632812 56.125 C 342.632812 52.480469 341.78125 49.34375 340.085938 46.722656 C 338.128906 43.757812 335.410156 42.277344 331.917969 42.277344 C 327.664062 42.277344 322.347656 44.519531 315.96875 49.007812 L 315.96875 91.945312 L 306.691406 91.945312 L 306.691406 6.320312 L 315.96875 3.394531 L 315.96875 42.394531 C 321.894531 38.082031 328.367188 35.917969 335.40625 35.917969 C 340.316406 35.917969 344.292969 37.574219 347.335938 40.871094 C 350.390625 44.171875 351.914062 48.285156 351.914062 53.195312 L 351.914062 91.933594 Z M 351.910156 91.949219 "/>
<path style=" stroke:none;fill-rule:nonzero;fill:rgb(39.215687%,39.215687%,39.215687%);fill-opacity:1;" d="M 401.261719 63.050781 C 401.261719 57.222656 400.15625 52.417969 397.953125 48.605469 C 395.332031 43.964844 391.265625 41.519531 385.757812 41.261719 C 375.589844 41.851562 370.515625 49.144531 370.515625 63.117188 C 370.515625 69.523438 371.574219 74.878906 373.703125 79.167969 C 376.421875 84.644531 380.503906 87.34375 385.949219 87.253906 C 396.15625 87.171875 401.261719 79.109375 401.261719 63.054688 Z M 411.417969 63.113281 C 411.417969 71.40625 409.296875 78.3125 405.066406 83.820312 C 400.40625 89.996094 393.976562 93.089844 385.761719 93.089844 C 377.625 93.089844 371.28125 89.996094 366.699219 83.820312 C 362.546875 78.308594 360.476562 71.40625 360.476562 63.113281 C 360.476562 55.316406 362.722656 48.757812 367.207031 43.414062 C 371.945312 37.75 378.179688 34.90625 385.875 34.90625 C 393.578125 34.90625 399.847656 37.75 404.675781 43.414062 C 409.164062 48.753906 411.40625 55.3125 411.40625 63.113281 Z M 411.417969 63.113281 "/>
<path style=" stroke:none;fill-rule:nonzero;fill:rgb(39.215687%,39.215687%,39.215687%);fill-opacity:1;" d="M 464.5625 91.949219 L 455.285156 91.949219 L 455.285156 54.09375 C 455.285156 49.941406 454.039062 46.703125 451.542969 44.367188 C 449.042969 42.042969 445.714844 40.914062 441.566406 41.007812 C 437.164062 41.085938 432.96875 42.527344 428.988281 45.320312 L 428.988281 91.945312 L 419.714844 91.945312 L 419.714844 44.175781 C 425.050781 40.289062 429.964844 37.75 434.445312 36.5625 C 438.679688 35.457031 442.410156 34.90625 445.628906 34.90625 C 447.828125 34.90625 449.902344 35.121094 451.847656 35.546875 C 455.492188 36.386719 458.453125 37.953125 460.738281 40.246094 C 463.285156 42.785156 464.554688 45.832031 464.554688 49.394531 L 464.554688 91.945312 Z M 464.5625 91.949219 "/>
<path style=" stroke:none;fill-rule:nonzero;fill:url(#linear0);" d="M 63 6.664062 C 58.226562 6.6875 53.671875 7.09375 49.664062 7.804688 C 37.847656 9.894531 35.699219 14.261719 35.699219 22.324219 L 35.699219 32.972656 L 63.613281 32.972656 L 63.613281 36.519531 L 25.226562 36.519531 C 17.113281 36.519531 10.003906 41.398438 7.789062 50.675781 C 5.222656 61.308594 5.109375 67.957031 7.789062 79.058594 C 9.773438 87.328125 14.511719 93.214844 22.625 93.214844 L 32.222656 93.214844 L 32.222656 80.457031 C 32.222656 71.238281 40.195312 63.101562 49.660156 63.101562 L 77.542969 63.101562 C 85.304688 63.101562 91.503906 56.707031 91.503906 48.914062 L 91.503906 22.320312 C 91.503906 14.753906 85.125 9.070312 77.542969 7.800781 C 72.75 7 67.773438 6.636719 63 6.660156 Z M 47.902344 15.226562 C 50.789062 15.226562 53.140625 17.621094 53.140625 20.566406 C 53.140625 23.496094 50.785156 25.871094 47.902344 25.871094 C 45.011719 25.871094 42.664062 23.5 42.664062 20.566406 C 42.664062 17.621094 45.011719 15.226562 47.902344 15.226562 Z M 47.902344 15.226562 "/>
<path style=" stroke:none;fill-rule:nonzero;fill:url(#linear1);" d="M 94.984375 36.511719 L 94.984375 48.917969 C 94.984375 58.53125 86.835938 66.625 77.546875 66.625 L 49.664062 66.625 C 42.023438 66.625 35.699219 73.164062 35.699219 80.8125 L 35.699219 107.40625 C 35.699219 114.976562 42.28125 119.425781 49.664062 121.59375 C 58.5 124.195312 66.976562 124.664062 77.546875 121.59375 C 84.574219 119.558594 91.507812 115.460938 91.507812 107.40625 L 91.507812 96.761719 L 63.625 96.761719 L 63.625 93.210938 L 105.46875 93.210938 C 113.582031 93.210938 116.609375 87.550781 119.429688 79.054688 C 122.34375 70.308594 122.222656 61.890625 119.429688 50.671875 C 117.425781 42.589844 113.597656 36.515625 105.46875 36.515625 L 94.996094 36.515625 Z M 79.304688 103.863281 C 82.199219 103.863281 84.542969 106.238281 84.542969 109.171875 C 84.542969 112.113281 82.199219 114.507812 79.304688 114.507812 C 76.421875 114.507812 74.066406 112.113281 74.066406 109.171875 C 74.066406 106.238281 76.421875 103.863281 79.304688 103.863281 Z M 79.304688 103.863281 "/>
<path style=" stroke:none;fill-rule:nonzero;fill:rgb(39.215687%,39.215687%,39.215687%);fill-opacity:1;" d="M 482.679688 28.03125 L 484.304688 28.03125 L 484.304688 17.828125 L 488.15625 17.828125 L 488.15625 16.609375 L 478.824219 16.609375 L 478.824219 17.828125 L 482.679688 17.828125 L 482.679688 28.03125 M 489.597656 28.03125 L 490.988281 28.03125 L 490.988281 18.710938 L 494.003906 28.03125 L 495.550781 28.03125 L 498.691406 18.742188 L 498.691406 28.03125 L 500.207031 28.03125 L 500.207031 16.613281 L 498.203125 16.613281 L 494.769531 26.398438 L 491.839844 16.613281 L 489.597656 16.613281 L 489.597656 28.03125 "/>
<use xlink:href="#surface5" mask="url(#mask0)"/>
</g>
</svg>
