<?xml version="1.0" encoding="UTF-8"?>
<svg xmlns="http://www.w3.org/2000/svg" xmlns:xlink="http://www.w3.org/1999/xlink" width="px" height="150px" viewBox="0 0 150 150" version="1.1">
<g id="surface1">
<path style=" stroke:none;fill-rule:nonzero;fill:rgb(0%,73.725492%,94.901961%);fill-opacity:1;" d="M 66.097656 149.902344 C 52.054688 148.890625 38.175781 145.359375 29.667969 140.625 C 24.820312 137.929688 21.125 134.621094 19.675781 131.667969 L 18.8125 129.910156 L 18.8125 19.734375 L 19.496094 18.347656 C 22.546875 12.15625 32.277344 6.578125 45.863281 3.226562 C 50.472656 2.089844 57.128906 0.960938 62.5625 0.386719 C 68.105469 -0.195312 82.804688 -0.105469 88.335938 0.546875 C 103.039062 2.273438 115.550781 6.140625 123.261719 11.339844 C 126.234375 13.34375 129.285156 16.554688 130.320312 18.761719 L 131.207031 20.65625 L 131.128906 75.578125 L 131.054688 130.5 L 130.34375 131.945312 C 129.953125 132.742188 128.769531 134.304688 127.714844 135.421875 C 121.304688 142.21875 107.554688 147.246094 89.515625 149.386719 C 85.839844 149.824219 69.867188 150.175781 66.097656 149.90625 Z M 91.972656 102.699219 C 91.917969 102.558594 89.816406 100.691406 87.304688 98.546875 C 84.796875 96.398438 82.632812 94.542969 82.5 94.421875 C 82.367188 94.296875 82.832031 93.863281 83.53125 93.453125 C 84.230469 93.042969 85.570312 91.902344 86.507812 90.917969 C 89.253906 88.039062 90.546875 84.488281 90.546875 79.832031 C 90.546875 75.246094 89.152344 71.550781 86.355469 68.726562 C 83.535156 65.882812 80.300781 64.660156 75.585938 64.660156 C 68.320312 64.660156 62.742188 68.898438 60.960938 75.769531 C 60.351562 78.132812 60.351562 82.910156 60.96875 85.007812 C 62.574219 90.472656 66.949219 94.445312 72.390625 95.375 C 74.234375 95.691406 74.484375 95.828125 75.738281 97.199219 C 76.484375 98.015625 78.015625 99.644531 79.140625 100.820312 L 81.1875 102.957031 L 86.628906 102.957031 C 89.621094 102.957031 92.023438 102.839844 91.972656 102.699219 Z M 73.3125 87.46875 C 72.003906 86.785156 71.507812 86.253906 70.761719 84.738281 C 70.1875 83.5625 70.085938 82.898438 70.082031 80.125 C 70.074219 77.308594 70.164062 76.699219 70.765625 75.476562 C 71.75 73.476562 73.109375 72.527344 75.210938 72.378906 C 78.132812 72.164062 79.820312 73.601562 80.707031 77.046875 C 81.789062 81.277344 80.597656 85.773438 77.996094 87.265625 C 76.632812 88.046875 74.59375 88.136719 73.3125 87.46875 Z M 49.199219 95.316406 C 54.902344 94.234375 58.140625 90.917969 58.140625 86.15625 C 58.140625 81.933594 56.050781 79.46875 50.273438 76.890625 C 46.96875 75.414062 45.769531 74.488281 45.769531 73.40625 C 45.769531 72.507812 46.90625 71.523438 48.230469 71.277344 C 49.523438 71.035156 52.949219 71.632812 54.972656 72.449219 L 56.667969 73.132812 L 56.667969 65.625 L 54.828125 65.214844 C 53.691406 64.960938 51.296875 64.8125 48.566406 64.820312 C 44.699219 64.820312 43.941406 64.914062 42.484375 65.492188 C 38.234375 67.179688 36.214844 70.054688 36.246094 74.382812 C 36.277344 78.429688 38.414062 80.957031 43.730469 83.230469 C 46.867188 84.570312 48.125 85.589844 48.125 86.796875 C 48.125 89.359375 43.855469 89.675781 39.332031 87.445312 C 38.09375 86.835938 36.980469 86.285156 36.859375 86.226562 C 36.734375 86.164062 36.636719 87.917969 36.636719 90.125 C 36.636719 94.113281 36.640625 94.132812 37.363281 94.410156 C 40.085938 95.445312 46.097656 95.90625 49.199219 95.316406 Z M 114.410156 91.613281 L 114.410156 88.226562 L 104.097656 88.226562 L 104.097656 64.953125 L 94.964844 64.953125 L 94.964844 95.003906 L 114.410156 95.003906 Z M 82.59375 32.246094 C 91.667969 31.617188 98.46875 30.429688 104.453125 28.429688 C 110.417969 26.433594 113.9375 24.023438 114.726562 21.390625 C 115.03125 20.378906 115.007812 19.996094 114.585938 18.882812 C 112.683594 13.902344 102.054688 10.074219 85.816406 8.523438 C 78.871094 7.859375 66.238281 8.074219 59.617188 8.96875 C 49.507812 10.335938 41.308594 12.871094 37.660156 15.757812 C 30.285156 21.601562 38.085938 28.023438 56.226562 31.046875 C 64.09375 32.359375 74.285156 32.824219 82.59375 32.246094 Z M 82.59375 32.246094 "/>
</g>
</svg>
