<?xml version="1.0" encoding="UTF-8"?>
<svg xmlns="http://www.w3.org/2000/svg" xmlns:xlink="http://www.w3.org/1999/xlink" width="px" height="150px" viewBox="0 0 212 150" version="1.1">
<g id="surface1">
<path style=" stroke:none;fill-rule:nonzero;fill:rgb(43.921569%,59.607846%,64.705884%);fill-opacity:1;" d="M 40.132812 58.957031 L 40.132812 60.597656 L 37.203125 60.597656 L 37.203125 61.664062 L 40.132812 61.664062 L 40.132812 64.929688 L 41.277344 64.929688 L 41.277344 61.664062 L 44.28125 61.664062 L 44.28125 60.597656 L 41.277344 60.597656 L 41.277344 57.328125 L 40.132812 57.328125 Z M 40.132812 58.957031 "/>
<path style=" stroke:none;fill-rule:nonzero;fill:rgb(92.156863%,56.862748%,17.254902%);fill-opacity:1;" d="M 30.558594 63.117188 L 30.558594 65.496094 L 26.117188 65.496094 L 26.117188 66.988281 L 30.558594 66.988281 L 30.558594 71.820312 L 32.203125 71.820312 L 32.203125 66.988281 L 36.703125 66.988281 L 36.703125 65.496094 L 32.199219 65.496094 L 32.199219 60.738281 L 30.554688 60.738281 L 30.554688 63.117188 Z M 30.558594 63.117188 "/>
<path style=" stroke:none;fill-rule:nonzero;fill:rgb(34.901962%,52.941179%,60.784316%);fill-opacity:1;" d="M 49.144531 63.117188 L 49.144531 65.496094 L 44.707031 65.496094 L 44.707031 67.0625 L 49.144531 67.0625 L 49.144531 71.820312 L 50.855469 71.820312 L 50.855469 67.0625 L 55.289062 67.0625 L 55.289062 65.496094 L 50.855469 65.496094 L 50.855469 60.738281 L 49.144531 60.738281 C 49.144531 60.738281 49.144531 63.117188 49.144531 63.117188 Z M 49.144531 63.117188 "/>
<path style=" stroke:none;fill-rule:evenodd;fill:rgb(11.764706%,26.666668%,49.803922%);fill-opacity:1;" d="M 130.0625 64.429688 L 132.347656 64.429688 L 132.347656 84.6875 L 130.0625 84.6875 Z M 111.148438 66.558594 L 113.472656 66.558594 L 113.472656 69.371094 C 113.472656 72.011719 113.488281 72.167969 113.601562 72.140625 L 114.371094 71.917969 C 114.792969 71.804688 115.300781 71.734375 115.839844 71.699219 C 116.316406 71.664062 116.792969 71.691406 117.261719 71.777344 C 118.097656 71.964844 118.882812 72.339844 119.550781 72.871094 C 120.125 73.40625 120.566406 74.0625 120.851562 74.789062 C 120.992188 75.171875 121.097656 75.5625 121.171875 75.964844 C 121.25 76.445312 121.273438 76.859375 121.246094 77.507812 C 121.222656 77.996094 121.152344 78.601562 121.085938 78.855469 C 120.996094 79.183594 120.878906 79.503906 120.738281 79.8125 C 120.578125 80.140625 120.390625 80.449219 120.179688 80.742188 C 119.707031 81.332031 119.097656 81.800781 118.40625 82.109375 C 118.058594 82.265625 117.699219 82.398438 117.332031 82.5 C 116.875 82.628906 116.582031 82.648438 115.261719 82.65625 C 114.125 82.722656 112.984375 82.574219 111.902344 82.21875 C 111.675781 82.164062 111.457031 82.089844 111.246094 81.992188 C 111.222656 81.964844 111.1875 78.488281 111.175781 74.257812 Z M 114.046875 74.140625 L 113.515625 74.328125 L 113.515625 80.242188 C 114.632812 80.535156 114.871094 80.554688 115.621094 80.535156 C 116.066406 80.558594 116.515625 80.492188 116.941406 80.347656 C 117.175781 80.257812 117.503906 80.082031 117.65625 79.957031 C 117.816406 79.835938 118.039062 79.609375 118.160156 79.457031 C 118.316406 79.234375 118.445312 79 118.539062 78.75 C 118.636719 78.515625 118.742188 78.070312 118.78125 77.753906 C 118.839844 77.328125 118.839844 77.035156 118.773438 76.582031 C 118.683594 75.878906 118.390625 75.214844 117.929688 74.675781 C 117.75 74.503906 117.550781 74.351562 117.335938 74.222656 C 116.824219 73.9375 116.246094 73.796875 115.660156 73.816406 C 115.386719 73.824219 115.023438 73.859375 114.871094 73.890625 C 114.710938 73.925781 114.347656 74.039062 114.046875 74.144531 Z M 73.304688 67.273438 L 75.589844 67.273438 L 75.589844 73.738281 L 81.734375 73.738281 L 81.734375 75.871094 L 75.589844 75.871094 L 75.589844 82.835938 L 73.304688 82.835938 L 73.304688 75.871094 L 67.15625 75.871094 L 67.15625 73.738281 L 73.304688 73.738281 Z M 73.304688 67.273438 "/>
<path style=" stroke:none;fill-rule:nonzero;fill:rgb(91.37255%,46.27451%,17.254902%);fill-opacity:1;" d="M 39.707031 71.21875 L 39.707031 73.882812 L 34.773438 73.882812 L 34.773438 75.871094 L 39.707031 75.871094 L 39.707031 81.203125 L 41.707031 81.203125 L 41.707031 75.871094 L 46.640625 75.871094 L 46.640625 73.882812 L 41.707031 73.882812 L 41.707031 68.554688 L 39.707031 68.554688 Z M 39.707031 71.21875 "/>
<path style=" stroke:none;fill-rule:nonzero;fill:rgb(35.686275%,39.607844%,57.254905%);fill-opacity:1;" d="M 54.21875 72.566406 L 54.21875 74.238281 L 51.214844 74.238281 L 51.214844 75.59375 L 54.21875 75.59375 L 54.21875 78.933594 L 55.71875 78.933594 L 55.71875 75.59375 L 58.71875 75.59375 L 58.71875 74.238281 L 55.714844 74.238281 L 55.714844 70.898438 L 54.21875 70.898438 Z M 54.21875 72.566406 "/>
<path style=" stroke:none;fill-rule:nonzero;fill:rgb(43.921569%,59.607846%,64.705884%);fill-opacity:1;" d="M 25.621094 72.714844 L 25.621094 74.3125 L 22.691406 74.3125 L 22.691406 75.445312 L 25.621094 75.445312 L 25.621094 78.644531 L 26.765625 78.644531 L 26.765625 75.445312 L 29.769531 75.335938 L 29.769531 74.3125 L 26.765625 74.3125 L 26.765625 71.113281 L 25.621094 71.113281 C 25.621094 71.113281 25.621094 72.714844 25.621094 72.714844 Z M 25.621094 72.714844 "/>
<path style=" stroke:none;fill-rule:evenodd;fill:rgb(11.764706%,26.666668%,49.803922%);fill-opacity:1;" d="M 97.824219 71.605469 L 100.109375 71.605469 L 100.109375 75.820312 C 100.109375 78.140625 100.082031 80.492188 100.003906 82.0625 L 99.429688 82.238281 C 98.949219 82.367188 98.457031 82.476562 97.964844 82.5625 C 97.210938 82.691406 96.875 82.703125 95.789062 82.675781 C 95.164062 82.691406 94.539062 82.628906 93.929688 82.5 C 93.089844 82.285156 92.308594 81.886719 91.640625 81.332031 C 91.367188 81.078125 91.125 80.796875 90.914062 80.492188 C 90.730469 80.210938 90.570312 79.914062 90.433594 79.605469 C 90.339844 79.371094 90.203125 78.90625 90.136719 78.578125 C 90.035156 78.027344 90.007812 77.464844 90.046875 76.90625 C 90.082031 76.097656 90.125 75.703125 90.238281 75.304688 C 90.464844 74.550781 90.847656 73.851562 91.367188 73.253906 C 91.625 72.980469 91.90625 72.730469 92.210938 72.507812 C 92.484375 72.332031 92.773438 72.179688 93.070312 72.054688 C 93.300781 71.960938 93.726562 71.835938 94.015625 71.78125 C 94.300781 71.726562 94.832031 71.679688 95.191406 71.679688 C 95.5625 71.679688 96.078125 71.738281 96.355469 71.789062 C 96.632812 71.851562 97.0625 71.996094 97.324219 72.117188 C 97.578125 72.230469 97.796875 72.328125 97.804688 72.324219 C 97.808594 72.324219 97.824219 72.164062 97.824219 71.96875 C 97.824219 71.964844 97.824219 71.605469 97.824219 71.605469 Z M 93.933594 74.222656 C 93.742188 74.332031 93.460938 74.550781 93.308594 74.71875 C 92.9375 75.132812 92.683594 75.632812 92.570312 76.175781 C 92.429688 76.8125 92.417969 77.46875 92.535156 78.109375 C 92.582031 78.339844 92.703125 78.726562 92.816406 78.960938 C 93.125 79.582031 93.648438 80.074219 94.285156 80.34375 C 94.621094 80.472656 94.886719 80.511719 95.574219 80.546875 C 96.058594 80.570312 96.671875 80.539062 97 80.492188 C 97.3125 80.449219 97.601562 80.386719 97.652344 80.363281 C 97.703125 80.328125 97.746094 79.402344 97.78125 77.414062 L 97.824219 74.523438 C 97.242188 74.203125 96.914062 74.058594 96.710938 73.988281 C 96.386719 73.898438 96.054688 73.847656 95.710938 73.835938 C 95.097656 73.789062 94.480469 73.921875 93.9375 74.222656 Z M 168.523438 71.605469 L 170.808594 71.605469 L 170.808594 75.179688 C 170.808594 77.144531 170.785156 79.496094 170.699219 82.0625 L 170.128906 82.238281 C 169.664062 82.367188 169.191406 82.472656 168.71875 82.550781 C 167.5625 82.722656 166.394531 82.746094 165.234375 82.621094 C 164.859375 82.546875 164.492188 82.453125 164.128906 82.339844 C 163.714844 82.199219 163.320312 82.015625 162.949219 81.785156 C 162.613281 81.5625 162.304688 81.304688 162.023438 81.019531 C 161.785156 80.746094 161.570312 80.449219 161.386719 80.136719 C 161.214844 79.808594 161.074219 79.464844 160.960938 79.109375 C 160.8125 78.589844 160.738281 78.054688 160.75 77.511719 C 160.726562 76.863281 160.75 76.292969 160.800781 75.980469 C 160.847656 75.703125 160.964844 75.246094 161.066406 74.949219 C 161.191406 74.589844 161.355469 74.246094 161.554688 73.917969 C 162.199219 72.910156 163.191406 72.175781 164.34375 71.851562 C 165.222656 71.679688 166.128906 71.65625 167.023438 71.777344 C 167.320312 71.84375 167.765625 71.988281 168.027344 72.109375 C 168.28125 72.222656 168.5 72.324219 168.507812 72.316406 C 168.519531 72.316406 168.527344 72.15625 168.527344 71.964844 Z M 164.632812 74.222656 C 164.441406 74.332031 164.160156 74.550781 164.007812 74.71875 C 163.398438 75.40625 163.09375 76.308594 163.160156 77.222656 C 163.144531 77.839844 163.269531 78.453125 163.527344 79.015625 C 163.613281 79.183594 163.835938 79.476562 164.015625 79.664062 C 164.386719 80.050781 164.859375 80.324219 165.378906 80.449219 C 165.625 80.523438 166.03125 80.5625 166.507812 80.5625 C 166.90625 80.5625 167.472656 80.53125 167.75 80.488281 C 168.039062 80.449219 168.308594 80.390625 168.351562 80.359375 C 168.410156 80.328125 168.445312 79.464844 168.464844 77.410156 L 168.484375 74.496094 C 168.054688 74.257812 167.597656 74.0625 167.125 73.917969 C 166.550781 73.789062 165.957031 73.789062 165.382812 73.925781 C 165.121094 74 164.871094 74.097656 164.636719 74.222656 Z M 147.082031 71.710938 C 147.492188 71.734375 148.019531 71.796875 148.257812 71.863281 C 148.875 72.027344 149.457031 72.308594 149.96875 72.691406 C 150.210938 72.875 150.542969 73.207031 150.714844 73.433594 C 150.886719 73.660156 151.132812 74.070312 151.265625 74.347656 C 151.425781 74.691406 151.554688 75.046875 151.65625 75.414062 C 151.734375 75.726562 151.828125 76.359375 151.898438 77.652344 L 144.003906 77.652344 L 144.050781 77.917969 C 144.125 78.457031 144.324219 78.96875 144.628906 79.417969 C 144.777344 79.625 144.996094 79.871094 145.109375 79.957031 C 145.230469 80.042969 145.472656 80.191406 145.648438 80.285156 C 145.820312 80.371094 146.128906 80.484375 146.328125 80.539062 C 146.527344 80.59375 147.0625 80.636719 147.542969 80.636719 C 148.011719 80.636719 148.691406 80.59375 149.046875 80.53125 C 149.398438 80.472656 149.898438 80.347656 150.152344 80.269531 C 150.40625 80.191406 150.738281 80.066406 150.882812 79.988281 C 150.992188 79.929688 151.105469 79.882812 151.222656 79.847656 C 151.269531 79.847656 151.296875 80.257812 151.296875 81.984375 L 150.902344 82.160156 C 150.570312 82.300781 150.230469 82.421875 149.886719 82.523438 C 149.539062 82.613281 148.910156 82.734375 148.472656 82.78125 C 147.882812 82.84375 147.484375 82.84375 146.863281 82.78125 C 145.957031 82.726562 145.074219 82.480469 144.265625 82.070312 C 143.523438 81.628906 142.882812 81.03125 142.394531 80.316406 C 142.003906 79.652344 141.746094 78.917969 141.640625 78.152344 C 141.488281 76.898438 141.6875 75.628906 142.214844 74.484375 C 142.394531 74.136719 142.601562 73.800781 142.839844 73.488281 C 143.035156 73.257812 143.414062 72.898438 143.683594 72.691406 C 143.957031 72.484375 144.417969 72.222656 144.707031 72.105469 C 145.050781 71.964844 145.410156 71.859375 145.777344 71.785156 C 146.140625 71.71875 146.582031 71.691406 147.082031 71.710938 Z M 145.511719 74.261719 C 145.269531 74.414062 145.042969 74.597656 144.84375 74.808594 C 144.6875 74.988281 144.480469 75.28125 144.390625 75.464844 C 144.320312 75.597656 144.261719 75.734375 144.21875 75.875 C 144.21875 75.921875 145.117188 75.945312 146.773438 75.945312 L 149.332031 75.945312 C 149.296875 75.632812 149.234375 75.320312 149.140625 75.023438 C 149.078125 74.886719 148.90625 74.636719 148.753906 74.46875 C 148.570312 74.265625 148.335938 74.109375 148.078125 74.015625 C 147.503906 73.8125 146.882812 73.78125 146.289062 73.921875 C 146.074219 73.980469 145.726562 74.132812 145.511719 74.261719 Z M 179.664062 71.894531 L 182.035156 71.894531 L 182.027344 75.46875 C 182.027344 78.832031 182.035156 79.0625 182.167969 79.496094 C 182.253906 79.765625 182.417969 80.078125 182.546875 80.238281 C 182.675781 80.386719 182.941406 80.585938 183.144531 80.679688 C 183.964844 81.027344 184.890625 81.027344 185.710938 80.679688 C 185.933594 80.570312 186.136719 80.417969 186.304688 80.238281 C 186.472656 80.015625 186.601562 79.765625 186.683594 79.496094 C 186.816406 79.066406 186.824219 78.832031 186.824219 71.894531 L 189.164062 71.894531 L 189.152344 75.753906 C 189.144531 79.40625 189.136719 79.625 189 80.03125 C 188.816406 80.554688 188.515625 81.035156 188.128906 81.433594 C 187.640625 81.871094 187.0625 82.195312 186.433594 82.386719 C 186.070312 82.5 185.59375 82.585938 185.144531 82.621094 C 184.746094 82.640625 184.109375 82.640625 183.714844 82.609375 C 183.277344 82.585938 182.847656 82.511719 182.425781 82.382812 C 182.078125 82.273438 181.742188 82.125 181.421875 81.949219 C 181.171875 81.796875 180.9375 81.625 180.722656 81.429688 C 180.535156 81.242188 180.371094 81.035156 180.222656 80.808594 C 180.074219 80.5625 179.953125 80.300781 179.855469 80.03125 C 179.714844 79.628906 179.710938 79.382812 179.691406 75.753906 Z M 179.664062 71.894531 "/>
<path style=" stroke:none;fill-rule:nonzero;fill:rgb(78.431374%,13.333334%,20.784314%);fill-opacity:1;" d="M 30.558594 80.242188 L 30.558594 82.621094 L 26.117188 82.621094 L 26.117188 84.1875 L 30.558594 84.1875 L 30.558594 88.949219 L 32.269531 88.949219 L 32.269531 84.1875 L 36.703125 84.1875 L 36.703125 82.621094 L 32.265625 82.621094 L 32.265625 77.863281 L 30.558594 77.863281 Z M 30.558594 80.242188 "/>
<path style=" stroke:none;fill-rule:nonzero;fill:rgb(11.764706%,26.666668%,49.803922%);fill-opacity:1;" d="M 49.144531 80.242188 L 49.144531 82.621094 L 44.707031 82.621094 L 44.707031 84.113281 L 49.144531 84.113281 L 49.144531 88.945312 L 50.855469 88.945312 L 50.855469 84.113281 L 55.289062 84.113281 L 55.289062 82.621094 L 50.855469 82.621094 L 50.855469 77.863281 L 49.144531 77.863281 Z M 49.144531 80.242188 "/>
<path style=" stroke:none;fill-rule:nonzero;fill:rgb(35.686275%,39.607844%,57.254905%);fill-opacity:1;" d="M 39.992188 86.289062 L 39.992188 87.953125 L 36.988281 87.953125 L 36.988281 89.308594 L 39.992188 89.308594 L 39.992188 92.648438 L 41.492188 92.648438 L 41.492188 89.304688 L 44.492188 89.304688 L 44.492188 87.957031 L 41.492188 87.957031 L 41.492188 84.613281 L 39.992188 84.613281 Z M 39.992188 86.289062 "/>
</g>
</svg>
